<mxfile host="Electron" agent="Mozilla/5.0 (Windows NT 10.0; Win64; x64) AppleWebKit/537.36 (KHTML, like Gecko) draw.io/24.7.17 Chrome/128.0.6613.36 Electron/32.0.1 Safari/537.36" version="24.7.17">
  <diagram name="Page-1" id="q99pgT5fz0MUvNjKLqyp">
    <mxGraphModel dx="1349" dy="836" grid="1" gridSize="10" guides="1" tooltips="1" connect="1" arrows="1" fold="1" page="1" pageScale="1" pageWidth="1169" pageHeight="827" math="0" shadow="0">
      <root>
        <mxCell id="0" />
        <mxCell id="1" parent="0" />
        <mxCell id="fopCFPs4-4a-7bakUN7a-12" value="" style="rounded=0;whiteSpace=wrap;html=1;" parent="1" vertex="1">
          <mxGeometry x="20" y="80" width="1070" height="590" as="geometry" />
        </mxCell>
        <mxCell id="fopCFPs4-4a-7bakUN7a-1" value="" style="whiteSpace=wrap;html=1;aspect=fixed;" parent="1" vertex="1">
          <mxGeometry x="80" y="200" width="160" height="160" as="geometry" />
        </mxCell>
        <mxCell id="fopCFPs4-4a-7bakUN7a-2" value="" style="aspect=fixed;sketch=0;html=1;dashed=0;whitespace=wrap;verticalLabelPosition=bottom;verticalAlign=top;fillColor=#2875E2;strokeColor=#ffffff;points=[[0.005,0.63,0],[0.1,0.2,0],[0.9,0.2,0],[0.5,0,0],[0.995,0.63,0],[0.72,0.99,0],[0.5,1,0],[0.28,0.99,0]];shape=mxgraph.kubernetes.icon2;kubernetesLabel=1;prIcon=api" parent="1" vertex="1">
          <mxGeometry x="118.34" y="230" width="83.33" height="80" as="geometry" />
        </mxCell>
        <mxCell id="fopCFPs4-4a-7bakUN7a-3" value="&lt;font face=&quot;Helvetica&quot;&gt;&lt;b&gt;API&lt;/b&gt;&lt;/font&gt;" style="text;html=1;align=center;verticalAlign=middle;whiteSpace=wrap;rounded=0;fontFamily=Verdana;" parent="1" vertex="1">
          <mxGeometry x="130" y="320" width="60" height="30" as="geometry" />
        </mxCell>
        <mxCell id="fopCFPs4-4a-7bakUN7a-4" value="" style="image;aspect=fixed;html=1;points=[];align=center;fontSize=12;image=img/lib/azure2/databases/Azure_Database_PostgreSQL_Server.svg;" parent="1" vertex="1">
          <mxGeometry x="600" y="220" width="90" height="120" as="geometry" />
        </mxCell>
        <mxCell id="fopCFPs4-4a-7bakUN7a-6" value="&lt;font face=&quot;Helvetica&quot; style=&quot;font-size: 14px;&quot;&gt;&lt;b&gt;Postgresql Database&lt;/b&gt;&lt;/font&gt;" style="text;html=1;align=center;verticalAlign=middle;whiteSpace=wrap;rounded=0;fontFamily=Verdana;" parent="1" vertex="1">
          <mxGeometry x="540" y="190" width="177.5" height="30" as="geometry" />
        </mxCell>
        <mxCell id="fopCFPs4-4a-7bakUN7a-8" value="" style="endArrow=classic;html=1;rounded=0;exitX=1;exitY=0.5;exitDx=0;exitDy=0;entryX=0.022;entryY=0.508;entryDx=0;entryDy=0;entryPerimeter=0;" parent="1" source="fopCFPs4-4a-7bakUN7a-1" target="fopCFPs4-4a-7bakUN7a-4" edge="1">
          <mxGeometry width="50" height="50" relative="1" as="geometry">
            <mxPoint x="560" y="460" as="sourcePoint" />
            <mxPoint x="610" y="410" as="targetPoint" />
          </mxGeometry>
        </mxCell>
        <mxCell id="fopCFPs4-4a-7bakUN7a-10" value="" style="verticalLabelPosition=bottom;html=1;verticalAlign=top;align=center;strokeColor=none;fillColor=#00BEF2;shape=mxgraph.azure.script_file;pointerEvents=1;" parent="1" vertex="1">
          <mxGeometry x="381.25" y="210" width="58.75" height="60" as="geometry" />
        </mxCell>
        <mxCell id="fopCFPs4-4a-7bakUN7a-11" value="&lt;font face=&quot;Courier New&quot; style=&quot;font-size: 14px;&quot;&gt;&lt;b&gt;Python Script&lt;/b&gt;&lt;/font&gt;" style="text;html=1;align=center;verticalAlign=middle;whiteSpace=wrap;rounded=0;" parent="1" vertex="1">
          <mxGeometry x="349.06" y="280" width="123.13" height="30" as="geometry" />
        </mxCell>
        <mxCell id="rWoBxPHzZcuazhV2PVWr-1" value="" style="shape=image;verticalLabelPosition=bottom;labelBackgroundColor=default;verticalAlign=top;aspect=fixed;imageAspect=0;image=data:image/png,iVBORw0KGgoAAAANSUhEUgAAAVwAAAFcBAMAAAB2OBsfAAAAGFBMVEXyyBAhISHu7+/////71BoMECJvXxr25qJrZr+4AAAJk0lEQVR42u2dzU/jPBDGU/C2VyptekalUq+IIPXqpdZyfXNIzyBBzhVF4t9/YztfbpvYqb8mXXullcIu9KeHJ+MZxxlHCR9PSz6AX0YBN+AG3IAbcANuwA24Adc3bvmFh/IrwC8DbsANuAE34AbcgAsWd/1DHI3XL23cHxw5HOhHC3fjFJYBH/px+xLN78jDeL00PfdCy3kvwPVEG0WzS3C90VJ9B+OuIo/jZSju2idtFR/UcfdecaPZMNznyPPYDsHdRN7HYQDu3j/uqzouAHG5vGq4ewi4M1VcEOIyeZVw72HgviriRkCG2grkCgrui1J6voeCO1PBXUdgxpcC7j0c3Bs57gOGg4vkuIC8UCYOvbgrSLhbKe4eEu5Miosh4SIZ7iaKAJq3E3cFC3crwd3Dwp1JcDEsXCTBjYCNftwNNNxD7wrkChruS296fg8N96YXdw8Nd3ZNuBgaLurFjcCNK8Jdw8P9uh7cFTzclx7c53Hh3o8LF6AZbnpwH4O6ZtUV8l2At9q2Jz0PuP8Y7m1QN6j7b6uLxqQu26aGx6IuwXkxEBmHumT6mRVj8UbICNQl0zidFyNOC2AMXV30l9My4Ny2hbXVJZ8VbcFbOMKuhbc9K5ArJXEb2mIUFkY2LXyjWauRz7k4stSmwLrVRClu1tLYZozQrNXQJGX3mACcpXlk6ZbTVJfElK/4/UfT96x1y6XFrIEBepdqmn0QjAl+j7OWI+ZWHKGpLrPugnEhUgjcCmpWHKHnXfSn4Is/cJU7TGPBEW/GZw09ddGEOrfOHjGJ8licNQzz6nkX0ai7aBEVITcWHLEwe8tpqlvgxnf4KJtsA7NpGQPxLpvTfos0iDoia0/LBmOEAXU/TosLIUawPAJD8e4pbiGwECPm8dxUrWFDXQ78LsaIyIgj9FYgO3GLf8KiI8xMy3rVRA9uITAt4o7yCLi4LKi9Z5k4axDAuMd5RKY9a9xaxaW3XC7EiJ2ewHrqEhkunzVEgXXyCMvq0v9TOEKYlrO3y6vPrXVcnkfMxdT90hhx6wKXWTjLDFSfTtTljng3UH26Ufe01qDAFwi8dYbLgnAsrEcMF9idujyz/GwH4eF5hPW4e5qoHU/LGKq6Va2RirUGvlhdU/mu+qwxrPq0Uk3IZw0hjxiwKGypmpDdclE7sxywKKy5inMZLq01xGlZNXX3ou7ZafmDAPVuU963Y8TuA9tWl2jgFjECC4vCqQKvJ+82xVwrRiwIWO+eW/BRkNefdxvgetZYYODqVovC3BEpgu3dVvXJ7rY7DF7dKo+gvDsM3buVhafMvwhu3D2zsh2jYepaz3e7f9QkVfhZW8fpeU+EoLi/R4PLniLJQgMg3F8KoeEWDG6kggtIXXqvjUjdiXV1yXWri+juQ3/qDsRFOMrpXyNRl7zTzYddvNDURdOMrYuRcaiLY15DdtQ4wNTlm7joIhMZg7p8E9e88zsuUNdmvovrnahnExkldR1WE83mzv/wpeq6q9Uq63ZBaatrthJmCWK5/hGNQN0G92xJBsC7qP2GggQXgLpkmudvxJG62t4lU/qGwh2Bom5/3EV/y929eBTeLTf9xzsyCu9W8wLPaaB7t54XYr5uC1xdVL+jkBIg3i0+Ius0Qyzi+Vc3+ptlOyLLwPgvwIa6Q9/5IXln6dXKwLhfTKir+UYVaubYSlPcgWtEXd0XwNBpkoCrSQKeusfewPkir9xhQ12j7wkjuqM025W8DW4GU13MNgZVsQK6upVbY5bTgPduPY3xDwXv3Woa4w9Lgavb/PY5HnR1ax6+7gE8MjQZGP9UkOo2q+FHuAhkzhDV20Thq0u3g83zkleCa0PdYfkunXRTunzvTF2tagJP2ps8unHNRQatagKXm6p4kuBbXVklXJe6Ga/MHUQGHXUbvv/wCLyL64cNO+woMuio25S6LKeB7t0WDxpBZPhzJB9s76J+XHCR4c8clLqPRs3gW10ETN17U+pmwbuDVyB9RAadasKDulq47iODBq6PyHDrQt3sX/XurY4ZQmSA4N0QGUJkCJEhRAagK5ChmgiV8HjXGdLr9C4MdZWX9GCs4uBxrUDWy9FzleVo795t+HajeDYxETc5AvdutYEhVnpQBeC5Gpc3e8OjeGpJ9wqlsfwhK5CnlvQRNm1JqfQIG8IeyPbW/RHsZ2jvKoS+Ann8eb/0IsOvuVvcSdqxdUhNXftvYXelPAxPGhmQ8FrrmdbDVtVtcoiz295O1SXTvNXLiX63tIOA0V16lRvObio8URdNM9YBsGUly/0Zjt2QtXZjSNVlv33WbZwZQ6n7hVF1Cet5VL5ZK427ZeBjLRYRmSj1Ftma325czslydeNWO3feaUbaucXsKUoIT/O3ck6W5gzNtJIt5op9cQyfooRbsUnFu3X7NMWuQ8bPqKo/ESlEBuHgknJLj0t1Owrlrrjb7gCo1DHL3glgChkZ7S3darF4J+9HpnsSjVKh3JkzEDytOwDGO4VzuXRP8+iTNxb2bZ3PyGiLRV5BqfSms3muZZOh8br+fEbG+r3xI64iPXUfIzP3Gn+PojPfLRyR528u+kDKCs+2F3ry3b4GKc68W8SGrFXXS6sJ3+ry1idVLxFkAtfqibe0L2XzQhh4dcW63ra695GBgYRKF7a6HXV9ikF6t+tRxg7DV7fJ0ORZuD/vnkl5NFqCOVS3rh7Sy49EdXgWNutApecFpyfe8vYSsYa4TnERfTE3K3t3wMct7PA+V8tr3ddqZ+2gnioCULcIZprnJIezsG2OoG5QN6gb1L02dW3muyaGw2rCxHBYTdhW9zGoG7w7UnWfx6XuGh7uV8D1hLuEh7u8IlwMjRb14u6h4c6WPSuQCTzcpCc9T8DlOLe9uOCmtW0v7gYa7qEXN4GGm/TjAotkSIK7hxgYunFXEO+0btw1xDutGxfWNIwSGe4eoHV7cFcArduDuwZo3R7cB0DmRQ9SXEhrDTenuGK+uwSVNhwaqvPp+RLSxDZLVHCf4cQFFVwwWVmihruH4gU1XCA320ERF4a8s0QVdwNEXEVcCPLOEnXcJ//z72EArv/Yu02G4D7tAVhhAO7a/302BNdvmv6SDMV9+PZH+7rsxD3Jd+tLb7yvAoYkPW8uv73RXoTrZ43kNbkUN9k4L9zQIbkcN1n+OAVGPx0YqrjL5fobY4IJoW9EoHKU14Yvf756MFRxlw8P9eXTkv2xcMmuliZwIV0G3IAbcAPu+HG7MkuYlwE34AbcgBtwA27ADbgB1ztuSM8DbnX5P5mEYaIIvdqTAAAAAElFTkSuQmCC;clipPath=inset(8.33% 8% 7.67% 8% round 12%);" vertex="1" parent="1">
          <mxGeometry x="900" y="222" width="118" height="118" as="geometry" />
        </mxCell>
        <mxCell id="rWoBxPHzZcuazhV2PVWr-2" value="&lt;font face=&quot;Helvetica&quot; style=&quot;font-size: 14px;&quot;&gt;&lt;b&gt;PowerBI&lt;/b&gt;&lt;/font&gt;" style="text;html=1;align=center;verticalAlign=middle;whiteSpace=wrap;rounded=0;fontFamily=Verdana;" vertex="1" parent="1">
          <mxGeometry x="915.13" y="190" width="87.75" height="30" as="geometry" />
        </mxCell>
        <mxCell id="rWoBxPHzZcuazhV2PVWr-3" value="" style="endArrow=classic;html=1;rounded=0;entryX=0;entryY=0.5;entryDx=0;entryDy=0;" edge="1" parent="1" source="fopCFPs4-4a-7bakUN7a-4" target="rWoBxPHzZcuazhV2PVWr-1">
          <mxGeometry width="50" height="50" relative="1" as="geometry">
            <mxPoint x="520" y="450" as="sourcePoint" />
            <mxPoint x="570" y="400" as="targetPoint" />
            <Array as="points" />
          </mxGeometry>
        </mxCell>
        <mxCell id="rWoBxPHzZcuazhV2PVWr-4" value="&lt;font style=&quot;font-size: 20px;&quot;&gt;Implmenting a Robust Data Pipeline: API to PostgresSQL with a Window Task Scheduler&lt;/font&gt;" style="text;strokeColor=#6c8ebf;fillColor=#dae8fc;html=1;fontSize=24;fontStyle=1;verticalAlign=middle;align=center;" vertex="1" parent="1">
          <mxGeometry x="42.5" y="100" width="1025" height="40" as="geometry" />
        </mxCell>
        <mxCell id="rWoBxPHzZcuazhV2PVWr-9" value="" style="shape=partialRectangle;whiteSpace=wrap;html=1;bottom=1;right=1;left=1;top=0;fillColor=none;routingCenterX=-0.5;strokeWidth=2;" vertex="1" parent="1">
          <mxGeometry x="160" y="390" width="240" height="30" as="geometry" />
        </mxCell>
        <mxCell id="rWoBxPHzZcuazhV2PVWr-10" value="" style="shape=partialRectangle;whiteSpace=wrap;html=1;bottom=1;right=1;left=1;top=0;fillColor=none;routingCenterX=-0.5;strokeWidth=2;" vertex="1" parent="1">
          <mxGeometry x="410" y="390" width="240" height="30" as="geometry" />
        </mxCell>
        <mxCell id="rWoBxPHzZcuazhV2PVWr-11" value="" style="shape=partialRectangle;whiteSpace=wrap;html=1;bottom=1;right=1;left=1;top=0;fillColor=none;routingCenterX=-0.5;strokeWidth=3;" vertex="1" parent="1">
          <mxGeometry x="80" y="490" width="630" height="30" as="geometry" />
        </mxCell>
        <mxCell id="rWoBxPHzZcuazhV2PVWr-13" value="&lt;font face=&quot;Helvetica&quot; style=&quot;font-size: 14px;&quot;&gt;&lt;b&gt;Task Scheduler&lt;/b&gt;&lt;/font&gt;" style="text;html=1;align=center;verticalAlign=middle;whiteSpace=wrap;rounded=0;fontFamily=Verdana;" vertex="1" parent="1">
          <mxGeometry x="390" y="620" width="120" height="30" as="geometry" />
        </mxCell>
        <mxCell id="rWoBxPHzZcuazhV2PVWr-15" value="&lt;font face=&quot;Helvetica&quot; style=&quot;font-size: 14px;&quot;&gt;&lt;b&gt;Extraction&lt;/b&gt;&lt;/font&gt;" style="text;html=1;align=center;verticalAlign=middle;whiteSpace=wrap;rounded=0;fontFamily=Verdana;" vertex="1" parent="1">
          <mxGeometry x="100" y="430" width="120" height="30" as="geometry" />
        </mxCell>
        <mxCell id="rWoBxPHzZcuazhV2PVWr-16" value="&lt;font face=&quot;Helvetica&quot; style=&quot;font-size: 14px;&quot;&gt;&lt;b&gt;Transformation&lt;/b&gt;&lt;/font&gt;" style="text;html=1;align=center;verticalAlign=middle;whiteSpace=wrap;rounded=0;fontFamily=Verdana;" vertex="1" parent="1">
          <mxGeometry x="349.06" y="430" width="120" height="30" as="geometry" />
        </mxCell>
        <mxCell id="rWoBxPHzZcuazhV2PVWr-17" value="&lt;font face=&quot;Helvetica&quot; style=&quot;font-size: 14px;&quot;&gt;&lt;b&gt;Loading&lt;/b&gt;&lt;/font&gt;" style="text;html=1;align=center;verticalAlign=middle;whiteSpace=wrap;rounded=0;fontFamily=Verdana;" vertex="1" parent="1">
          <mxGeometry x="615" y="430" width="67.5" height="30" as="geometry" />
        </mxCell>
        <mxCell id="rWoBxPHzZcuazhV2PVWr-18" value="" style="shape=partialRectangle;whiteSpace=wrap;html=1;bottom=1;right=1;left=1;top=0;fillColor=none;routingCenterX=-0.5;strokeWidth=2;" vertex="1" parent="1">
          <mxGeometry x="900" y="390" width="118" height="30" as="geometry" />
        </mxCell>
        <mxCell id="rWoBxPHzZcuazhV2PVWr-19" value="&lt;font style=&quot;font-size: 14px;&quot;&gt;&lt;b&gt;Visualization&lt;/b&gt;&lt;/font&gt;" style="text;html=1;align=center;verticalAlign=middle;whiteSpace=wrap;rounded=0;fontFamily=Comic Sans MS;" vertex="1" parent="1">
          <mxGeometry x="915.13" y="430" width="94.75" height="30" as="geometry" />
        </mxCell>
        <mxCell id="rWoBxPHzZcuazhV2PVWr-20" value="&lt;font style=&quot;font-size: 14px;&quot; face=&quot;Helvetica&quot;&gt;&lt;span style=&quot;font-weight: normal;&quot;&gt;Database connection&lt;/span&gt;&lt;/font&gt;" style="text;html=1;align=center;verticalAlign=middle;whiteSpace=wrap;rounded=0;fontFamily=Verdana;fontStyle=1" vertex="1" parent="1">
          <mxGeometry x="717.5" y="280" width="150" height="30" as="geometry" />
        </mxCell>
        <mxCell id="rWoBxPHzZcuazhV2PVWr-8" value="" style="shape=image;verticalLabelPosition=bottom;labelBackgroundColor=default;verticalAlign=top;aspect=fixed;imageAspect=0;image=data:image/jpeg,/9j/4AAQSkZJRgABAQACWAJYAAD/4QAC/9sAQwAIBgYHBgUIBwcHCQkICgwUDQwLCwwZEhMPFB0aHx4dGhwcICQuJyAiLCMcHCg3KSwwMTQ0NB8nOT04MjwuMzQy/8IACwgD1APUAQERAP/EABwAAQACAwEBAQAAAAAAAAAAAAAHCAEFBgQCA//aAAgBAQAAAACfwAAAAAAAAAAAAAAAAAAAAAAAAAAAAAAAAAAAAAAAAAAAAAAAAAAAAAAAAAAAAAAAAAAAAAAAAAAAAAAAAAAAAAAAAAAAAAAAAAAAAAAAAAAAAAAAAAAAAAAAAAAAAAAAAAAAAAAAAAAAAAAAAAAAAAAAAAAAAAAAAAAAAAAAAAAAAAAAAAAAAAAAAAAAAAAAAAAAAAAAAAAAAAAAAAAAAAAAAAAAAAAAAAAAAAAAAAAAAAAAAAAAAAAAAAAAAAAAAAAAAAAAAAAAAAAAAAAAAAAAAAAAAAAAAAAAAAAAAAAAAAAAAAAAAAAAAAAAAAAAAAAAAAAAAAAAAAAAAAAAAAAAAAAAAAAAAAAAAAAAAAAAAAAAAAAAAAAAAAAAAAAAAAAAAAAAAAAAAAAAAAAAAAAAAAAAAAAAAAAAAAAAAAAAAAAAAAAAAAAAAAAAAAAAAAAAAAAAAAAAAAAAAAAAAAAAAAAAAAAAAAAAAAAAAAAAAAAAAAAAAAAAAAAAAAAAAAAAAAAAAAAAAAAAAAAAAAAAAAAAAAAAAAAAAAAAAAAAADz8pzvhyAAAAAAAAAAB97jrN1kAAAAAAAxwELxv4AAAAAAAAAAAAfXVy3MmzAAAAAABzla44wAAAAAAAAAAAAGysHM/2AAAAAARlV3XgAAAAAAAAAAAAMyfaL2gAAAAARRV38QAAAAAAAAAAAAA7u2/tAAAAADiageUAAAAAAAAAAAAACVbUfQAAAAB56ZcqAAAAAAAAAAAAAAzaCXgAAAACEa3AAAAAAAAAAAAAADeXZ9QAAAAH50n5wAAAAAAAAAAAAAALPTCAAAABwVPsAAAAAAAAAAAAAABItucgAAAAgOvgAAAAAAAAAAAAAAPXez0AAAAAqxE4AAAAAAAAAAAAAAM3V6kAAAAMVBj8AAAAAAAAAAAAAAC38gAAAABim/EgAG8lPQRj8gAAAAAAAAAAAtpJYAAAAYptxQADaXS3OIbrT+YAAAAAAAAAAAW0ksAAAAMU24oABKtqcsRNWD8QAAAAAAAAAABbSSwAAAAxTbigAHWXO/UxGVV/MAAAAAAAAAAAW0ksAAAAMU24oABmYLNfoI6qj4wAAAAAAAAAAFtJLAAAADFNuKAAMypaP8Acxw1S9cAAAAAAAAAABbSSwAAAAxTbigAAku1XqHHVJ04AAAAAAAAAALaSWAAAAGKbcUAACQLX7ActUfQgAAAAAAAAABbSSwAAAAxTbigAAO3trsxztSOZAAAAAAAAAAFtJLAAAADFNuKAAAddbjcjR1I5MAAAAAAAAAAtpJYAAAAYptxQAAB01ut+NRUzigAAAAAAAAAFtJLAAAADFNuKAAAG/tz0411T+BAAAAAAAAAAtpJYAAAAYptxQAAAbq2/XDw1VjgAAAAAAAAAFtJLAAAADFNuKAAABtbadsPLVuLgAAAAAAAAAtpJYAAAAYptxQAAAGxtf3489VYyAAAAAAAAAFtJLAAAADFNuKAAAAeu2MhjgafAAAAAAAAAC2klgAAABim3FAAAAOstxuxF9UAAAAAAAAABbSSwAAAAxTbigAAAO1tntxoag84AAAAAAAAALaSWAAAAGKbcUAAADvbYbIaGofNAAAAAAAAABbSSwAAAAxTbigAAAke1XuHNVJ5sAAAAAAAAAFtJLAAAADFNuKAAAMyhaT1Dl6j6AAAAAAAAAAC2klgAAABim3FAAAMy1Z39xyFSdKAAAAAAAAAAtpJYAAAAYptxQAAGZmsn+o4epmrAAAAAAAAAALaSWAAAAGKbcUAADM52I+xHlU9eAAAAAAAAAALaSWAAAAGKbcUAAH1P0/ZEY1Z8gAAAAAAAAAAW0ksAAAAMU24oAAfdi5wyYiOsf4gAAAAAAAAAAtpJYAAAAYptxQAB+tlJlyYhSt/wAAAAAAAAAABbSSwAAAAxTbigAH3aGWsnzAcAfIAAAAAAAAAAC2klgAAABim3FAAJDt3k+a6QdgAAAAAAAAAAAtpJYAAAAYptxQACS7Z5fnWaHsADMtSNkAPwh/hAAAAAAAFtJLAAAADFNuKAAftbCSPJWKKsABLNpcgAeSl3OAAAAAAAW0ksAAAAMU24oAA+um1GuAAs3MgABV6IQAAAAAALaSWAAAAGKbcUAAAABKVrMgAeOlegAAAAAAAtpJYAAAAYptxQAAAACUpG+gA88QcYAAAAAAAtpJYAAAAYptxQAAAAAAAAAAAAAAFtJLAAAADFNuKAAAAAAAAAAAAAAAtpJYAAAAYptxQAAAAAAAAAAAAAAFtJLAAAADFNuKAAAAAAAAAAAAAAAtpJYAAAAYptxQAAAAAAAAAAAAAAFtJLAAAADFNuKAAAAAAAAAAAAAAAtpJYAAAAYptxQAAAAAAAAAAAAAAFtJLAAAADFNuKAAAAAAAAAAAAAAAtpJYAAAAYp3woAAAAAAAAAAAAAAFuZGAAAADFSo2AAAAAAAAAAAAAABm43cAAAAArXCgAAAAAAAAAAAAAAPq823AAAABD9YAAAAAAAAAAAAAAAdDd3IAAAANRR78AAAAAAAAAAAAAAAm+yAAAAAGKrxSAAAAAAAAAAAAAAPu5/WgAAAAOQpp+QAAAAAAAAAAAAABK1qMgAAAAFd4JwAAAAAAAAAAAAABtLn7wAAAAAeepceAAAAAAAAAAAAAA/e10lAAAAAA11Uo+AAAAAAAAAAAAAHps9K+QAAAAAPNXWFvgAAAAAAAAAAAADorQ94AAAAAAHB1+j7AAAAAAAAAAAABtJqnX2AAAAAAAfPLxhw3O+EAAAAAAAAAAB+m462RZJ9YAAAAAAAAAAAAAAAAAAAAAAAAAAAAAAAAAAAAAAAAAAAAAAAAAAAAAAAAAAAAAAAAAAAAAAAAAAAAAAAAAAAAAAAAAAAAAAAAAAAAAAAAAAAAAAAAAAAAAAAAAAAAAAAAAAAAAAAAAAAAAAAAAAAAAAAAAAAAAAAAAAAAAAAAAAAAAAAAAAAAAAAAAAAAAAAAAAAAAAAAAAAAAAAAAAAAAAAAAAAAAAAAAAAAAAAAAAAAAAAAAAAAAAAAAAAAAAAAAAAAAAAAAAAAAAAAAAAAAAAAAAAAAAAAAAAAAAAAAAAAAAAAAAAAAAAAAAAAAAAAAAAAAAAAAAAAAAAAAAAAAAAAAAAAAAAAAAAAAAAAAAAAAAAAAAAAAAAAAAAAAAAAAAAAAAAAAAAAAAAAAAAAAAAAAAAAAAAAAAAAAAAAAAAAAAAAAAAAAAAAAAAAAAAAAAAAAAAAAAAAAAAAAAAAAAAAAAAAAAAAAAAAAAAAAAAAAAAAAAAAAAAAAAAAAAAAAAAAAAAAAAAAAAAAAAAAAAAAAAAAAAAAAAAAAAAAAAAAAAAAAAAAAAAAAAAAAAAAAf/EAFAQAAECAwMCEQcKBAYCAwEAAAECAwQFBgAHETFREhYYITdAQVVWYGFzkpSy0dITICJQgZGxCBQwMkJSYnGhwSNUcpMQFSQzovBTsENEguH/2gAIAQEAAT8A/wDaIxMdDQTRdin2mGxlU6sJHvNpjetRUsB8tPYZxQ+xD4un/jaK+UBRrAX5FMwiCMmgYwB95FtUZS+9k06CPFbVGUvvZNOgjxW1RlL72TToI8VtUZS+9k06CPFbVGUvvZNOgjxW1RlL72TToI8VtUZS+9k06CPFbVGUvvZNOgjxW1RlL72TToI8VtUZS+9k06CPFbVGUvvZNOgjxW1RlL72TToI8VtUZS+9k06CPFbVGUvvZNOgjxW1RlL72TToI8VtUZS+9k06CPFbVGUvvZNOgjxW1RlL72TToI8VtUZS+9k06CPFbVGUvvZNOgjxW1RlL72TToI8VtUZS+9k06CPFbVGUvvZNOgjxW1RlL72TToI8VtUZS+9k06CPFbVGUvvZNOgjxW1RlL72TToI8VtUZS+9k06CPFbVGUvvZNOgjxW1RlL72TToI8VtUZS+9k06CPFbVGUvvZNOgjxW1RlL72TToI8VtUZS+9k06CPFbVGUvvZNOgjxW1RlL72TToI8VtUZS+9k06CPFbVGUvvZNOgjxW1RlL72TToI8VtUZS+9k06CPFbVGUvvZNOgjxW1RlL72TToI8VtUZS+9k06CPFbVGUvvZNOgjxW1RlL72TToI8VtUZS+9k06CPFbVGUvvZNOgjxW1RlL72TToI8VtUZS+9k06CPFbVGUvvZNOgjxW1RlL72TToI8VtUZS+9k06CPFbVGUvvZNOgjxW1RlL72TToI8VtUZS+9k06CPFbVGUvvZNOgjxW1RlL72TToI8VtUZS+9k06CPFbVGUvvZNOgjxW1RlL72TToI8VtUZS+9k06CPFbVGUvvZNOgjxW1RlL72TToI8VtUZS+9k06CPFbVGUvvZNOgjxW1RlL72TToI8VtUZS+9k06CPFbVGUvvZNOgjxWZ+UTSjjoSuAmjad1RbQcPYFWgb8KHjCkKj34Yq/87CgB+ZGNpZV9PTkgS6cwUSo5EoeTovdlslWi9XKUE5bVZe7S9MFxj50Y6NR/wDXhTosDmUrILVFf1U82KmpYluVQ5xALXpuEf1HJ7ALTKczKbvF6YR8TFOH7TzpV8bYnPbE5+I2Jz2StSFBSVEEZCDhaR3lVZTxSIGcxJaTkZfV5RGGbBWT2Wpj5Q0NErQxUcuMMchiYUlSfak649hNpNUEqqCCTFyqNZi2T9ptWJHIRlB/P1VuWqut5LR0uMVNIjQrUD5JhGu44eQfuda1b3xT2rdHCw6lS6WnW8gyr0lj8asp/IYC2iOc8TcSMlpLPpnT8wRHSuNehYhP2m1ZeQjIRyG1BX7wc2cbl9SoRBRRwSmLT/tLP4h9k/p+Vm3UPIC21BSVDEEHEEepzrC15d68FRrSoCB0MTOVoxDeOKGRnXy5hacTqPn0xcj5jFOxES59Zaz+gzDk4ogkZDa7e9yPpF5uAmKnYuTHWKMcVs8qDm5LSqawU6lzEfL30vwzyApDiTrEd/J6lJwGNr2r0G6VglymUvhU6eRrka/zdJ+0fxHcHttExL0VELffdW664dEta1ElRzk8U8cMlrt7xY6iJwgKccdlLygImHxxwH3kjcUP1tKppBzmWsR8vfTEQzyApDichHf6kvKrpih6dXEgpXMHwW4Rk7qt1R5B3WmEwiZnHPRsW+4/EPKK3HFnEqJ4qg4ZLXO3jqpabJlExfV/lEWoDFR1odZ+0MwO777IUFIBBxBGOOf1FGxsPAQb8VEuBtllsuOLORKQMSbV/WMTWlUxEycUpMMP4cM0TrIbBOHtOU/nxXBIyHC1x1dmfSIyKPdKo+XoHk1KyuM5B7U5PywsDiMfUPygavMDK2KahHSHoweVidCdcNg6yfafhYknLxYpKoomlqmgpvDKVjDuArQD9dB1lJP5i0tjoeZy2GjoVYWxENpcbUN0EYj1A+4lmHcdWoJQhJUoncAy2rmonaorGYzVSyW3XClkH7LY1kj3fHiyCRkt8n+plTSlXpK+5on5crFGOXyStce44j3eoL35+qQXczNba9C9EpEK3nxXrHD/APONicTxauWn6pJePBNqc0LEcDCuA5MTrp/5Ae+yTikHb/ykJoQ3JpSk5SuJWMc3oj9+Lcsi1y+aQsY2cFw7qXU/mkg/taBiUxsBDxSCCh5tLgwzEY7eOsLfKAjTEXiiHx9GHg20gY465JUfyy8W05bXcRpj7upA+o4qMGhJOOOun0f228chtfU4hy9ab+TUFBPkknkIbTiOLlyzjbl1Un0CgSnyiVch8orW28clr3NlSf8APjsDaFNUlOqtjzCSiBW+sDFa/qoQM6lHWFoL5OE2dYCo2dwjDh+w20pzD261qluNqiQQqoqGS3NGEYlRhsdGkZ9Cdc+zGy0KQtSVJKSk4EEYEcSbidiyB597tbeOS17eypP+fHYH09OSSIqOoIOUQg/jRLgQDuJG6T+QxNqZpqXUrI4eWS1oIaaQApWHpOK3VKzk/wCBAUMDa9S59ietxM8kDXk5p9d2HTrJiM5GZXxs+w7DvLadbW2tCtCpKhgUnMeJFxOxZA8+92tvHJa9vZUn/PjsD6f5P7DLt4y3HFALagnFNg7pJSD+hNk/VH+JGIteldLD1Qw/NpM2lmcp9JaRrJiQNw7gVy7u7aKhXoSJdh32ltOtKKVoWMCkjKCOI9xOxZA8+92tvHJa9vZUn/PjsD6e7epUUpXEBM3iRDAlp/D/AMatYn2ax9lod9qIh23mXEuNuJCkKScQoHIR5hGIwtefdVCVhBux8ubRDztAxCxrJiAPsr5cxtHQMTLY56Di2FsxDKihxtYwKSM/Ea4nYsgefe7W3jkte3sqT/nx2B9ODha6m912m/IySeKU9KiQlp4nFUNjucqeTcsw+1EsNvsuIcbcSFIWg4hQOQg+YRiMLXl3ZQNay9x+HQ3DzhpOLUQE4eU/CvOOXctNJZGSeZPwEfDrYiWFaFbaxrg93LxFuJ2LIHn3u1t45LXt7Kk/58dgbQB0Jxtdde3E0k83KpqVPyZasAoklUNjupzpzj3Wg4yHj4NqLhXkPMPJC23EHEKB3R5hGIwteLdvL65lKh6LE0ZT/p4kD/irOk/padSSYU/NHpdMoZbES0cFJUMvKDujl4iXE7FkDz73a28clr29lSf8+OwNo5LXY3qRtGRLcBG6KIkq1em2ddTOOVSP3FpdMYSawDEdAvofhnkhbbiDiFDzbwLv5dXUnUzEYMxzQJhooJ10HMc6TmtUVNTOl5q7LprDLZfRkJHorH3kndHEO4nYsgefe7W3jkte3sqT/nx2BtO7i86Y0THIh3CqIk7i8XocnEoxyqRmPJu2k83gp5LGJhL30PwrydEhaT+hzHk82uKIltbyVcJGDQRCATDxCR6TSv3B3RaqqTmtIzdcBNYctr1y24NdDqcfrJPEK4nYsgefe7W3jkte3sqT/nx2BtS728aZ0NMUhClvyxxWMRCFWsfxJzKtIZ7L6ilDEylj6X4Z4YhQypO6CNwjN5tY0dK6zkrkBMka4GLLyR6bKs4PxG7asaKm1FzYwcyb9BQJYfR9R1OcHPnG5xBuJ2LIHn3u1t45LXt7Kk/58dgbVoSvZpRE2Q/CKU7BrP8AqIVSvRcGfkVmNqaqWW1TJmZlK3g4w5lH2m1bqVDcI82qqWltXSV6WzNoKbUMULA9JpW4pJ3DauaDmlETX5tGgOQzmJYiUD0XB+xzjiBcTsWQPPvdrbxyWvb2VJ/z47A2tRVazKip03HQKyponB+HKvQdTmPLmNqTq2V1fJ2phLHgoKGDjSj6bSvuqH/cfNqOnJdVEnflkzYS6w4nWO6hW4pJ3CLXgXdTKhZklDyvnEA7iWIpKcAr8KsyvX9xOxZA8+92tvHJa9vZUn/PjsDa9JVZMqPnbUylrhCgcHGlH0HU7qVD/uFqLreVVpKERkA4A8AA/DKV6bKsxGbMfNnckgKglT8umTCXoZ5OCkka4zEHcIz2vHu1jqGj0rSpURKnT/BidDkP3V4ZD8fX1xOxZA8+92tvHJa9vZUn/PjsDbFMVNMqUnTMzljxbebOCkn6rid1Khug2oWvpVW8sDsGvycYhI+cQqj6TZ/ccvmzaUwU7lz8vmEOh+FeRoVtrGXuPLa8266MomLEXCFcTJnTgh4j0mj91eH6Hd9e3E7FkDz73a28clr29lSf8+OwNsyCfzGm5uxMpZEKZiWjrEZFDdSRug5rXfXjSyuJanyagxM20gxEITrp5U50/Dd82YS+FmkC9BRjCH4Z5BQ42sYhQNr0rqn6Pf8A8xlYW9JXDlOuqHOZXJmPry4nYsgefe7W3jkte3sqT/nx2BtqSzmOkU0YmEviFsRTKtEhaT+hzjktdzedLq3gkw6yIebtoBehydZWdSM45NzzYyDYjoVyGiWkOsOpKFtrGIUDuG17t3CaMmrUZLkkSiLJDYJx8kvdQTm3R67uJ2LIHn3u1t45LXt7Kk/58dgbblsyjJTMWI6BiHGIllYU24g4EG1195CK6lzjURDrZmUKlPl8E/w1462iSdz8vNvkgGY26+bqdSMYdKXkHDIoKHefXdxOxZA8+92tvHJa9vZUn/PjsDbWW1D0HNa3mnzeBb0EO2oeXilj0GwfieS1LUtLKRkrUslrIShOutw/WdVuqUc/m351AzLLv3oALT84mKwylBy6AHFRw9gHt9d3E7FkDz73a28clr29lSf8+OwNsgYnC1AXdTOupgUMDyEA0oeXilDWTyJzq5LU7TktpeTMyuWw6WmGvapZ3VKO6T5tV1ZLKQkrkymT2hQBg20Pruq3EpH/AHC1Z1lMa1nq5lHK0KQNAyyn6rSNwD9zu+u7idiyB597tbeOS17eypP+fHYG2AMTa7m7SYV1HeUOMNK2VDy0SR9b8KM5+FpHI4Cn5SxLZdDpYhmRglKd3lJ3Sc/m1XVkspCSuTOZPaFAGDbY+s6vcSkWrStZnWs6VMI5wpbGKWIdJ9BpOYcuc7vry4nYsgefe7W3jkte3sqT/nx2BtcDE2uzutjK3iRGRRXDSdpWC3sPSdP3Ufudy0plMDJJazL5fDIh4ZlOhQhG5/8A3zazrSWUXJVzCPcxWQQwwk+m8rMOTOdy1Y1pNa0m/wA/mLoASNC0wjWQ0nMB8Tu+vbidiyB597tbeOS17eypP+fHYG1gMTgLXW3Uv1i+mZTNLkPJm1YaIayog5k8mc2l8vhZZAswUGwhiHZSENtoGASB5taVvKaKlSouPeCnlJPkIZJ9N1WYZhnNqsq2Z1hOnJlMXtEo6zbSfqNJ+6kf9x9fXE7FkDz73a28clr29lSf8+OwNqgEnAWupukcqlSJxO21tShJ/ht4lKok8mZPLu2g4RiBhGoaGZQyy0kJbbQMAkDIAPMyDG1dXgSqh5Yp2KdS5GuIJh4RP1nDnOYctqmqaZVVOXZnM3y48vWCR9VtO4lI3APX9xOxZA8+92tvHJa9vZUn/PjsDagGJtdNdEZ6Wp7UDCky0a7EMrWMR+I/h+NmGGodhDLTaW220hKUJGASBkAHmE4DG14V5EtoWXkLIiJi8gmHhUnX/qVmT8bT6fzGo5u/M5lEKeiHjrk5EjcSBuAcQLidiyB597tbeOS17eypP+fHYG0wCclro7oPn4ZqGpIY/NfrQ0G4P93MtY+7mG7ZpltlCUNpCUpGCQMgHm3lXoQVDQfzdjQRU2eTi0xjrIH3l8mYbtpxOY6ezR+YzCIU/EvnRLWr4DMOTiDcTsWQPPvdrbxyWvb2VJ/z47A2klClkBKSScgFroboMPIVHUsNmXCQbg9y1j4CyUhKQEjADIPMOsLXo3pwtIQbkulrjb85dTgEjXTDj7yuXMLTGYxc0j3o2NiFxES8rROOLOJJ4hXE7FkDz73a28clr29lSf8APjsDaLTS3XEoQlSlKOCQkYknNa6O6IS4MVBUUPjF4BcLCOD/AGsylD72YblgMBgPMJwFr073oemm4iSyRxL04KdCt0a6YbH4q5Ny0REvRT7j77qnHXFFS1qOJUTlJPEO4nYsgefe7W3jkte3sqT/AJ8dgbQh4d2KfQyy2tx1whKEIGJUTkAFrpbo0yFLU9qBgKmZGLEOoYiHGc51/CwGAw8xRwBtetfF/kxekNOvIXH4FMRFDXDP4U51cu5Z11x51TrqitazipSjiSc54iXE7FkDz73a28clr29lSf8APjsD6dpsuuJQlJUpRwCUjXJzWumuoZplhqczlsOTd1GLaCMRDA7n9Wc7lgMBh5ilBKSSQMM9r2L40Fp+QUxE4qOKIqNQcm4UIPxV7rKUVqKjrk5TxFuJ2LIHn3u1t45LXt7Kk/58dgfT3LSNud3kQfl0BbMGhUUoEYglOGh/UiwyDzFuJbQpalJSlIxJJwAFr174VTARUgpx3QwuOgiIxCtd0bqUZk8u7YnE48RridiyB597tbeOS17eypP+fHYH09xk3bld5LDTqglEayuHBP3jgU/qmyTikf4vPNw7K3XVpQ2gYqUo4AAZSbXq3uvz6IiJLIX1NSpJ0DrydZURn/JPxsTicfowCTrDG1F3FTaoIduPnD6pZBrGiQjQaJ5Yz4ZEj8/dZPyd6T0CQqNmilAa58qgY/8AG2p3pH+cmv8AdR4banekf5ya/wB1Hhtqd6R/nJr/AHUeG2p3pH+cmv8AdR4banekf5ya/wB1Hhtqd6R/nJr/AHUeG2p3pH+cmv8AdR4banekf5ya/wB1Hhtqd6R/nJr/AHUeG2p3pH+cmv8AdR4banekf5ya/wB1HhtF/J1plcKpMLMpky7uLUpKx7sBaubrJ3RGMQ8BFy4nBMUyk4JzBY+yf0thh6suJ2LIHn3u1t45LXt7Kk/58dgfTwsS9BxLcTDrLbzSgtC0nXSoHEEWu2vVl1Xy9mEjnmYWcoSEraUrAPfiRj8MtgcRaZzSBk8C5GzCKZhodsYqcdWEgWvTvYeq15cslC3GJMhWufqqiDnVmTmHvsTiSfpLi6NZqCon5tHN6OEluhUhBGIW6fq48gwx91kpCRrfTTCXw0zgX4OMaS7DvoKHG1DWUk2rmm3KUrCYSlRJbaXomVH7TZ10n3erLidiyB597tbeOS17eypP+fHYG0G1ltYWkkKGuCDgRaDvEq6XshmFn8ehsJ0ISXioAcmOOFppPZpOnPKTOPiYted50qw9/wBKLfJ0LGk2ZBH+98+/ifloBh++0PlDKYNfsJbH8UQKPKnP6SsP09WXE7FkDz73a28clr29lSf8+OwPUFyNZtUzU7kBHOhuAmQSgrVkQ6PqE8hxI9tgcRj9NNJlCSiWREfHPJZhodBW44rcAtWdROVVVswm6wQl9z+Gk/ZQNZI9w9WXE7FkDz73a28clr29lSf8+OwPUNGX2T2moduBjWhM4FvAJDqyHEDMFbo5DZHyjaeLaS5J5kleGuAUED2421RtN70zP3I8VtUbTe9Mz9yPFbVG03vTM/cjxW1RtN70zP3I8VtUbTe9Mz9yPFbVG03vTM/cjxW1RtN70zP3I8VtUbTe9Mz9yPFbVG03vTM/cjxW1RtN70zP3I8VtUbTe9Mz9yPFaN+UbJhDK+ZySOceOQOrShPtIJtW15M8rd0IjlJYg0HFuFZJCAc5+8fz9W3E7FkDz73a28clr29lSf8APjsDi5cTsWQPPvdrbxyWvb2VJ/z47A4uXE7FkDz73a28clr29lSf8+OwOLlxOxZA8+92tvHJa9vZUn/PjsDi5cTsWQPPvdrbxyWvb2VJ/wA+OwOLlxOxZA8+92tvHJa9vZUn/PjsDi5cTsWQPPvdrbxyWvb2VJ/z47A4uXE7FkDz73a28clr29lSf8+OwOLlxOxZA8+92tvHJa+FlbF6s8CwPTcQsYZigYcXLjmFs3Vy0rA/iOOrTr7mjPdt45Dha/OGUzelHrUoHyrLLg5PQA/bi2BibXRQ6oa62RJUrHRMqX0lqP77f+UZAFqqZZHAHQvwhbJ5UqP7K4ttgqWAMp1haloH/LaTlMFgQWIRpBxzhIx2/wDKElCo2ioeYoTiqBiQVH8CxoT+uHFuhZQqeVxJ5eE4pdiUFf8ASk6JX6A2RhoRgMBt+qJM1UFLzKVOpBETDqQORWHon34WjIZyDi3YZ5BQ60ooWk7hBwPFr5O1O/OZ5HT55vFuFa8i0o/fVl9yfjbJt8jEEWv1pT/JKzM0ZaKYSZp8riMgdGsofA+3iy0hTriUJSVKUcABlJtdvS4pKiYCXqRoYko8tEc4rXI9msPZ6hvHpBFZ0lFS8J/1SB5aFXmcAOA/I5PbaJYchYhxh5tTbrailaFZUkHAjixchRJqGpxOIpomAlpC9cazjv2U+zL7rJ1kjH1CdcWv2u9MPEqqyWMEsuYCNQgfVVuOfkd3l/OxBGXitT8hjajncNKoBkuREQrQpzJG6o5gBr2pGmYOkqbhJRBD0Wk+m5hruLP1lH8z6jjINiOhXoaJaS6y6goW2oYhQOUWvPu3iaKmyoiHQtyTRCv9O6dcoP3FcubPbDDipCQj8bFNQ0O0t151QQ22gYlROQC11F2zdFyoxcegKnMUgeVVlDSdxCT8bAYDD1JO5JAVBKoiXTJgPwzydCpB3MxGYjPa8a7CYURGl5oOxUoc/wBqJ0Ouj8K8Mh5d2xBGXilAwMTMYtuEhIdx+IdOhbbbTipR5Ba626SHpRDU3m4D85UjFKcqYbHcGdWc+6wGAAzepo6BhpjCOwsYyh+HdToVtuJxSocoteHcdFy4uzOmUuRUGMVLg8rjQ/D94cmX87LbW2soWhSVJOBBGBHE/DHJak6KnVYzAQkrhFrSCPKPqGDbYzqP7ZbUBdjKaJhw6kfOpmpODkWtOuORA+yPjYaw9Ublq2urp+skKeca+ZzHDWi2EgE/1DIr42qq56p6XLjwhjMIJGv84hRosB+JOUWKVJUUqSQRrEEZOJeBzWktPTaoYsQsqgH4p07jaNYfmcg9tqO+T6UrbjKpidbL8xhzl5FL/Ye+0tlcDJ4JuDl0K1DQ6BgltpISB6sUkKtUN3VLVOCqYypryx/+dkeTc94y+3G06+TlDOFS5LO3GszUW3oh0k4fC0xuJrWBBUzDQ8akfy7wxPsVhaKu2rGD0ZepyY4JylDWjH6Y20l1RwemnVF91tJdUcHpp1RfdbSXVHB6adUX3W0l1RwemnVF91tJdUcHpp1RfdbSXVHB6adUX3W0l1RwemnVF91tJdUcHpp1RfdbSXVHB6adUX3W0l1RwemnVF91tJdUcHpp1RfdbSXVHB6adUX3W0l1RwemnVF91tJdUcHpp1RfdbSXVHB6adUX3W0l1RwemnVF91tJdUcHpp1RfdbSXVHB6adUX3W0l1RwemnVF91tJdUcHpp1RfdbSXVHB6adUX3W0l1RwemnVF91tJdUcHpp1RfdbSXVHB6adUX3W0l1RwemnVF91tJdUcHpp1RfdbSXVHB6adUX3W0l1RwemnVF91tJdUcHpp1RfdbSXVHB6adUX3W0l1RwemnVF91tJdUcHpp1RfdbSXVHB6adUX3W0l1RwemnVF91tJdUcHpp1RfdbSXVHB6adUX3W0l1RwemnVF91tJdUcHpp1RfdbSXVHB6adUX3W0l1RwemnVF91tJdUcHpp1RfdbSXVHB6adUX3W0l1RwemnVF91tJdUcHpp1RfdbSXVHB6adUX3W0l1RwemnVF91tJdUcHpp1RfdbSXVHB6adUX3W0l1RwemnVF91tJdUcHpp1RfdbSXVHB6adUX3W0l1RwemnVF91tJdUcHpp1RfdbSXVHB6adUX3W0l1RwemnVF91tJdUcHpp1RfdbSXVHB6adUX3W0l1RwemnVF91tJdUcHpp1RfdbSXVHB6adUX3W0l1RwemnVF91tJdUcHpp1RfdbSXVHB6adUX3W0l1RwemnVF91tJdUcHpp1RfdbSXVHB6adUX3W0l1RwemnVF91tJdUcHpp1RfdZmhqqfdDaKdmhUcn+lWPiLQN0NcRxSEyJ9kK+0+pKAPzxNpV8nWfxCkmZzODg0bobxdV+w/W0huHpOWFDkd85mboy+XVoUY/0p/cm0FLIKWw6YeBhWYZlORDKAke4f+2M/9k=;clipPath=inset(22.33% 13.67% 22.67% 13% round 9%);" vertex="1" parent="1">
          <mxGeometry x="390" y="550" width="40" height="30" as="geometry" />
        </mxCell>
        <mxCell id="rWoBxPHzZcuazhV2PVWr-7" value="" style="shape=image;verticalLabelPosition=bottom;labelBackgroundColor=default;verticalAlign=top;aspect=fixed;imageAspect=0;image=data:image/png,iVBORw0KGgoAAAANSUhEUgAAAQAAAAEACAYAAABccqhmAAD9dElEQVR42uy9aZRk13EmFve93Csra9+X7q7e0TsaSxM7SAIgCXDfJFEUQEoajc6Y8njGPtYP+3g58nj9M3PG/uFz9MOWKFLULmtGM4eWtXAkjggSINCNXqu7urqra9/3qsx81zfi7u+9ajREgATAKpxEVdeS+TLzRsQXEV98AbD7sfux+7H7sfux+7H7sfux+7H7sfux+7H7sfux+7H7sfux+7H78b7+YLsvwXv74xe/+tWK+NQpbh3i1sY5bxOfW8StSd0axa3MGCuKz3jLi1tO3DLiFqi7icStJm7b4rYlbhvifjbE51VxWxFfL4u/XxRfL4jbfBRF8+LzdK1Wm/7tr399afdd2HUAux/vrJHj+7RH3AaFMQ6Iz/3i1ieMsqexsXGgs7OLd3R0hJWm5ny5XC6Uig3FTDbMZ8JsLgzDHDCW4REPATgTf8+iiD6LbwvL5/gIHIIgwE/iX+IXgkB8xesR57Uoqm/Xa/Xt7a2trY3Njc3VtbXNpcWF7dnZ2erc3GywsrJ8W9zBhLi/O+LzmPg8Vq/Xb73xxhs3X3n1VU53vvux6wB2P96SwQ+JTweEMR0QRr5PfL1/z569PYODe7KdnZ3lSqWpUigUyplMphAELBuGGcjlciD+DdlsSJ/xFgQhhGEgvg7JwPHGGH5m4rP/1ouoDugU6uJzVI9AGDHdajX8XIPt7SpUqzXx7ypsbW3TDX/GeVQVv7ch/MPq8srSyuzMzNqdO2PV27dvoVO4Ie76hvh8Xdz/8P/9W791XT3crlPYdQC7H47B3yc+HRGGgp8P7z9w8MD+fUPFrp6epnK5sTmfy5fzuWwml89BXtzQ2LPZLOTFZzTq7WpVGOg2VGvaUKtQw++hwYpbVRgtGit+XY/QoCMyeLxJR8DIKQi0QA4DP+P9S4cinIv4OpfL0vfwsfXX+LOtzS3YEo+9KT7jbWNjA9bXN8V918XDVddWlpcXpqanlkZGbqyP3b41Ih7siniel0T6cFmkD28oZ7DrEHYdwE+VwfeKTyeFIZwUn48fP37i0MFDhxo7O7raGhpKzYW8+K+QF8YubgVp7ALCC0NDI8Poi4a2CWvrG+LfmxSZ0Zj1B0by9K9t8HW/vtvP7J9z72t0PAVxfQ3lBigVi9DQUIRisQACmZCTEgYOG8IRrK6tw+rqKqysrKEj2trc3FiYmZmZGx0dWbk+fA0RwQVx7eeFA3v9G9/85p1dh7DrAN6vRn9EfDojbqf7+weePHniVKl/YKC9Uqm0CkPPl9B4isLgc3kyWjJyYdzrwshXV9dgbW2DIvxOxu0b6N2cwFsz+nv7mf/4ReG8mporUGksC8cgHERJOgd0WsvLq7C0tAyLi0voEDYFYpidmLgze3346sb09PTfiev7oXAerwp0cGnXGew6gPe60R8Wnx4Ut7MnTp565Ph9x5u7uru6hFFUhEEwNJScMniM5OvCQFZWVsngN4UD2Cn6/iiG/vY5hOR17fQzzDJKpQJUKk3Q3FSBxkoZysIxbGxuwOLCMiwsLMHyykpUq20vzs3NTQlnsHTjxvXvi2v7Qb1e/55wBpd3ncGuA3gvwftz4vbQ8WPHnzp95v62bvFRKpUaSmj0Ai5jno35sjZ4cfhFxK++JQj+djmEHzUV2Plnd782THFaW5uhSTiE5qYmQghz84swP7+ACIELBLQ8Pzc7cfXa5YWbIzf+TqQJ3xNO8j9+6/d+b2zXGew6gHej4T8iDvijAwODn3z4oYdbBgf39JUbyxWRH7OGckm80Ezk7OsCyq/DkoDBGxvrIk+O3oJxJ40JHQkV5bDqn83YIh5W+sNAVf5lxR+r/0yF40B1ALDrh9fFAvq/silmHgsfA29YX8DugO4MYM0BC39bm9uwKp4TFiDv5Zp3cgh4fS3NTdAiHEJraws0i/RhXjgDgQZgYV44g+3NhempiTtvvHFheWpq8s/ENfzdb/32b/+t4wh2ncGuA/iJGH2X+PQ43p548slHjx69r6e1pa1LwN2wsbGRjG91dV1F+VXK66VRvbUoGwYh5PJZyKKhhxlq68lbhgwSDYiMiUljonYftfyYc6fqPpkyPB6zGaYcheMkdNuQKd/A1O+E2DEQ16SNl7oP1ImQLULp5FaoSMl5dM+oQH80Npahva0V2ttbRdrQCLNzCzA7OwfLy8vV9bW16ZGR6xOvvPL97wnH9B/W19f/5vf/4A8mQZKZdh3BrgP48RT0xMF9SkT7z537wCM9gwODAw0NpcZKpUItMszn0QBWyOir2BK7B3gtvw4YRvUMVf6xvw/CgDC6o2kGIaOfs9AaYCR+Tm0/YYQ6QusWHxpfFHF6kyM0vIg7OJ/Zx087DE57UBq9dCqIMjTPIJeVLcEQOQfKYaCDkg6DQ61aJ6e3JnJ9LP7Ni1wfC4H3UrzUzgZrBu0dbeQM8DnPCEcwPT0j7ndzeXJycuzC+demJicn/lCgkL/+5u/+7sVdVLDrAN5Jwz8rDugHT5w4+ZmzDzzQKVL7/nJDOVeplMnQFqm6vUyHHg3xXnJxNDBpOAK+Y1QPJGknzDCC8egE8HfQoPF+0dC1sWvyDrbjmIL9Jg0IZFqADgM/o8GiAYWZQMJ9ZbBoJhGPDNTH+0YikOQO1JzHEymA+F6kfi8Sj4+FSrpWTDWQO4BOgXgKeWoNZjNZdS2hSTuws4EIYXFpRUT2eaqDxFFAGirAx+nsbBe3NuhobxfOZBGmp2bF/SxuLy8t37l48fz09evX/kQ4w7/8nW984/sOIth1BLsO4Ec2/IfFofzwuXMf+MSpU6d729s7ehsrjQFW8dEoFxaXqM9dc9p0d4v2mYzOz4XBq1w9FFE9g+QbYUgY+fB+t6vbxgDxjcoJQ0djRsMiIpD4N/XdC0XgwiC3FeGnKiJvTfx7i3L1Gn3eFt/frkawjShBOCv6HXG/Q/CX2NVXKYNAFeLGAozqeXFN4pbJiVsBwmyJbplcA4TiBmFR3HdE+b+IxlBFIhI6JXQMwsjxORBKyOXoOkulEhTFtRJrMROq9ASIJ4BF0OmZOXodo4inOgEXGWBrsae7Ezq72un7U5MzMDc/V19dXZ26evnSnfMXXv834rn9xdd/53f+464j2HUAP4rhPygO2LOPPfbEJ0+dPj3Q2tLaVWmqsJwwQoT3CGnvNdrrSEkRMZOhFz6bk8YsgjQZ0ra4r6pi66FhYzTFn2PnAHvpuVyBjHYTqbjCsNdEerG8tgHzy+sikm5JXr+I5ng1HCE0B5UOaPgvoT9G8RoSh8RF3Jf9Dn3WU0FYEBR/LOsJ6oAw/YU6Lvj/Og8hYkUolpogX2wRtybIFlogyDbCZo0JJ7Chnk9VIIcaoQXtEPC5NZbL9LxyyunhB3IesEA6Mzsrbgs7vq766CIy6u3pgm5xQ8QxNT0tUMEcX1tfmbp65crYD3/4g38jHv/b3/jmN/9+1xHsOoC3YvjHxYH76KOPPv65M2fODLS2tnU3tzQxhLFLArpipMKD/Wbsu0AV4tDw8fAzYZFo1Pi1ANKwKeAvGj4adZEiuWTSIbuukC/S/aOxr4vb8to2jM8uwsr6JkVpqszXhbNAg69pg2ZecU8as7gOzs2pJ9ivOgB4nfflvuMYdtI2fItRdQNVQwjRyQTaScicvSYcAw/KUCq3Q6HUDrlSK0Ti34g+ECmQU8CioficRWdAbMIyVMQNn38WaxviDpFSvLCwDBNTGN0XdkQF+nExPegRjgBbitMzszA5OcVXVtARXBp77bVX/0g46n/3u9/61uu7jmDXAdzN8HHa7mNn7j/70sMPn+vr7Ozsa25uIjtaELk9Gn+1eveWl6zCy0OJ0Rt/nM/LSB9xCY/R6DHmFQSUxShYpmhYoqLd+uYWrIloPjG3CrNL61Rdx4gtC30RnV4K5sr54GNRZT/ihtePv0AtviDwanrc/E0Augl4NPvXEJsLsgQecgm2RKjv3hQTE8Zofy9QrwM+ThUwbWiBxkqXcAgdUM9UhAOoEnqiVEe8JoFwitoZNFcq5BAziI7EXSBzEOsFEyLnR+TlX6fjnoQ3wmIhOoK21maYFM5jemqGLy0vTVw4/9rY5csXv76+vv5v/+AP//DmriPYdQCu4ZfEAX7h4MFDv/L440/s7evv39PU1BRifo6FvbsZvon2TBbWQhX1s7mQOPFobOuqV45QF3NhPORo9NlsTnx/S0T1LZhZXIPxuSXhIGS+Xouw8GahOx5udBBAhiYQAEhorx9TGpvbTQDVHlQQHmy05Krrj987FPyVY0DMj7QM7G96pXo1OQyWT0DmhF8ZOkEMjVBrUV7XNjRCvqEDyk19EOTboFoPiRWIvIKqQAniyZBjxFZqS3Mz5IQjAC6dGpKFxiemqGaQ5gR0YbW9vQX6enuhqalRoIFpdAa1xcW5sVdf+cHN0dGbv3nr1q0/+5vvfGf1p90RsF3j/+rjLS0tX/rQh595VDiAAyLiFzAvXVldExB0kXrbd4f5kkSjW3XYwsOePTL9tsShxt/CfLcsDjO2CbHwh5XwZWH0tybnYXZxVRgAJ4OviryegzUcYTI2sjKuDF62AVUtnwyK/oTJeB0QLJeRP1RnGv8dUJbPgKBHRDZGv7sv+gtlrxreO0jf2LF0RAiF6NKsV1Gvg3WIkSIPaW4Cj4yLsN7D8AxEyhDlgeVaodI8ABmRMmyLf2+J12dT3bBmgE6zrbUVGgViwn/jB9KHJ6amYUIYN3IPkgiGq85BG/T399F8woRwHDOzc5sT43dGvve97/7tzMzMt0Ra8NdY0lAOINp1AD89hr9HHNBPffBDH/7S2bMPCMNvbmloKFGfek7ATTT8+OE2MJ+MisxfVu9FZMepPTzUayrao9E3Nlag0lQhKLspItvS2iaMjs/D3PI6Vearur0moDkaNDcsPW6DObORHXkAsmAnnQ4V7bG+gH9H1yTzZ+IIMKrtU2tQRn4dhWURkJyHuL/+zX9vWYL6+ero7TgFro3dfS105QBbg9xeM6IAjuhF2ZMmP3Hu/k1kchN8FKwnVHkOomybcAb9kCl2CSTEYHNjg1iHVCcRqEAgM2htaaFRaPy7jfUNmJyehbHxSSoipqECdLo9PZ2wZ7CfuiNjY+MC1S0tXLt6eeTll//+m6urq3/yR3/8xyOOI+C7DuB9/PHVr3zl44ePHPna009/6EBfX99eARMZRt/ZuTmaZb+r4av/MUXYQZiPxTik9qJXwCJUE3Hbi9SSWxGH8vbkAkzMr4rIv02/W4u4ZwyqGS8jrKbnUv9cGgqad6jwcyh+FVtpyBMgo8ZWYqC/DqQD0R0HkJEeHyc0zEBQOTonNmH7yr+lx9TKQAxs9AcVyeN5P+fcsxBNGdbOgKvnF6lnF5HxR+YxsBbB9ffBMhMtCxH1yRogKHRCQ9MgRGEz1UAQEWBxEAupTZUmaG9roxYj3kldOFREBOgIkGcQdwJ4Jfh8Bwf6YO/eQWIWjt2Z4AsLc7dfffUH129cH/4/fucb3/h/lBP4qUkLfqocgIj6qLLz2c989nNfPHny5BEByYsIE5eXV2B1ZZUisiTX2MNjv2YKXjMSwkDDR7LMljiQeAibRVRCiI/Rfl18b1bk9CPjc7C0KiKY6s+bOruKrkxFS214AfbHNfhXERuDPhJssH2IP0S0gaQbNHqM7viRCQNTB6C/CyUqkF0AThEQYzw2CPH+ceT4ysgt+D9/51tw/uo1+Kcvfgl+7v4lKjiyeARVlT8dsZnuIMQwt6U4g6lN4G9SC5KDZ/SawCRrmZFysBZJ6PpCoGorm6wNGip9kGvog+16QE6gKpyBeFGoloLEoAYqonKoi9d5YmoKbt+ZpBHqeH0ALwuJW4ODAzR/cEc4DJEKbIyO3hz+zt/85e8vLy//0Z/86Z9eiTmC9+1H+FMU9Z8/fuLE//TzX37xI0ePHDksjDWLMH9+boHy9SgxLcds8Ur173P5DEV2zusCeq4RDO3oREJKFxTyBVgT93PjzgycH5mEW1PC+BXUBwXZdXqtgqpi7gWKCSjuX9yywuKRKIMU22JBKgDlsa4gnE6pgMQf/HcoHi8HxTz+ToZ+nhGIoICkGyQJkQwY3leGmIUZIhlJ0lFWGE1TYwP83cuvwB//xV/B5MICtDQ2wpOHsxRZKXVQdQ2dpzNliIGp7suBo1AXIHXlXw8fKXYj3UJdpFRMxUDeb6i+r38mEYpOUwLTUcD3JcNFRN+ags3VSYjqW9BQrkC2UCHb3BAp17x4DuubEhnglGFTpRG6OtvJWWJKhmmW+4GdB0QAyE3o7+9BxCZ8bK5raN/QYeFEHunp6V648MYb138a7CLzUxD1e8Wb+vnPff4LL95/5syRxkpjESMFClJIXnpkquN6ai4IIuMEQmWkeLCQ7ba2ukxMtM7BQfqMB3RpdROu35mGmfllWN+qCzhalfgRDzXXxbuIwj0dcMzLdfFQD9hkQiIIZQPZW6coT63EUNF78e/EGxbIvxUmLtt5AZc1AJ3rq1yFCnHi51yGZPkz/H0m0wuNDlygLGkDyvEFCqUoWG9xiqr4q0II/QxTE5ZRbUZmokqkoj5XjoTmEvBvQkZdTJ0uyDkFiWSI38BVMVGhMQrDEdY0VoBtYio1BrWwHcpNA+J9aaWi4erKCg4LEQrrEg65XCjAwf17oLurA0ZvjVFq4DYm8HGwOzA3tyhSgn44duwI3Lkz0VsoNTT39vb9N5lM5sDc/Pzv//mf//nt9zMayLzPjf+RgwcP/rPnX/jEAwMD/XsQqqP3x14yQnJ5KG2BTEZ7PCTS6PGwYMTFYZ7V1RWqQnd2DVJVGg/zwvIaXLs9A9MLy7CJDL6aGvrBQpuIOgydSwhkuNi609FfMgKzFEUZwXpxowGgnDBw2VnIZhRrENFBgNRZNOIMRXemoqyu0OtuhK7my5zaFgx5EDi1xMgp+DFZOHSqEcz27SR0Z+4AUfyXuPOlai4y+29MPUy9QLUATauO6fw/Aj2ciEYfcOHssF6ARUR0COJzXTm1iOoI+Dgi2tfHYHt+CqqZTig09kOuqZ2IRugIVlaWobm5RRh/l0ADZTh5/Ag5gpvCEeBkIee20Irt3WvXRqirsH9oD04flnK53Im29o5/8sr3//6RxnL5X33r934PR49ryglEuw7gvQH5f/bZZ5/9p08+9TTCfdTHJ206bBnpNpUkrQTKuKQoJkYGNKaMMjSE+mjwAwMD0vDFuVlc2YArt6dExF+BDZFGRLWaNBg0Nor2nCA5j8BBFRjtpfEHSqU3l5GDOzTPH8o0IJtVcFk4jFw2NMaNar+U43KZOlC05ZGv8KuMNFT0PF23YwGz5XnmpjZ6tFcSgyK/yO+Uibip1nuYwZkqZsyvKMlvRwbp6HFllfyA5ihJRrLK/0HrDwjDDxRCCIVTqEvOQyAcs55qlM6jCvnaHaiTI+iCYmUAspVmEipdnJ+H5aVlaG1rhW6RppHWQEsz3L4zATdHx2gIyT5JDjMzc9gZgD17BuHo0UMwNlYeKDeUmzo6u/rFufjfv/HNb35DOQF4PxUIM+/DqI+Q/+d+6Zd++aXjJ44fEVE/xGiPlWE9O68jvRv9dcTH3BmrxWtra+QQenp7Cerj7yytrsO1W9Mi4q8QDx/vN9SwWUUV8298jIw0sAxV7bEQx4WxB2aWH/N6zPmxok/TgGGOfgdre/j7ckCHq+gomW4ZJo1EEo9Cv8jltuEcM9S9eLewKe2RWfagEQLhHgqANO0AvztpiqTcRQrSddm6hwEGVomY630EEjbJ30ZDD6SzqKu2Y6jSB7wvUjRmSIOSE5KENARCz9fvQHV+GrbDbig1DQqH2Uhob2JiQjiCJUoLWpqaoL+3m1iCIzcxLZjwntP2dg2uXx+BleUVOHBwCBobGyoiFTsp0MB/Ka6zb3pm5pvf/va3R99PKUH4PjP++48cOfo//Mo//pXPHjp06EBWhNNtkqze9nj7cU18PZKLURYhIeaUrW1tdGgw6mP77vLNSXjjxjjMLKFen5r6Y8rwCVFwytspP8/IqIpFvUwuS4ZeyCHVNUuElGIxD6WCHIwpip/naa4eHYJsLQYZBfNVQSxkIaUGoWnPK8Nlfk0+UP1+4M4gj+75G8YQh7x4zMvDN+HvX7sAGwIR3bd/Lzx9NK/mFRzrdqzXdAY03deAg1g7864f3PMe+l3QvATmvD+yVRmYlEmzEqXSkewQYBGSm9cC/64OOViB7Y1pqNW3oVRuEe9piXgE2OJFhyCZmA3Q09VOBV3kDmAx2AVRWDhEabLWllbo6u4QL2vQNjR04LD46fH2trZbly9fnkw+qV0H8BP9+MpLL33kyaee+p+/+IUvnOvo7OzEaInVfbm8gsf47twz/jCU0WRNpAgN4oBg1MdiEv7t6OQcvH59HG7PLChHwo0BmK59aA8mRXYl1VXErkE+J6v3wvgLuZAq+wV0Chn5bzT4UOX7AegKemhIttrO8flEBopzFW8dFSBmI7jpx8fyeZ33Y7X88o0b8B+++xrML6zCfUP74EMnioQ6tDHqvJ1xzQdQhmnIwb6QiB4Iiht3ouvsUoUd1wGgacru7AEz/IDQzFiA6TJIhqOcZGQsMIglFI4gU18QjmCBngAOJFF7Vhj2nEgNSENBvM9l4QA6OtqIiIWKTcypbaBTwE4B1mWGhvbiYzV2dnb1ZDOZh5qbm6YuXrw48n5AAO+LFEDk+1/6mZ/92X/26KOPHheQP4dQH5V43GkxHXjk15hjSz4sRu5VAfexaNfb10tDOfg7s/PLcPnWFEyJPB+VbSgnZYFTMpeHLlSHkNpbCPWFMyhkpWwXIgpsxYksRPby1bXk8qE5tExVxpC9JyvfMs3MKGhcj3ThPTL5fZ3XqZDFGDcRmHu9bm7Ru0IB2pMwgswK/ofMzgEa1BCbDNSIwGf++DUBZjMMdlebiBTJSI0ZcRdsRPJ9QWjPuFM3cLkToLgBAX1REy8OCp/UVY0Ai4d1cpSyfpCPloFtLcNWbREyhV5gpRaobm/B6K1bpEHQ19ND8wZYJMTW4Y2bt4gIpp8QnqORkVHxvTU4cvigSAVLlWwmd7yppfW/Ew6o7Xe/9a2vYx3xvZwSvKcdgID8jeKNfvFrX/varx47fvyoeFOYXmelh19cyG8dgPxHrboF68L4m0S0b25tJULPmjgAw7dn4Pb0Egle4kGjoF/npldGsJQFRkOPtuig4WcU5CfYHxBZB2sK+WzeIA0ObvEtoyr2dbplcMgnUIUuRbxBB1NXij10Y9wrYnoFOfW8mIn4kekUaBaCJNvYiI3FRjM0qFpv8ajN4iFdOQTu1gnURexoAVqGzEwUW9aheQwe6Zki2X1QiAMvL1LP23087IjYMWfVvcFCqXIIWEDEOkK+Pgm1tXmohz1QbNgr3pMmQntXh4ehp7sbujo6hDPoEqivAa7fuAVT03OeV5uamiU0eejQEOzdN5DLZjNHxZnBukDL9evX/6/vvfzygnIC9feaEwjfw8bf29/f/+v/yde+9tXDhw8fEtGUEa++Ht01B2U0VFOHldUVopci3G9qbibYPTW3CBduTMCtqXkiiWCfO6qrFlao8lHGFP1WVuyzwtgbCnKuvVREqC9hP+bZxZxeqSX39BHhBwuALJQFMCLbcNtnN8UxVQHXbT7m1C6449jcGpybojszPRZ62/Ygkouu3BiB7/7gvHBym3Ds0H54+r6c6oJwD6Yzc8csPZ9P+w6POQy3VcBd6M9iaQQzfAS3wMgZmFSAMccJMWv8TA5nGEKSrqEYrQIsFEaLIjgg1BfvS7GZ0r6ZOUkIKpcbRapWoOEh/Bsc/3Y/0AHMzMwTe7Czq4MJ592yb2j/0Xqt1lUqFa+M3Ly58l6sC4TvUeM/cPz48d/4yle/+sm+3r5BfIM1vTT+2rvED/wZFoKQMILDOljka6AFFdtwaWSCCn0LS2uq76wgcwCGlSYZgQLSI7wXuXsDGnoBHUBe5PYhFApyX19ByXXp3B4dBhF6AkmSYVqXj3NVFZdRn7T59LCuY3AW3js9eTOA49XYVaC1lUDOYvm6uAa8xivXR+DvhQNYWduA4yKyPXVfjqC1Hjnm4KgXm5ape0F+38+aNIsZv5dQAJhhZCtDbtSKXefFLBJgKZjEKh5rPoNiLjqOQOsS0Oykeg8zsAmsNg/Vek28Xy0QCnS2LvL/haVFqo1UREqAmgKoR7Cysk50b/2B6BLHkdGp9/X1IIKr9HT37RV3e7ChVLw0PDy84LvjXQfwThT7Tn7gkUf+1y996UtPt7a2djIlmJlcbmEPHEZ8jGxo+FgI6hCQDwd2sDA0M78E54fH4db0PFX3Ix2+AudFor68gPKZgA4JGj5GfKTklgwdV8p2Y5WfCnpM6vYjiSdkcvJON+Y5wgpq5QXKOPSj2nqFzuw5T3oz7kRYbaQuTweclJ05Q0xMFRDxWq+iA3jlAqyubgkEMARPHMlSJK0rCTHbNmSm+OcSgMAr9TFDdtYcJA80MN9huO1CbaicW4P1KQjMtELd1qQFAoHvGlT9QM5FyBRBpjjM3HfIIsjDEtSr6xBkCpApNIKkhc/RPAjWBYRBkyKxXHi6aZ4LnjUcE0fnu2fPACK7ho6Ozh6R6p0olUqXrl69OrOLAN454z/71NNP/8svfOELD4s3qcXA2pSIb8pO4g1DCu/CwgId5F7V18cC0vWxKXjjxhTMLa+Q+IYrgKEPcEa187CV1yTg3+TEhIgMS9DZ0QLlhqKI9FmR+2eIm08kHvE3OeLdh4oNF3gX5ubuEvJHXlDlVrzfDMWYCUFIGpTuENhugVOFN7sCwDAD8S7zmRxcvH4DviscAGoJHjs8BI8fytJfkeqQQVMuRTqlor8D5nU6lKoyxpN/YSw/Rjnw8Az470laU0GNMqN02rLI69EBU3HXucrAnTMI7ehzhm0Ary2RSGom30L3tbC4SG1A3EeA9O8OgQYwVUR9CPc1WFlZIUm3oaFBRIWF1tb2DoEMHhDp1UXhBCbhPUIWCt9Dxv/wM88++68/97nPnS4Vi+XU0wDxyB9RBReNn6bGRORHzb0lAe1ev3ZbOIBZ2NiS2n5MR32VbwYZmedj1M/i+GljGV4//zr85h/+AfzBt78NRYEeThzYD02VBshk5dBLFum9gczvmeoY4AyeFPEIlFFHauJNVuvB6YW7Yds1esbT2276K5dco1V1GbOIQqcFTBXf0Aiw/33p6iiMT07DySP74ZFD8ijgvLwtBFoHEDjFU7eFF0ckEGu3MpsYxBwB859MSgGBmX6Be78MXEoCXsrk3Dz8++98F4Zv3RYpzTocFJEZ9QPMXgOHB2Ek2wIZPAKoQZ4viOddFe9zRbxPedhYE2dmaQlK5QaaMuzsaKPfRS1I9wMdBTqCgYF+bPvmWlraWvOF/EMCYV2+cvXq+HshFQjfI8Z/7mMf+9i//PSnP31K5K9Fk5+znaeZ8QAsCm+OsL+luQWaW5oJ8k/OLMAbIt8fn1+hXN/ITQemGy31+ZGKmwlpFgCn7FqaGoTBDMMPzl+ANRERhkdG4ZnHHoL+3i5qyYUKigYh84pvJLWtDC/Sh5pZXb46d7rhJnfnXredg8fJiRFvHHUex/g9G2NyFkl/C1+bvQO9MDu7BCM3xuDsiSNweqAqaxEoG+6o+ujpPa0yxBz0wXf2vV66wG2CY8RMuB6BTjFwexcsBuscT6Few/W1TXjt0lWYFu81Oj8swB7Zt4ckyi1MCOyrxiwK01OPJOEGq+K5bwgHII5XpoHIQwsiJcjkcrTlGKcL8fFQIi6KbJqPbcPlpRXo6+vF4mq2uam5uVgsnc1kQuEDyAnsOoAfNfJ/VBj/pz71qdO5bLYAqUZvIarW0Z+ZmaFR0a7ubmgUcA7P/8idWbg4OkWKPLxeU0IVVohCj6diOw+FPNH4kbWHOT6O3vZ1dcHLr1+AeREJtqrbsCmi6MlDB8UBabCtKy5n2ylihnI2Xo/HIxqQyIBTrs05M318l9ijK3fx9IYx5jkDE2N5LDg7oZnxWHtOOU4scp2/eA0uXByGowf3wenBmpwfQG1/OcSg2pWBKbAxxlKy/xTDN/wEZlp5Ln7hdq4wGfiZf788hjpivgUmZ+fgtatX6RqL+Twc6O8n2F6PoqTP8EaODQ/ROJosbEHAV6AWiZSv0EpoaG52lhwiFgdbmip0JnDrk9Z3oA7B1hYthEHVoaI4LM3NLS0Cpd4vAsmld7sTCN/lxn/22eee+9cY+XcyfhcFYK6GuvrT09PkBLp7eijfRw19rPDfGJuGVbWJJuIS8lPlOJSCGTRDL25ybXeWGHslZfxZkpXqgFURAa6NjkI1qsPo7Qk4eeww7OnuUoUvK9LhLrLQQpVyvj1SjscabcB4rMCmGHE2sVeqPLb7ZfNlv0oepwBDwLxxZ/2BB/nV81fgNeEE7js8JBDANr0GVARU0V87ADNwlOZ8PY+gCpdJXH8XfgDcNZuLTyjqe8XrQgLXqxcvk+oSvrxdba3wwIn7EnNMFglYF6RbhITEGDfj0cgizPFF2K7WIVtspXrCrHAC2+I8YbsYZeNwtTkyB/G86TtFyjnuiUBFYpFmho2V5maRDtyfCYML165dm3y3OoHwXWz8J596+ul/9dnPfva0SK+KzMO2SSeABo9vwtTUFIleoPEj73t5dR3OD4/BrYl52EDRTT0Io4yfKbUcpOXms7KN10BcfVzIgSIcOXIIqPKLv3/k4H44f/kK3JmcEk6Aw9L8Epw9eR+0tTZRYdGTzgI7kefuB9TPImBunuzWxJiBwDye/8dGcXVk1n1v6zecqjvnCavCouUPL1xVCGAvnBrclg5KUQ+1cXg9dWYbeO41y2uKkvsDYIe9g/eUGXPPYenCHTfvd10gunG4IlIxvEakcB/bvx86WlvkQhGHrMRSaxbMpH6B2Z7MlRITQJ4v0TxBmGkSaUABVoTjX1tfIydQLBWhqdxAhUFMFdwAtEBOoBudQEakA5VsNnsqDIPXh4eHZ96NhcF3pQN46cUXDz762GP/2xe/+MWHxQtZvpvx6/4sTu+h8eOGmPaODloyMb+4IvL9SbgzuywXZ3A1Gae0uLBPj9V6yvUVaaeMZJ5CSE6gkMmp6cAMUXoxv29qKKIGh3AqN4hTcHtyEnrF4+0b6CdSkI7MsqfvwExtnIYCyz1SD3hR3RfisNVsy8WPR3R9tKw0lzV+c96dcIqzChevDMP5C9fgwNAAnNlTA49PoZV/jNSYMzmYwlFw24Vux0Lm+b7hs3sSorPdD58BADRdubK6Cq9cuATbwrHiezjQ1Qmnjx6WRUzvt5lPT2Z2jiPhYJQj0KgpD6gaXqM1aBAWiDWKj4tS5VhMRvowOQFHlRjbiZgi9PX2UE2gpbmlWaQeh8XBe3VkZGTh3eYE3nUOABl+p06e+o0vf/nnPyjge9O9GP8q7ZabIbjf3t6uin2LcP76OExSsa8uaejqNDJ1sHH+Po+9ezR2JPZg5C8K2E/SUjmS+kZ2HDoGjdLxwN0nUMDwjZtwk8ZJOdwZn4FHzp6GjrYWuVzTGGBkQz7npuAljR8AzNw+h8iOxJjevln1DR48AB5Dt26FXRu5Wz1nKUEXn9/Lr16A7//wkkgB9gsHUKXrqxlOhSPlpduAjKWQcuIw3b8G5nL8uGX5JTMKX3XI/TvuibIG5Hiv3ByFsclp6vU3lcvwwPGjxHDU25AZi7knxmISoVaizaKBwKc2YXGQrYv3flucnbywlhJNimJhubm5yciP4X7DTeUE8K7QIWB6MtDfi/ses01NLa31em2wVqu+cvv27WV4F20wDt9lxt+I9N6v/uIvfbqlpaX9Xox/RbwZU9NTROVsa2ujfH5sah4ujkzB3Mqa4rdzU9RiaqVVXkRzhPxo7EVk8IlcHym9pVxeUneprafWcEd2KIUpMc7mcoXyz2URARbF46ADObBnQMDDgtIdkEM3WBgMuD1sRmGHxaO+jaJGFNT8nKeN5FuHwCMn6qtZQX3HcVqumqHHVOe8gP/XhkfJAZzsl0Mw9ZgDYEpN2GsDJkgXbMcQ79X0mUv4BU912SUDO67QUp25pfnOLi7AD0T0l9uXMrBPGNr+Pf1y8tMpMCYo067D5OApKrlkJEsuko4vy7bEbRPqwgnUoUip5uLSklR/RiTQVKblsOiY9H1tbGxRm3BwsB+vMS+Oc/va2mpleXnpBzOzs74ayU/wI3g3OQAc7HnpK1/5fHt7WxdwftdXRhs/Rv5KY4UiP/Ltb43PwsUbk7Agcn/Sm6tLuK/MiqJcPhuQjn9BRPy8iPg4tttYLJBDILltYX25bE58zpjiV6DZfCJHRsWZsyePwhP3nxYpQwky+RD+7P/7GxgZG1MTfuqF5dL4tRxWxLg3tqdtVM69KxKCnqijWfeYoSfs31fjNfV+lzdvh+6V/I5si3GQGnwImXE7EUvJ2O0IcYKKlEoHNn/L3WvmqSZolpqkVAi4GWf2Oxxo/JiH3xgdI/IO/l1bcwWOHzxAxV+uUBN3agbGfzg0aku6ihlDwJylIkwqL9OUUR2yfBmawnFoyK7S8BfuNrx2/TptZMbC4FHhRLFT4H6g3uDly8PkKLq6OtueeeYjLxw7fvzLCMCo6QBmmnkXAeBI76/92q/95wcPHDgATm88rdfvwv5GjPzC+DFS3ZyYhcsi51/e2JD04MiSQEhNB+G8MH4sgCFXHzn8DcUc9Y5JlisnJbowqgQOmQYFOihyRw52Ez/EIZofXLgIU7PzVAziNQ6H9+8h0lBNqQ8RxAfu5fNEBFJDBpow5GjqmAPLuN/1Nxr7jiyd3AEI/iw9gyTuV+IZ+gcIl3/4+hV4/eI1OHJoH5wa2FbDT5HhAARKk5AFWjqN7QBD2JuU82PzCs6f+Y5AO7Cdz8nE7BycvzJM14WU5v0D/dDT3S5R145XYDcV2YYAM07ALZ6a7wUWXeE/SKkJqpANBBJAabKgTAxT5AW0tLYQEmgsN8DisuwOaERBSlQibcTugHAmjX19A/vrte3lS5cuXXw3pALvCgeAYh4/93M/918/+OCDx2WG7C+kdA9eTby4+KJOE+wvS9gvIv+IyMMx8q+iCAgJcgZkKCTWwXBUV8pjFwt2Yg/7+wj5cZVXqKS6Qj1QwhwNfBWqzWFBJ1SLoLlSptbP9dFbUBWPefXWbTgytBf29fV5xu5VoF1RDe7XyzXa0HJdMgByb2efB6Kd1oFbpffhglMU1GlHBFSwfOPSMFy+OgKHD+wVKcAW/X09igwWDlhgOwFpxCsWZx0xn32U2hFg/qQhY14kZjGnr90LpmKLK8vw+qVrsCkQC76nnW2tcPbEMcX6A5umQZI0xYB7XCvzeIEdXODczhG4qZPcmC45BAFHJ7BF69Fxecl2dZvYgLitCLsDKDKCnQAZAORLiSK0mFZ2dXVgfaqpta31YFSvjV+5evXGTzoVCN8Fxn/26aee+l+e+8hHz4gIHdZ0Gyo2gYb/xtwLI+3U5CSUGhpMzn8TYf/IBKxtbVMEkxIdEWlo4SHOKEhfIF39LOXrqNKD+X+Qkeu9sMovtemV8QeOHLbTTtJtPpxcr1brcPr4EXjtwmWYmJ4m46kKaHjkwH5xICriENQsS8/Uw50sl7mGD0ZvloHlEDBv+CVWF2fO74LzOFxThF0yru3S4z9QhuzK8Ai8/sY1GNrbB2cGq3RB8S4AMw4A7HWyNwn6jKUSBTzlIEefYKfWrosh8BqQgHX+6nW5ZLVQhOMCgSHa0nJvcb4gS0MjPMU3mXVvQeJObHdAflOKu9YgH1bF25UTTqAIVYE4l9fW6DxiOxI7LLjS3H1uyBsol0tYPGSlYkNFOIKj4gEuDF+/Pgk/QTGRn2j+gRX/Y8eO//rzH//48WwmzNjNPDx2k0QL9PSTwvixat/a2kqjuTfvzBLJZ22zqnrYgXRrCOVFDo/FvkJORn00/qKA+djqw7wfOfyo2oPLQANmc1yKAK4whqHa1o0yDzkZcV04KPSpDz0FFQH/cI31qaNHoR05ASoqBc7/uVm9ZXZi2ciu03MtvwX+yiwzPwAxA3TqA+b10vRbhwDk3pe20Vo1UrMBGbOhKDZIaVxWwFgyTrGdyT08ShnNBq2rzf28fKf6ptsqwOEdHLoS7xVW+gcEpO7r7jKU3zSGIk/3LLajwP1eJVdr1d1L58yZPQhs3SDLNqA5Ow6NuVUIxDWtCRQgjJlmPgb6uuHg/n0eEMLzcEU4L0QG7e1t2Yceenjfw+c+8M/PPfzwXlUPCOEnsKnrJ4oAzpw+/Sv/+Fd/9YvtwnViEadWq3twkjmet1arksJrTnj/1vYOAWFzcHtqjub4Vza2icJKTPNQHhaM5lkS7chIoY5CTnjnHOX9KNmFEBhhPzp95P0zNftPhUOPrROA3mMZATfz5tppb4tUoLO9FT782Dn4mRc+CqfuO0Q6f7plhYzDSLf0nNoZd1gC8inyRJuPgeXkm8Eet9bG9ORgkGjMmb+PuNH0c3+FREEE/L9w6QYc2NcHp/q3ZQpQl+apZ+tJ6zBUOwfjs/4pyJ97WYDFLSYJuMc45xqoft44k7FvoBcO7d0D3eI1D1KmQdnO7gTikxReisQCkyp5mojuX3lz2Agwa5ALxNkLBQqIcsRFwU4A7ixEOjIaPQ4QuaPEKE3fj+3BTDaHcwPXhq9tXbx48fsxFMDf9w4Adft/+Zf/0X924OCBfXVi8dWMwKV/k94TST74uaOrS+RaJQG5F+ANkfPjmm05vRYoai+3I7wI93Fev5gTUV8r9EgRThTlDEhxNiPzQOLBR56MGL7fWMCRMDwywhKS028PEBpIudRAMwHoWDR4rZtqvNOWczT2/ZAJTsLpG7/fMrN1Amw0Blob0CkLBLHlwp5SsDrUWAh948owvPzDizC0pw/O7pXTc1pqm7lEIBZLATgkPztgiRkJMicHd14Ldm9MIINKDFxFPUXhBPA1DmjrEU/4oXTrccw94rGZBnfBCksWN5mvrKTnigJVO8hAVaDMGtSZcAL1rMj/5+k3cUlsc7PUE8AagP5ArUrkCfQJlCCeQ6m7q3ewWt1avnz58iUHJL2/HYDI+x995pnn/tvHHnv0BL78qMhjlk/GjB/fGBRqwIWbqOCDYg0zs4vw+vAdWFxfd2TrlYY8CnEGUm2Xqvuo8lIq0P68PEluh7Q/L06ykcavDpraEeBWiE0eSFVhtcnGaXLV9R9wqUPH4z1nj+wCziYdDh67zgzwWCeUepQ1qcaVyyJDY+mG4f4hk0XAi1euw7Ubt+Hogb1wvG/TYwKyGBNQdwF2GgnwL5Al+/oeKuC+w4iDAxa7brYDQriLJoEHpWJ1CCM2aj5DCt8wljbo0eSIq3ahdc4B2xIBBwVJSzRNiMrDuXweyg1lKhQje3ADl5mqD+QHIMGss6MdVYcrxWJpf71evTY8PDz2vncAmPcfPHjwv//sZz/7SEHgct0mSWv5Ya63ona+4Sw/Gv/yyga8fmMC5lHEg7tLL5jU6MPDnc+pan8OGgtSnhtTAZTiKgSS5EPqu2pPno4Kpgcd6cp55PHfOdQhFg9M5V7HlLquyMcq8e74stej14M+TtS0cJqBP3rrFLLAdzKWN+Ao6TqIQR9ibVXIebhybRQuXr4B+wZ74dTAVgwBSI0DZtiAbjEMEtN7fkOQp9isK/2TUkf0555suZPfvd4QlyL3MxKerArqFiDnDvmHJWof1vE7nsoYPTfOmel6M2zSirf1agE132BxYYGmUNERYHsQC5imWwGyM4C8AVxNXy5XShvr6z0bG+sv3xkfX4Yf43ryH3sREBd1fvKTn35EGHOJljJUq3JkNorUTUJffLE2NzdgaXGRCn7Y8kOkcP76GEzPL0INmDL+SK3slss08QWX7D4B+6nwlyH9Poz8OYxoWb1SOyPJOarvDa6eviPDbQ9BZApYuh4QxUgxkRNhOMQDO7eDQu5cDvEVIktM1XvyTFR0sLtuR+pFIGCHgbSirycS7o0ORgYhEBwPZI+7SoIo9dhF+RDZrex7i4K4jdyaNMR3mgC064js39wVSPiKznFHwONBniUFyT3tElM0de6Xg4cIPC6TgxIMIYrZeoben0A7DNWfFfgMtBbmqN2Mf4dFQXxtGwUKODC0x7s2rHcNXx+h1nNbW2vp8SeeODU4OPhppGiIW04F5+B9hQBwRfenP/PZf37q5MkDmAetCQfAnaUTuu2nNf7m5+egVMTWSTNVZq/cnITRKbnYgc5sIFl+KLhJOT/m+/ksFbjKKv/PUbEvQ31k2rUXyfytHtlcnBCBQvdo5oHqG9MmWweRmUEXR4LLyl7FIwgAi3HhLCxQh9Cl78YikSb2mPpB5EdI5tugjU7ckn6Yu+bLuxqgtugbIgW4fO0mHBzCFGCDcv0ocgQ8lHx5oOoACcNy+waOxBePm3/q8FAyd08v39n+fYLOGyvQpS018pAlS0cTeqsy8+YtIoeTwM3ZdCnETG0ocrkPhRCl5DOwUWuA2vYWrGHqirsJm5uIrOSqCunx9d7eLlwW29DS3DJQrW6NX7169fqPCwX82BwATvgdve/Y//j8x56/XxhQuEw6fDWP7GNlrIAWNWJ0Q5YfVvyv35mD4TvTVCzkkazEMNp3r/bNZ+QwD8J+FOosKUeA36dFnFkF9QNmC0HqTcd/13WEBO60ziIvMESqOs4tCV/qCjjkdhtMuFe8Yz4Vhg4cdwYCLFONJUQvzIYgT+Indjpc/j1Lkmt9PiEnjcPR0XG4KhzAQF8XnFJEIIxY3Jk4DEnOnNkuQKyizuIZvwvl3b9hjtrvvePFxDoCd2zaoxgx60AZS1q6T2PmZuLPlVDnqghriFjObCY4ZC1NGAJD5fZ/nmNrwgHnRDqQo6o/nq12gWIrAsViyos1AH1VKFKLQQqHi0qlhvLm1ta+anX75Vu3bs3/OBzAjy0FEEb4mRde+MR9RYHNcZACCT0S7kcmBZAtuEhA/03q+7eIFw33t41NL8Dw7SmRAlSlik4gcy+U4cLIVMgXqLefUfv3sN+Pk3ygBC1Q5MMUbxS60Np4Gq4bio7X5rP7QCgnxjYZt338SGfixPnnXnSwJBy/+m5TBJeayiw1wDn0ASjN+8CtA3B6veocfLjPbbvP7bFzpVDETCXein1s49JUgcTqSmmEAzijNOCpC6fTeuNxnCd+atWILQDa2Qm4C0ZccjQk5hB2KtrpMeoYhcBSjH1OdTKVMDsaNCWLO7sL7R1y5/VxURC+lIgbm3Nz0NxQo67F+Pg4TE5PUyDaPzSIqkFenWvk5i0aI25pac4++sjj+7q7uz8Jcl4g807zA34sCEBA/49/6lOf+U9PnDg+hL1S9IIkxOkUxgKmhRojGvLBvB+HKFCn/8LwHVhe29DNbzIKgqWk0R/IfXtE8snQ1yWR+wdYEBQ/z+i2WqDFLtShVMU/Lagpo0ekMEBd5fR66WYoUwFu43Pd2VlnhT/cYqJl9bnfYw670Fb5rQJeAOBRernnEri3YMd9/bhzjE30dVpvHtkdUwBcEHp1hBDAwaEBSgGYKgJyZxQ5VDsPWepcBktvtXlG6dO670ogiukB8pQpqJS9IInfN9uHeUpOxmMFyZSqP/N8IEt4HBYEfloQRQAemsP3sSoCD4PNel58KwNL4ky3tbWTXgUSmmZm58z9YWqA6QCmApkwU2xqau6pbm9NilRg2HCn3iEk8I47AAH99x48eOg3Pvb8Cw8gopxfWDTbWN12H0VYcdBWV5Yp6uOqLiyUvHb1Nswsr1HOTwas126zgNp9lOcr40ctd+L801BPVhq/A/vc3YCREghx5zGYKukyZfy0NkvVAfTCHAoc+ETUGTJ1PeYPnLhqPyakOJRi6XCYw32ItcmYp8xv9PZ9eB9vpzEHJzC/CsZ98I7sx+GR23Dh0jD093XCKS0KGmsDWj2AuAOISQGrTUbgOL40o3YNWavvxPlFzK+4QNok8pvRfcF1umwHv6NbzS7Q515Kb6XZuOtA/ecWBDE8ohx4CBsiBc3C8mYBkOuCrcDOjg5obWmmXQPLhh/AxL83qDXb1FTBVKBBpA59G+vrL9+5c2fhnXQA73gKIA7QJ59/4YVj5YZiDockENpTEc+p/OvXFnf1Idxqbmmh6uiwyPunFldJq54gOw7sZOVIL+aw2XwA+WJOLefIUwsQx3lpGUe8Ym126jIJ6RyBCalVi+lA3RhdYPTnIvNCRVwx5NT9Re5GTid39wOl1QIE5kcnZmRAfOPnZuEndyIb34HoYtMHYPY5ejUH7qILe8BpqWkYSs0D7y9ZrMKYaj3+Zxfme/Jb3OTUHjFJOU+tj8hTHYu9AJZS/U90VKQyqykKprcj43/HDFHbJW4wBy2YUe2UdgRX+wy5u5Pd0RhohEnobFyjv8IZltsiHUBHuW/PADQ2lr2yxOjoGHW/mpuaco89+vj+/v7+51VX4B1LBd5RB/CVl1564qmnPvjzg4ODvaur6zRHryWVde7PjQQ1kIfEfj9q+Y3PLMHI+DSJMwZyDEtBK7msA9t5WPEvoXgntvvyIeTykuUX8bq3az7Sh1ClGLSM0yC2yMn5mcn3ySGYVqA/yqtvPDZvzmxfyRwtzl06rzOeCnYBCJicPVE/9yryOgXyZ/3VmJE2cmYVfNyvdbi1UVVKllOHxBHA4HE+z44sm3ju7tbd7dCTt1SEW1fGeXrBknlDDj7W4THOVOytUY6G+wpJ8aeQKmHOYsQilpA299oQ3Ko4W2qD5Y9wBkZxGl/3ptwctJQjYrDews3EIh3Ii4C1b0+/91wwON66fYdEZbq7e9qee+6jn3/u2WefcJxA8HY7gXfMAfziV79aEnn8zz755JNHaJ3S4rKcjnNyWW0cmGdurK8RnVbAH8r3ca5/bX3LvOiBqkhjr79A67kKaqIvQ5NtOCGGhzmDyzmYhdac23YOsf24OqDmDQ5INN9MIbDAtIFAIxXnGgK3Qs2cqGarTSq8gWYpGeOPF4xsAdAp3oErC8a83FIvCrU7DBR6cel0Gi06uJcHKVp++CtEiKqTDJi7YoulFPrutXrPE8bHU43IVQXamakfYzSazcLgv57GGXPvvUmvVSRRvEZckdnL6KSNrpPxZhv0ndAAidJlCEy6ZRyK+DrDN6G5sCBC+DZ1Wa7fuEG8lD0DfSL96nFeWwYzM3O0hLShocROnz4zMDQ09Ln+vr4WeIcGht4xByBe1Beef+ETH2xray0vLa3QMI/eOWepu1z11KWhVZqb6EUevjUNS2tr4K6mDsj4ATXWqJ+fE3i/lJM7+fDfmrYqSS6hbOeoN4reXMr5FX3HCD9EBMPreuotcI0fFN3WymFFnNtFXtxO63EOCZE77mS9nPvkXOYWldx9f+oW6UKSq8Yb6IEchWa4LijyFMIdU21G7qn6uOGSGagr83we8ZTlqjxhMMzdGJyysiRJ0WXJdiXnJv9mO3IBmLemzTV8cN5ZG+15otXnKAom7sv1McwfDfKcgN+LcOGGmj8B20rmhjvidlBkobkIc9DeuE4/QCGbsbExOkt7B/tE0Ct6XYHRW2PinIfQ2tpS+tAHnzl35syZjyoUkH27CULviAN46cUX9wwN7f9Hx47dN7RKVf81M+nn5uQ4y49MPeyFtqKqSrEI49MLMDazADQbRFRdRpCf8lVU582Hcq4fjT8vhTuDULb6pOSVioN1JxqYyKhheWSivVwWKXUAOHeM3z2soDfxpqeSfh2eO1JU/tgrcym+nDtHl5vKO1NLLZlmOvIYHyAGkhOGyJnZQpQIdTHlHRZIlaTAa9el/I3DPuTcJ0VBcsVHyr+Zpd+au03sME/ZKs4hdQIRkkQe28ZMwxPMiqmkrCKLEpiFe2KhdniLGYdhS63K8QW2gwJON8JtRFQy89BarkKpWIDbt2/TjAAa/2B/r4ew0B7u3JmgTs2Bgwd7zpw5++UHH3xwKIYC2LvWAYiI8tHnn3/hsDDUzML8olqgABBfz4T0XZRVQhGFMvL81zbh2tgMrG/VqK9uX0RGVet8Ti7hzJOsV14q+ISyAo8NAiwSxqNXwIId8teI1II1209LeSenb2yxjzvrqM25dKtTEahhHAd4OtGOcx/36lagYdo5++6T0SbyUwGHKsuYz/TjegmX0bu3Oa5pGzLZ6cD59AiSz9klLvI4DPeUfx03uAPs1kjFTN1xSBU5jbP9THeBu6A7vSppi68sNdFP0yhx1ZjTSh6xmp5RRrbaYf6uosD8LrOO33AGGKUAzYUlUhnGYt/IzZv03u8RKADHh91UYEw4AFw71lguZx999LE9Ig14NoYC3p0O4CsvvXTixMlTL+7Zu6d3ZXnNEH5s9JcHAI0XJ/bwADZWKuKFyMD1sWnhBNYlYcdhgmUDvbUHJ/lC0l9DUU/J/w+I1oqz/xj1mcPksn3tSKUagXlXkQocstB5GaLYlkt5QOqRI9oRazV5JTuHB+9ST2VE941fQ0wJ8f2ARazfyNkdwGzuzFUL0g7L63hj30adsjCWaIOojUjqKmsRnSJMofC94DHQ7q4AMO8GS/GlsSEe2y7kkEz4k10SFi/yeQbNPXlxvlMSD/EUYecCBfdKEv6UEE+5pgTlGezz9DUCuNxKrGAbM0rGgcclLMIidDZvkX4FjrhPz87Sg2A9wP1AtamJySlqDfb29nQ8fO4DX3ji8cdPgpwTeNsKgm+7AxAvzEeee+4j+/G+cdWyhf725UVVVTR+7H3ihB8O+kzMLQroL35fGHFUiyTTT4lSIvTH5R0414+KPkVU9UXRDTQiZPwpGTHk9GvoL7n9kVEDdiO/zO1D54hGJt83sNCD7Y5sF7ca1Tai+WYRxU6iF0ECW6CM62O4nH5DEtJDNl6NwUJRF4gzt/XmU/ESKQumVrgEVS4LjRwqNqRo/zHnMe/G33OSERY4OoVOP3+HvQBuFh4H877MoGO0DivTzRRSrzEFdbhiaXdreBgatre60WVdRhatOMGBg0991AiyObMILY0RodrRW7fo+z3dnTDgFQQB5mbnSWWqVCyyhx4819PR0fHM290RCN7m6P/QuQ888vm+vp725eVVqKFUM+cxKCZn4GnvnDBwHJncFAn/1dFpmvbTLBq5Yy8gw89j0Q9n+xX0J0MXjgVzWF63G+hlIUY/VN3J8Gyrj2uvzHyH4BkvQMrWStuDcpEMi1frWcr+vpTDqdtFtsDlqP7wKNYWjBkwtwKiBg0w3VHwlS/1ffHYemFeT6rzmGG5lGi6U9KZJmGTiKUmR2fJWXsnyppdCDsJAPie0r8wHuMBpRYgk3fBWIx1mJYKOLMXbuqXxo50dSysr5acF1lkxnC0CW2NGyQoimPDo7dv0a9iLYCW0GgZMXG2x8enKAC2t7e3PPLI4x/74NNPP/R2OoHgbY7+zzz91NMHatU6w16nbvu50R+NHot4GP0rFVysUIJbk3OwvL5OLxAibjR+rc6Kv09Vf1zflZWwnzb7YP6vfhdiW3NR5FPn9hL2Byrn506bzxq/q9xLvxn5ElBWe5/bVCACr9hnU2Cul+P6Kr3MZ6c52ys8vpzlJbhbcpICGQy4Z2jcXbPtjuZ6XQDnRdJTfpnQMtm4JS26YMNPrX2jNlnKvXaHdjw7Xntix3PtFStTevo8QddhCecAsWKgN2iVco1eAZG7j+WkDx4vhDvVGCkkSMEqioyEezGahv4OjoIgMC7y/VW0h6ZGQgHuBw7NLSwsYsEb24I9ra2tT4E/MvzucAAi+p974oknP9PV1dmyvLIiFzVwfygFnzjm8pj/YCTHVV5LK+vCASyQFh1Cf6Li8ogurKBUfDDfLxUzRPfNUq8/Q44AVPtF5/0E40M58CM5/oEX+QOV89dVUU23JQMnLEduldrpBdt6np9QgDOP7yTiMSUa9W1f0E8enMhKhekZdM8WvEk0d/admcUZptXHeWqQhPQaqAHA7jotxt7EehMNeebJke2o1MNh5768Y7zuVCEApCwjgeTP3kxfgCXLEbATzH+Tpw5W08STj/Pbo1ZtKnKUgywLVH6vKbckzvI2bG1tUkEQf4q8AKS06/cBlaYnJ6dpfqCtrbX53LlHnhEo4OG3qxYQvI3R/0OPP/74EFb8V8yoL3jFKRn9C7RPvUHk/ej9rt+ZgZX1TUrjqS1F46chafbh5pqc6vOTjJcSqOQsMoM9umimXwFyJBy8fmy8nR3oXX2Gy8/MXL9XrXIjnT73UaQkvxxZKdA6+jvnyoGiIHPXWkweqYaSwJ9XsdEpTu51ytNEa+aWW682oDIOd1npjU6TkxIT7jcIAuYt5GCpUdU3dC9Fillf2sy/qYpBulqwx6oGTdVmDp/Cn/7hbpv1Ln4F3O7Hm+Qxfis07TmwhCqz131gMm31RoZjhCctCoNdn1y0BH1tkn6EBUHkvmBg7Ovt9lDR8soayYxls1l28tTpnpbW1ieUA/iROwLB2xT9H3jkkcc+1dHZ2YybUbdj0V/3SbHwV93eolYeFv6mF1Zham4JanoiL9ROQG7jwX5puSEvIr+A/mFAJKAgRttkYeC9eVrZgyvhTh75PX8/52de5He2R3k8AK7GffWOQHcwRlJumeNMfEws2YPMVt/1AY4MKdZcO2d2dbVfLWee6o4eZU2Sj5J2EG//6aWk+Mi4Rh3XnqsJp8Qxsjkv80r1upWXXBGe5kCkQ7qbBLi5D+5SpXiqvBd3OQkuDwDuRiqKIQbmP7+dcpREWqBe8yClMOItI3UWyATM7SDFJM/E2S0Fc1Ap1eicjo6O0h+gAyg3lLwUZHp6jlCASAGaz97/wIeefPLJB94OFBC8TdH/aRH991W3q4DFPxxv5E7vXM/S4zouFPdETjQTMP6GiP5rwllo69OvJxJzWppKsL6+Bnnxe02krSZVfPF+ECXQ/YYuhFZ6dsrwGcSMH2cPeOT0gME00DRpRq/sltfNDEoIeYy+6xwLyxJMVswDNYdQ5658GPf0/3hKp4DFID13t1d4/XbbZ+Y6LYhs39lrp0fOOCGXSgZ4bbVqXQqaJtVD40x8T7XZPXI78Ad97sdbKAxwB69x077083W9q8A4CxYfKrqLE4jPFDAfBWjH7ROenDQNkvMLRkJM3VGoJOlxSShGdWCx7Eu9x1m+CZ2VKrXDp2emiRyEaW5vj48CcIQeu2riPtmpU6e72lpbH387eAHh2xD9j9537PivP/HkEweXFpfY6uqa2dSiK6LI4cc8HnnQyOpr7+yE+aV1GBmfhWqtbowP9fmx118q5eGH58/D1//sz+BvXv4+MPHunz52hPJ+41yY39eVkDwyfOy6gmBo/HUDr2Oz6bFg6pNrVG1A/bDuRBozLusav2OU+mAaVOHBSk0FtpUpbq7V6Roxt+PgjM/FeewstUrmQ3KPUafWXovDefv2BKkC9/d0KFXgwIqCKnQVOFuVDemIO2UAtlMU5Tt0ANjOcCXWd+exwp5XvPNKpc7g0d2zAd+Px+TT43wmvxDKvPMBadV/Be3xtV0USPiHFy/D5VE5/NPf06Xk1sCZPpS1ggzbhq2oKJBzCLgcByXEsA6AcwFYS9PODVvqOEqcyWSL8wsL5Vp1+9WxsbEZzHzhHzgynHkbov+Tzz373B4RbRly/qWB2tl4zOcxNcLKP8p8yXVeSPqZhU1cosjlgguSnkJFX2HkuLATDf/qyAhFqemZWfjb778Cv/CZj8O5+0/A2tYWRS6j/AJSykrz++VGG9sJCJit6EfcGnak7cKIbVoSi0vGiwA84ZLIfOaxCpdCBCpicVd4wpWoZn5VyQu8TgtJR3LmsMnAiTRWNTc+tAKe+Ka3ZcOpiOOsOmr+1etRMhtnvqfxDn0M7vr3m94S8LX3HbyfygZiXrWNeYM7ifPnCX/cy4Yg011hMQWk9EXG3h35CIJ5tRAcUd/cqsKrF6/B2NQMIA0eAxwWxQ8MDtJqMHICTO9ykHce8ip0NtVgYSWAmdlZ8XerwgE0CBTQBdeu3zSXgigA15DnclnsCLRfOP/ao+LbuGQU++e1f4gT+JEQwIu/8AvdA/0D/9Wzzz57TET+AKWOa0Zf30Z/NH6EnejtOoR3m11cp02+RPpBVmAgWXFY3c/TaG8eyfy0eRfrA5vb23B7YgouXLsGl68Mw+GhPdDW2gI11K+L3AUaWr7JGn883zfjwcbz2wPPDH1YFwX9ifKA2YNjJwStgKemHWvjdxd7JroCjhKGP83HfCkx8MU0XEKSXcDBEjmplh3bKS8mEsrtcdoM1N3dJhDAlkIA3FsMwpQkOPPqEopv4EVzvvP4sFswS/EOEXdHbljMa/jGn6g1eGk98yjKd11f6KkfsNTX0Os08h14CUyyWvH8Xro+Cq9fHYY7wvjXNjfVRvYI+jraYWiwXxYJnQ6GSV9Q1ZptwVa9IM66XNneKewEa2UT4r7qzqJRDHCoH5jNZAvj43caVpaX/1Y4jeWfiAM4e//9H/3857/4hd7enlakLW5vbXuHHsUm8MVpEJ5vTXi1SqUivm6C8yPjUuJLEahwIIUWeObk4k4c7Dk4NAgPnzxOfdDh0duUFy2J9GL0zji8/MZl2FhdF7+zD8oNRYk6lGpPYF5hf4afpSrjaOUdDcuZyZeNYg/4OaHJ4UBuIYpiWWIElq6rYT1LtYjY8XSKAIkZeUfOipunx8y1+/VM34zi7Dv9Ncql3RqbgKvDt6C3W6QAvRtqACmyyEppKjKlvciCOLRwUYPDfnqTNeLx9h1zaDvODGXipWJeZyQN1vOko3wTApN9CJ7uMViy2Klp1sRFEWd3fGoaXr10FUbHJ2hJKM0YiNexUcD4EwcPwNH9+8iY3anEwFF91t2lXKEI04sBrRfr6uoUZ7sBNja3iA2onyOmBA0NKCuWFbE13B4fH5u4Njx8WaUBdXiLQqI/agrw+P79Q70EdbZrxJt31ZMYje+GIpjX6IXCgZ+ZxWUyZDW4Jw0LkUIoDR9FFPOFLDQWi/DgqWOUO338g0/Cb37rD+H6rTG6n2sjN2F+fh7+7tXX4BMffgqeeeKcMLwsbOH2lRQYp/v8USwvtkhF5WNW5lU9F+bRg937IOPnFhVE3J0Pc7C3q5UfXzbBwX+xkpjZk9rmRiI8bhz28Vh8qj52/fTzQGoE5HA1uoCttmbjVtU5+JfNTXWbxzfu8FhZnafQHj0NX77DmkAv0/Zn9HZQI+McYuo9kCiM8B2Mn6U8OndnH3agLuBjYEBaWd0QqHQYZhYWYBUl7lXfHutcx0Rw2oejvsKo8TWuxzYYa3UpcxbF+1HkC9BUaoOldYDbY2Nw5OAh6OnqgNFbd+z5E/eztLQK7W0tsGdwT3e5XEZm4J+IG252qSon8M4jAFzv9dGPPf9PThw/3jcrcnScXNKcaDnLjnz9HJRKBRoHRspvU3MLXLk1JXKdDRXNuJzoQyllkSbQlB+JeubIceC4cGtzI+zt74OHTh2HgZ4euChSANwPjzBpcnoWLt24CRcuX4WWcgV6OjvMOKw2VuawNyLucvsd/h0tejSUIVMLCGJrrCL1y1hnlMYfGOPn3N8pmNwJEDMMzneOljH+sBvTmTfN4nQF3FuQWi1zinichkxGbt6GCxevQ3dnq7caDMDXBGQBi9Gn40jGfyyWir9ZKjnpTYt2PCWZ32EJoJdtOWko7IDeIXnl/shRjA5Cjl/VTC5dGxHGfx1m5heIyk7dHvH9fX09cOa+IzDYI1t5zJWOc3kJoAeF7HsYCNvNFhpEkAyIJiyQNcF9bK2vrq2b68CdGi0tzXgt2a3t7aBeq47cHB295aQB0TvuAM6cPv2zP/PFn3leROTi3Nw8bCmhT33QaJAH6bvCoDc2N4THaoeVjRrcGJe5vywQyjcoh7k/Gr9wFqTvl89Rj5oFdm1Xe3sLbYZ97IGTZH3Do2N00HHacGxyGn548RJ0NFWgu6ud0ARW/kPm9/kZ8xl9stjHvAI5dyCaS0+LjGiI/Jo0BNT9Rtxpj5meL3c2zsTqACyGL83gUQD+Ci3N9rMEGu5YkRm4AXcSD9KX5MXK9kitvn17koRB8TU7himAdgDOUBA5ABaX9kqx3hhN2CXM8B0snt2FF+AhGBc5xZjCjMVHoplHadhpF0GKe4yBC5acchafMdJ/95XXYXxmjui7karOtwlDfeD4URgSZ7RFnEM8/1HdKiy7g1uGEu51U2W7PMOqsLiZhZW1qkDCBWhT4rhTIti576dIAQjBNZSK7PLlS7OXL1/+gXIAtbeSBvyDeAAvvfhi38DA4Cfa2tqbsCqJo4v2cIJpb6Dxo7gBLklE+H9nelEYrJUFQyNHiS+M9tj+o9HejDR8phZ+aJ4/ej0kBh07dABe/Pyn4F/8F1+DE4cO0vZVVBsaHZ+E3/93/694g9Yd8U1Qyzrj0N8aP6n/aiUeN993hjkinUYY2B8YJSBD3+VJIRCIK+lynkQCwByVYL8Kb+E+Mx0Fd3mqs0U0GTBN0Y5DokmudioisURzJGyRNN4P4P4EJMA9CG2CoSmnD/5DQnMkvX7ozlIkJn2S04GJOM4Tf+9hFhZPe5wkJKXIgAXSaRHsxqZnYLMqx9xxx+KZo4cIoWK6itoWCPcjrXYFFnHqugoDNz0Eh6jGRUTegj1dWUoxJicnSSewu7MdGhsbvOeIrUV0Ms0tbS2Dg3uePnbsWL/iBGTgLQiG/INqAMK4z330Yx/rQ4SIm0/QAPX8OkJhGsYBWdRbXV2h1V6r61swu7hC47oRl/RTPHYFRfdFb5fPBZTjgxqi8NZpoaet1qjWgOIJXR1tBPlfvXAJ/vyvviPSgTm4//gxqiFwmiWQf1N3UHbkyERpzxdwve8vFvnVg1OuBq7xyzeu7kDzwDkk7uATc6it9nRHjhClPbzcbhVJzX2ZqZSrxpWjKuSu2GUxpEFThjoSR/61cNMeTBo2i0VCLW4Sn27kELc/5hU1XWGuVGfBk2WPtCjFd8jlve1AwBKByGv8sWT30lX9jtOl7evNTIu3WaSyzUrNt0ecwf2D/VSswzOMKUAtclekOg7feRI652fcdzZMvbgN2RXg9YzI9TnM4W7MpibobG+jFqC+b3QMKC0ubDE8fuJU05Urlx984403RlUtILzXjsA/tAj40N49e7tpuaeA/nV3MYJiQWE7D6uZuLUHq/83JhZgbatquPNafy9DYh4h5dX5bJ5UfUngU7fWlLKuXluFfOGaUhjaK+BWV2eLQAVDsL65Cf29vVR3sJt7wBvNNGQN75DGjd9GEMMZUCtDTMEvxtxLKvs646M8fsL8nfPynFmIzlMpbdxSTXXln+1U+bdqw9zZPJw0vAiyRFoJzUHnToPMTx8CW79mSf58nDocj7jxbcapFuz7XV/t13WpRneTpw/v8CTQcKnFic4Aizlpz0lwK2euHGlLYwUePXuKfgeFaRpE2lpX8vZWUtyeI804xR8HXl2CeWmd7VoIRFxfhYHubrgzG9BWobaWFnHO2+H6yC0Pya6vrUOTSD327NnbXi6XxUXBn4KVEK+9IynAV1566cgDDzz44aZKYwGJCShtZEdlZZEEmVAFAdc3RY5UKBXJeCZnl+RsOj4o6XgJgyclX5wQxJyUKXkvOQ9g9uRF3Bxit7KB94TFQMzFDw7tgTMi/0LPHOoefmIrjGmkKgIPN4btt/l4TGdHGb+uJUQcXC0e4MmhIHck12vx+Zmg30kDf6VXrHTmdwrBF9P3Wo00U8BTGHpuQi4HV+SeRKxc1+5SM4/l5TylC/hmoYbJ4kmClcDSiERJVJBK2TVOK9lKdd9JtlPWz1PqsLF95Q5Yt++LeM3ahUG2k4ZlQZKo9EAat0tCNN/ErFUPrDf0lrm6DFPHC7Y2VEkmf25ujiT12gXqReTrvhvYfcPAWSqVygcOHLr/gbNnD4O/WZi97Q5AXOyDjz32WA9e1Mb6pqP3p5lwgXlSOG2G8GhmcQ1WRa7OFRTCtw7zfRwNxohN8mChrEcG6jORiEKZ5+JBRf0+2l4rPkcxw6Jr2domYlCkeeMMrGIvd15wFURIFoz7BB9vRwx3YD84tOHYCKiJwInkmfuaeTxmzDEDMW22lIKhDyBcwopr1I4j8hbXxdGBar/ibsB6nQ5wJgjfjD2fWj2HODR/053frjZh7HyyNMOPr/jynULaSi8rsOorGzGPaOU3Tzi/q+9LzFZgtK+rkXNwOB/+ojFn7Z1WnHPoymbxC4vPXsjnXGDz0FGpw+rKKkxMTdFPOkXK4b5gyH9Zpw3bwO47dqK5s7PzjFMHCN8RByAO2AM9PT3tBP+r20ozz+ZdOK6LvH8U/CgWS1AuN8Lk3JK4WNVrV686UlBxug/RQj4XkiYgLvfEmX3dkuNa3qseKaVcuXjRo5ECs4bsr+L12H66OxYoo9D8fUPphSRHQMJ+l93HTT7OjCR4tHN/SjMC3W4A84Uk3YKZJ5duDgdLN37zl5Y3yGM0WuZ2J3QBKgiMjgJ2X7BQa6rUMcTAYmIlcefFUyM9f7MI4kNlFzExSOgLGEEUFkdKkNgd6GpBentTAZyZCr9cyO+qAnD3+qV3T0FMsU0/v8BRinKWnjLmr2uPE5fwtPd2SOHbaeEAEGlj71+mbODQgzfImff09LY2NDQcB39MOHhbHQAO/jx87tzj5XJDFlccb21VnUAsef9YzUfNP8z/ESKtbmzB4tIa1J0qsjBzpDLSiG+oSBXZgtpQow4uqKooTfwpAQ/Oa1buWnP7zQvmz/NznoTOFvarWgVzinxepd6JlXoTkDF+8FOFnTjyTv+LOTRj7hCEmNtjBEgIR1h0ATFOqj3gWsaLO3RmTzLMZ/jI9EAfQ0Rp9RohtVTBT/BVcXcI1m/SXruLI+DOc3XyYga+cSRahzwl2U88OHdShHRoEq8LgNu5cV4/BvFFpDvsJHTfO412eEwo1l2hDv4SVSMJp666TMXADZoCXCX9zDJR4N0xcQy0+Lf5fL5h/4GDx1QakL3XNOAtOQBxcWcefvhcF1J+JQKoei9sqLjjWowTt/zMLq3CJk78cZm5U2851I4Cob+km4aB5tlHRmjR6PurDT4RMF/5xjnYkZMT2wlBuyk3iNyc30b+IGXEVy8ACbROgKtB4BbeWIz5xuMUNVeVLiYVrfT7uNMa9MjHjuiIAZY8hffPnVaii21d/iy3UUnXhvH1RcNHZWQsurrKR9rTxYFHPMOBu0DnN3UEzrISmxL4hGCXLmzkxJ28n6WMLvOYPgljd0tgwIvIce3GNJVxtuNT9tV+LIch8NGUm5o4ewNcboq+lgxsQG97lore2BLEX25va/UeFWsPSMLDHx49cl+lo6PjhJMGvL0OQDy5Mz3d3W3rG5tU/fe18qSKbz6fhc2tDZr9L4n8f2puhUg5GvrrjTdY7Uf4n8nJrT6BgUGhXLKgRELqPDJEm3h7KTFM7yzW1BRf1L0NlJFF6iAFJvIn+fiRemMCPdEXXxMdb9N577+zcpq5RSRmDN8VveSu7BjjfuRi/piKNw1onKBf3IynB87iOrNT0DU+El4JQ+A7HIN4dHTBCNuJWveWHAHzyFDxaoNe58K4P7WXpt7ndv6YM74bV+ZxHztIiJSynSsgbOd5oLTnyrz14+734r9t6xURt8hMO4TOFvkcZmdnoSocdltrsyJn2cdFLgzeV3dPb5tIA46CFQp50zTgnh0Akn/27Rt6UsCQPFb/MfpzZ62VHPzJkEY/knawr7+yvgXLRPtVo8Egh1C0yCdW/8MgSxt/uYryBPyx4Gfaf0pVBSvVzpis6xCMEzJ1M793rbsGGnJGDjMucoplkXMwIrdYxLkn9Ghbey6FMF1Sy9QATO/dFzLwGHamlsIcNOCu93JYZO79enJXKbu0OffQh1E01lE3YST+Wi53Eaqbp99NZQvexFi8lInHOiv6GXLbUQ9iWP9uKUgqBTnhtFhSSyG1+OeMAMdpx2a1PSQJX5DsOdpNQXaJbOAUQyX9PPCeZylcE899AxYXl2jWpSLSgNaWJu8tRnvDrwv5fKmvr//MkcOH++41DbhnByC8zsknn3qyDavGGxvrNJXk+l6pxMukSYnQiey/2cVVqDoDIBklMJFRKQAOTaDx24p6ZIQUScVXeLxALfP0hm1iUc/+kxsD84yfc7/Vx8Hs/g3cuoAR+HAkrByJLu6viInBfhaDnPFz6Kytdtt5XpuPqXTD8gp4HN86UZB5lbFYdOHc20CkZbm4t1CMUx2EhFRjxSg/osZ7cbDjvgGA9EEcvlPevjP3DyBeV2dp8Z/dPQ1hriYgc3T/uC9y4ly/zwoExziZvxkoHvfjzE/mkyO4U/OQnVEWk85z7E0Xy2EbetpzUN3ahKmZGfpea0uL97vYDdjc3MZzHhw8dCjf19d3372mAffsAMRFnty7Z28HFh2I/FP3d/3h3H8uH4oL2aTBnpJwANj+0+u2pOBHqPb4SbYgbfxBzr/6T0p9IYsv9EQ4dJ+aOxExcibSvBXczKWwqsiv7CFizGi6Rboj4Bq/s77arbJb2B9bgxNnviVWfMdovXwnY3Fn97kv5OEntCkRXsP8mIqx01Xgjo6fC1aYU5dg8cifBoWZuyMwrUB5l6p5nBvhrkY3iCcu8+ko9u9g5/qtCFhK245ZopUWXuVqRp/z5Kp3+bWzth6cz54z44l9F0nSUrqvs7UG23lhccfh0RO5SAMkbwbTALQ7jQCSKIDBQP+elnK5fDiWAgQ/KhNQ3Dc7Xqk0NSwu2l1/3NligykADicsLS2S3PeayEvWsDhhojSXrb+M3OhLSCCTtb1/KvrVvRczAJfpZsUz3Kk+9zrAJVjoHq0p8lhWXkQ5fqSiPTgj7snabqCuKgXbx9g5hjPmMwDBn/oFvfKL+3CemS4JS7S3GGP+BiJ3WEijG84c1ODWQrgnBpQsZrmjxD5ll0NsQciOPHyAu63WYSm9dI8tyNOWftlZB4sKmdPhcYqqXodFF3LjNSPwlpwaMYo0vKL3HQTcaR9yj1XKdUuax9MZMFJujPmyZq4wq9xS7adzQXx9u7pzTAPq2zVA29sSttciHADZGG3QlneD1GBcPNZQLlcKhcJBSKoGpzZv7gkB/MKXv3zs3Ac+cCyfzwWY/9uBHhX9kdEXyt4+VixR9HNhZV2tBdPVdqnZL9V/5NAP/iNgSsZadcPqFLUjc2ERj1L9qdtW80UZnQPlru52yUquMChzKs8xglGwU9nHFe10ZMMT0YHb/N2u3YJYLp+sSXuph466XkvPSmV5kpU8hj6083XWjAeBhPyB0mrAQizEYX8MQrvfYAkKUAoEuIeiwE4iHdx537EAjNz6mqLa1hVxCVWn5Oc6nbGa/l6kb5wm8ep1+TX9O9J7Ee3adO7+O6ZrLlfK2w4E1yxQ7m9b1/sauRoJ58r4ucON4eCwWaPIoszYfkmvVuT0OgK+BW1NARn84tISvY84cei+ihiUFdcmN7T/YP9Z2Q7MvFkd4J4cgDDwI6dPnWnD3j4OIEj6r73ojFL+wdFcrP43NVZgcWWDjBkJJ4FaeU05f5iRh09NAjI1Uy8jXKCksSPlxcG8aeBA1oBxpxge66F7hu80sj0fGFmqMIcke065BLyK+k7Gz1iszMT9QjxjnsAX24EqFyel2FwSYt0OvyXokWRc8rwrVx7oRaFano05lWjp9OpRXLKb7Szxy+9aLvP4CTtau5EJj6hdjHUeZHBW0YiFMaOG3pb6TIrFjpFrA0dDrDs1DW2gnLuGnVKed5eUuqpNrmBpnGzFY92F+Pixc768zNA/DEl+VHw7OrftbBv9bSejt7NEdbeZmRn6SUtzJQGmEAXg5/1DQ+XW1tYDygHctQ5wrynA0e6e7jbs/etlny4mlC29LM39Z1D9RHx7USCASNFnQuJCyzHfbEZuB2KhlFOSE4TSSWD1XwNRzbzzYFN8n7wjPkovsuIf+OpUfnIYgN3+k6DOSqzpQDefwQexfQHu3vi0Qg6LA1vTj2eWI6AhI/CEslZ8QIUxd1qdJeoMdvSUp/p2f2mo/Heoi1vcnSfgO+zwS0FiejiJ81SSkF7SGpmCpM3Feayu4/EreGw1N7jqvQxcsQ/dLeKcvSnUcOfxWdoPveqn00NICLrYnn3a68S5v0GIO1uhXeKP7Q5wZz7AqR2pIaOmYh22N9dhiVLwGjQbB2B/H6dycSqxs6unqaFUOuCkAOGP4gAw/z/c2FguzkzPmeivnyRW9uWqriwsryzjYAK1/1DIUw6SybYa7u8g9Z9QzgCg0+BOjhdfB8fBWZHtjE36h8Jhk8XEdj3jVwYbAI/l/F7aZoppic26POUCPekoltxp57Ys47r+4Hp4RzjEuU/mLAlxB0eSUzNpX7PYuG5K6EbBlCCkxZM++NkZzicAvzPGqrfeRGoNm11FLslHev8i98Z1kx7DVzf2pyhZ7IG5w4XgKbUF8EqJsevmO3N8Wcrr6TERAeKLGlOLfaY2xZOcCpZgaaaUDk2Qwf0By1BpYLCyukI7NyuVRlIckkpB8uL1Oj4cDhJIfG+sExCkPfM3TQFE/r//9KnTRwqFQoDiHrW6v+47UCu80dDRORSLRVha2zD6gIG64e/gzIlc7JEhEoo2LFTwsTybyNOx466wr7uA0TDlfGpogvgVl3V1obXLy+bJqTKeWH/FvaKTheguD4AnZuG9Np9T6fcRJk/w2nwl3jj1Lm18LvL6Dx6KYb7TpFVsinrtrkJPKvcyjx3ozUwiFK9LuI7boKriYG7j1+IcEISvSwhfpyGtyKKtFG5tssvIrDhprOvC2M4ZCIuxglhaczKlVO+KhLjnz1ubHssFkj+DRNuQgbtyLI5CXFeTXM9uxF+UKlN3e4EYuEvLy/R7TZWy91qg/Sk0lR0YGOw9fvz4XvAHg9hbrgEEQXDg5OnTzZj/400+iAMhRARB6S/8GU724fDP0uqmVMvVAziBjPw494/031A9If0WuX135q5XSjaDnCU1zIH/PqfbVZrVq8JM68+F14nNE37bjjE392ZehGLxIR3mw0Sbx+n6AEts2v3/yXvTILuuI00s89xXexUKhY0LQBLcRIkSJYqLKDWlVnSPot0eu2M80TEzjnC0w46wHf7lH/7vP/41EfYfx3hibI897Rj3dLvd3aJEqSWTWihuICmSEiluEEAQO1AAqgq1V72q9+7xyXNOnpN57n0FkAKpxaUogShU1Xvvvpt5Mr/88vuSmhDuNECzbTwzKC5GoZRrW2i0mDgRXB1RyUgtXYXtTLnU6/K4tQ5+gmReQQFPiLQP+H7o4SnoKeD9KI3s2UWpr6gKoiBCaAatDL6m7qDAWgp5YCkh1hhotozuUfEp8pqo4g4IbKA14MtgRW3A0oorgF6wMnKzFPT+JZvMUBK4Zd+Y7/Pn5+b8ezoVhUnkb+T4vP2OwyP79u49fC0g8JotgHtidx+89dYZv/rbqxu9tyf0uHKe6L801iMkctklAC4JqUXwwU8rv0MdzwTkctNIpZ4kpokefpXjl4FqMq2DnKZ2nRE6/qrPVm47tiGwoefVucxXdVTLPDiJfCSkF8WYUH6PUBDGa5X3tjHN0cWNAEpL0NBmgRM5VKf3i9qyxk0f+1sfzHX0bTSZzJLK+ZYqBhonsFDise34WlP8RLzGNFLTG31KfBibuMQA+p9476Xiss3Grrzaa9rurwGKyy0th5znyyI1EICyyI0t2pQ0+hScFtbEmBh2CXt70xuNUNIlyzzdKaFvA+iAPXDg5qmJiYk7ftUEQD9w165d05Pe8qvfb5sQ+P6fehPq/5c3XKLob/lRWz8t3sQXZCBhAShn9gkdzpfXJmKIUFOyVpWx3D8bRDXnDTp3mUorg7/P34fF/Fa17pmgIbf3EvjkGYd6zo+ybUAR//G5mYLxp/vJpq5dQ38fC4sQtMUoiZ9nw0okjaXYS0Cy36j9MiwMArU/3bd5yhPLWKrwjMUiAZWJrIS2UUkVtNU0DdJ0w0a7EFTCtm4OW3t421AuwvafN5LvjwMPlnLvSz8A7kADyhyA7OZktduwkDPHxovNbUll11wS6AHJ8FFynpycUK0S/RgT9HZPTxMOcEgkgFY+wI4twENf/KJLVubu8fGxIRr/ka23Gv/RRh8JS8b+n0aAa0RJrAPRgcd/AfirPAegir7pxmR6pm2c4dAu5thgTEnkOtNWreDRq/Fu2QWxRl4EGkq3WKtXtdIA2GIBFRXzd7RWSXEZpcaJxZZgGwLasvEIVtOHLYryOi5E23LsmA0vUIwG08t35fzSyirMLSx60JbGuOHPbei697PXz727JBZl084mNgOF3PpOtuGqfUkceFS7D2JqWbD/sDFnwcblatKz+eBXW6ADenlUYF1GdbBFNFQy+sqKpMQ2Mr6Tf1dtrWJX2wQOC/ag+7/9e0b9CjDN/b179uSkeh5+SueFdodHXTwedPE7tBMjcMcE8NnPfvbwZz/3wCHX5yMBgGVgEIocdsqDRRcBgCtrXeiL0R3GoO94l5kwCvRZVwgioHLBxcgKLJ+gLWb2ttVUA5EZPgWxwxZUVM8vqqFRRavR4SCWm0Dv5ckv9vClr58M/rqVk1doFLYo0mKx/NoEsW0BUuWxH5fw9N80T6cyccMF+dWlVTh68jScOHvBL3d5Qk0a2YlwV1ufxXKSkly7ThaQxBgabY6crLQQkxoLNo29JxFgVrUF0tpM7wUU9YTIBlZhERpsRuH+lO9WVBVkmUyyGxBmjwor9gJiy2Uah2C4VjfvG4ctdxBfvXrV/5O0EfdkOmqfAzjbIZGQ++6777aCC4DXnQBceX/7/Z+5f4p4xtuC/MMXgcd6lI2GR4a9AtDKxqaaqzPg16kiGaUTaMPWynjURWGtqOP6aJaCSiDdeZnc0kIctLJiG+RcKZH2wo3S2pJMZBseH0m4M/HuMdtNxRu6Lqi5DbkrbL7pUDAFGxWTF1Cpi1ySZcnrqKbsSVyk4+BOj9WNdfff7iZaXoGFpWXobm+16hGq3CVot02w0baPGgd1lYhNKvGAxKHXDcTpaQsNAFuUAMnIQwe9tl7DgvGISrasbbTXuLkavg/6nsoAnxFSc4WHYZyIBclwk+TDoWR5kijppPFAIBnt0tdCAtAHYM97CSLceuvBzp6ZmYOiBWjgANfCAG675dZbd3W7mwGIUNWwDbry7onSmiIF9aY7Vba8a2+gAA1jFXfOTZgEUAUQ0WRjhOUVYJK91sAPM6jsoK6s5Ng0btA0erNJ5i8th7BkVi1og8paSmr+F2qxUKNWlE2qvgD6ASWGAGKtVY4tJYlGd8qJuUfVinA9wjJrYLjF5IJL3dv2YBEZsdDpXveZYWmhGqq9JBsBgRaa9GQbE0u4fja/PzhY4ju1Q9jyXmFL3176uCEO3vZp+xapeWIh4U2NhSkcpAgAhagKNME81ZI3ZdNA1aq2QPNzrGSDEO36Bga1DlJlBIW7rGAQRipXYffWYWV11VdtZCNePheqyCke9+3bPzY+MXHzR00ARAA6tHv37ina8GNvMxlqTAGmjEP9/2a3F9aEo9wVCxeQEy09tFeeQdMa0LS8YTJylvjzgAPQcMvBJvq88gSrs0uMVZRdIc5oQaNMKngRFNTNN1+NLbbRtgC8AhJoBaNRtTMJ2pR1jW0y76zo+dXXY9DH59F337cd5+5b8U8f9LVt7PNzivSSaFDH90yW+Kxa1PTws9cq8rE5zpPOy62IQGH6gaXZR/GfShk4llPG7JRwNCXINhaZsJkUAAYQkKwC3vgGKxTm8yIbaF0WMMIeXQx2DGp2KwibPZlTEVzQj1iPA9B7TkahTRpLiNVd0zPjoyMjN7WQgdKLv1YFcHB8fGxkYf6qB4zk6e/LekKHq44HAGk7ifpK6X7D8l8e+aeboBPqMWIOEpuJKgOos95eXqJo8WvHJrtPkWFtATOjggL1VhgDV0p+SjgEqxoYobltpmtk5TMvxn3Shx5LhLwBfbacPoU5qJoQR5poL3L5t91p390OyzJ+r7Jv1ftli/EYlaaraxuwvraRpiZWbLlY247e4c5dfeMVSamvgRVcK4EPB5J9QKg4l2Bea9CjMF8ZpA+kuMYl/gJNGbKy1cA2bEZqDchhaaYFJ3p3OvDE+5uSWTi0mDu3e6rj1+5pKke4Wx4F8vg2VHquJR8fHh4+0DIFuO4K4GZ3sleEAXD5yE4zXgB0eMj/Njpthl0FcHVjO4y96sAxx8rEBRTrsQJMp1Wf2agqqixzn0Hud8cgjuYjVnLwEYud1Uy9tJL1Y/XsV5Vcg/bti7ve2oJE0AJowyAxEAsDBTAakamICqhGbayW3PPbbRTsrsTf6sN2XJCpGcADvln0CBSEjqHncAx3vJOSXwgCqzbcMr4iBMNaYhKh5Zq1ltwDagd1SXHQnSjk1Jivg83Z/0B2b/k9pTKvrBq0UwkO2Hg0be+zqnQKyreovBJwaONvEhyUFPg2t57lCHLv7lE4eSXgcrsmJ2F0dCTKgoVv9CYlfknPDLs2fV8xBVAVwEAQ8J/903+6y/UQh10JgZvdTc/8UpmjMorFNzIyDBvd7SgTHnX/WP8vuswatpfuxzeTjUJiW4Al2ltIQTccVcQ9bUUpoJZebKk6C9CmZqluDqXwNciUCgRrkNsG21TRbawJXJdKHhSUwpA43bUlmi292Wsbm37kurFFjLyeZ+LxyQ5MHhG0Xe9xUMKt7rJv1YQTbGUMvlANykFw7RNfNzQDXic2KbMIA4C08nKbbCcPZUEAbVMBbAS9HPvlOw2LyYAeNSIMVtXAQjEJB756bJ1E5NyDmp0I2Hxh8YbfMz3qJflXox4AORTJe5jt3t172Zme3r3/wIEDuwaNAgdWAC5z3HTXXXd3SDZ6e2tbnP7s/1f5B9ymFeChji9F1rsLSjDHp5sqOAUHPoCcy2o7rUQMatwoNnr6iYDiHexaE0jYSSiJT9R6EpD93nJRl8k+IJh7BR2plktJhayPbVPbwEbwqo1dKH2nC8Avahb0hSJNv1d70KfPozpaj7UFJiAQ47psmMUMmn/ntsds+uHv8dSQW3l6P/3aAz7EhucRNDS9VZ8PsGOhICiEmb+ArTblZfvWamWOMkRtswWAJqOwdbMZ9aJOK4kLm0lStrCNbVMAULbGYiPTFiuRU2PGT3bWVlf9v7lDuiiW0Fd1lCzJXXj//v37Ll++fL5tFNjZYQS4/9Bth0aJHFLXzROwig4+VIag6+n9HvdmLwU0YQOeAGQ6ifiTgLiC3km/30iJZO6SrEbLbaF8K0sjvcmJesMvzgoHmkCUclJWdxcDCV8ygG1h+qFGfXZAM9vUwuOdhZ4Nu/r9Xi/tytdJxcgKVyNI48V+LRSJin0A/11YJQIQJRJjwv3Q3a714lOxCWfVqAUHEFwM7GgLhNcBIhRXxphiwxHbk07rFiNoCXVsISHnPN1Y3NZKvso0vMUUUSQ3peMg7mcsPBcRWu7bxoYUCLeofE93cAt6WxveeZv2Maj6Lj+8F6F7u/fs219NTU7uLaYA104A7oXv3b9v3/iWK+vruNTBp3+w7YokIHeD0o20vV17VBIF8QSjA1BFoyZf7lch0BmUskIB3lrFkeaAZZ62LV1t4ylmWEmuOAEH9udoxegIRVssfAgZJJQCo1i8ZaXhJraX7a0z/kH6WQTqUanvTvtt199v94MSTiB3iKIc5fREv2Z5M2mOhQnmqqDR4k2fYPr66VjQghdCsbBR2EbnJJDLU2Ca9/MO4JvVERdXt8vAL+mxQsi0SKyIsvvG9scUX5f3l964QMAdqp/8OLJisIOVFbGF+oyQKdqyrbBW/F4D0hnT2G0XV1sJCAwJoDwsvQ4XTE9PD42Oju4uMAC4ngSwZ3JqaoxIPrauda9ng6gHHT90ShEfYKsXfPn4pBcVW9T8N4JYEy+Syay/lBC8SIUpZBiLPYAa9FpvSiRWGmU1gDREGaCm2cenv7bsrEsUX85mrB1cHSTiAbTJv6jvo+05Cvxufzup30jWIsdZv88236JULzpvUjG01qT2xnssgJi4oBa4rGGw/RfYgmFY3su2DRSUE0BUlW2z4kfhXWK1YMcgARKLLYSkJgVXtY3SMVmBeELYw0qpVNmi44DpRQtZCHbeJ7AtZcYg2TW5L+DfT2+sE575SMdCd6vrqz5KAM1RYIjTycmpkaHh4d0tQOCOCYC+YWZifHyEEkBdWzUBiC2CJ/YQRkAcALppg4V3jn7f+0dnRFMNBWUYkz13/exfMv+yCFs6fdCiUq3NM/5oMd5YDCnKqFIeqrbpD1TCIHYgSVBV1HWIRi02kvs5mxiBBTDeUuxZLsd7FrZ84IfSXDUJtY00XgtqFwuhWfmkZMKvLVC0Pa2izoKrIbfUAcil6q2uW+fnSvBkIINGLEkNBPpa6l1+b1kfXySYNvETxJb1CPFcBk0R9GmPgn3BgW8B7ADMoIBzAAeNO7FdXjQVndjEYVDUGEWlNGAaqe6biRH06tz04Xk2RVvJB+b4+PjQUKezqyj/01mx0xhw9/DwSIdEQGV/yEAgBTaBepQcKBkQOs2jOvQkExMswExA+U3c0uNSkdccmbNtoWXjSkULtoz6dYPeUIWpY8ZP5algltViJFhbITHexoUtWgtBkNF2YQANTbLGyCp8E53wXgOvvxXFK/MID2LQJ3irjsrEpUGmOLltSk65BMz6cuA19KRDEAUcibtudrfEpKAsaErRCtkT20ZVYFXhjYOZwLwibfRID1uiG0E6MpcYShmQbD/N0xg+7VGxNTORKp72BlqXh5ojRNt6oqsW0TbZRBZBaxJhro6k1kVoa7KCNUIx2hY4y8RYBzaoOie1oKFOozpiopKLYRoFTraMAa9ZAUwPDQ91eks9gQHIMWCVZo5E6AlaAUH91/OZjYkWXHIMok2U/ZM0DTHexI2WkCAUdAxjjPohTaHVzDlJ6+UyEBsabxlz2GkSJUlr8lhSEtzYRkyxyWWHeBNdL8bRi/p4XMIajV/ELqCP7ZPIJIAKQUk5mZeg3NsPjEiJqodWKNwgnsyF7VvvmnuDrUHQduRiO2Egx6CJdm3QPBlLNDsEc6HMqRJUYeuOWUjVoAZEZauRqXdasktDO00EAIsWANUoWo/yWhuSlMxsMYYU/JZi50ZrSIYYmhgfgpW1vv/eoc5QA1PhpS06/t3HhEgA5roqAPeGTLogN3yTyj46jAFNFpZ0rUAQC7VRBBRiAoiPWJnCVQfSDVhLMUnU2TfsDEChj190kAhJAx7Bikpe0gczEcaq8tyqkWBrEYlQWHOZTEZKTsKyyigR83io0769l8vajjJZQo1XZkFOgPFZ9YtDT6kZJRHe2ieeOtmI5WvBmQQLv2zrS8dhrwnYi5UbL6Tk5FkQe0ougxoGWB382GyBbIP+20wqqhcviDk5gMXJSe2Y6O25v1dVgy1xBasKGFtMFQYPifCaew62jEQs+MDiFUi+qJKWTwnBCMDaJjc6bxk26t43dzgT8O4l9ovnxNO4yr3B7rCcgI8gCDJJPxtWfZtzMD6BfQJw1QBRURGrlCzCKDBOC6KkUZqxpzRVJ14+42VhLbJYC20w5RkX0G+8vNBtRFurSQFqZNhYXo8BrldfC3AMs2tduR2YOg0/w+/7ebuXzKp7SS4Mi80+T5AyMfRr0KM+QUxKyD/Rsxkv93W+cO7ZSQQv6syx5HYir2DextQknYID19Dza7Y4mkCHiRzWHmjFpie2C4UoLWSp7JN6+2LJSvHvZbGAKjAHgXVa3h0GEpvQ6numbNxLLwhIAW1ivBTVj4mtmpou6e8ZcwmAuCDU9lXDbVOAdJ0rF6tj4t24LhDQP0YVb5KsI6epwJwAKBmEFURIM3/J0gpFvILuIRmj2HbOt+XxjHAfzmB8Pm1tzbyCWvApUO/Wl7J/0llHju6M0ZsXpZyNKM9YOlyBQxYUCEOB33UBX/vAt1Fey4rDID5W3yp+lkf7RfCnWbIYW6brSYKbfikm6u9hBknzBmJWWEKxNeMHsxj2NGyBo6TQb3FB09dBjutswaDmMS7sSNvVibAxiS9mBka3guIWkqc9KqJWk9iD0GQUlhAOqKoFd+AgFPjCNXkOUh/SqEbGFJUnimuLQgFqdMQEsVVKAJGUZ20rW5Uo/SPQLiq5IwYw5kp37PVqcarn974y2a6KnoCy0o4GoNzzm04I1LpCzUO0OToJKLSYXdiStl2h1d50UsEWjT6xtQWFJXfSZ8cGU06ePgFQQ43mcz9i5Zy9DslM3Nm1B/iCtFa/zks2zCa0YFuBxlDxZbSfdfys1azDqHOaRDbZf9HKhRSl028T/1xeJ68H6L4YaMQF7IftdCVbjKeaMufxZyKOYwAGEHmwJbxsIyIxoeVGYKuo3IJRBl4DS9DPrE3vuA3fwRaJ9fK5KQAQG9wj7QMBejHLiFVjC62cImV2Y4X5CP3ncIXJacg0KjDFBSFVr+EWABCvVQGMUAVQJ4HOPAEALunjSJ4qAOrDff9Ym9wqxR0AOs7ICMRnCVNOzyTlURJDSm91XRnIkzlhFLUQU7Q4UKOC+QC2BSBMHmWyhrTlXB9beAIQkf1ArEmBX1iXt4KMJp/a/YJZXGCC3jwlUQSEIw7f7MwDh7R+bJvTCvc9oyPDMOpKR+NHSsMwMjSU2J2NxFSAcwPLYUEgwlYlHWzBDAaN3jJxvkHeRZUhWnEHPXHUbyKWK4hySar4d6nko5yisTkNlVuwSvejce/mKDeJp5npzIokl55ffjfpS2SwU9e9VIGXUwDx0qgCGAZoZ3LtpAg0HJh52jqKk0Fi9EUJo370PDNV0ryOBCBIiz/IJ1e0/7aiPKsl2UiKL8hdcP89tb4trRX2WShCRdMyEXU/aW3z/GEGIkCbzzxAYzleLA71tmuvp7dJ0lp1nV+vXLHFwQsvtCDZt4MptOyPUNdyMiJYiwCJss2mpqHdoBGsET4BADPTU3D6zEX41g9fgPnVNTh5cRaeeHUdZpeqcDMN2mocxIgre3rMyyxKLnsngkXSvjNQ+iK0XpIBO16oEPpBBgLlWTgY5ZdfT88Hy6M0y5uZckqB2kegXFDiRSKvn2mSDlm4VxpGInmz1edqWxjjQps8mqUE0PnQLYAHD9KJIlx62oKFvq9fK7IFJQLucYZGOi5jDQexkzoizbVQx7Npw8cvD/nbm0Zlfs6Zq982cSAr+dKok5SeY+fcrjzZUc+vyxPQNlxdUAW/R/ajUSVz9TGBdjVI5fGBbLh+XvwJIheiUkibibXmGVi53YfqxChXUiUzl076Xx4/Bf/rX34Hfvj8K96gdfb8Kvx3fz4H//jx++E/+8atcGivKdifoG7gdp9ZuUE3KGixBc5CcYrbVoxAaiXJzbkMeLT0960IPrRqMqAYUzffc2zSlkEbeVjUrxGLFxlIc80FYhm8Sn0oxlu/7jcWgfg6mYRBDTo1rOADYNVSAVyzBTB6pIAKCFTZKS36ECBVhSweSxZim62vb8KJ0++n8ZRpADssiRJOLEomMzNTcMdth1wS6Hp03GKh/CMWb6zSks83qZWCGg3GnBUTB9nTWz1ywzaYyPr8RcYaW71+qn5KjbpUdUAxBmKTjhjBtbC8rt01HKHxXFVFv8TMXORyny6tx2YU09iqPQuvuiz0E7jnp92Ov3vqefjhj54HGB8NGyP0ud2DJ555E27b24H/9A8PeLlwjOu33v3J38R6dGdF0ORS17SW92WFANc9esvB287Hx9L8CHbSFVAlfpsEWPuEr/Wj7tfCK0IYyxajaxJdmbt6NXH/vRMW5ElAiTqEEW3HVWqTYVUeBd07daiDdRilT6LNZgqtdk+dnTkdmIwcEe1g9hVbevk6tE9Rnx587uoi/PV3n4Ljp07HNylYgocXxpnGCL20cEF275qCP/r6l+HBz92fQY42tZ5asq3aEWR5eW0xasruQoNILeVA0fXpNNLrB/urtGojHMJC41W33ogJTzWQsHwJ+Ay54D9+4gwsLq7Aytqan9Nvdbd8QNMbT7RPEvH0/XpsB4iGTXxwqkbIHFLiKgw8kWgr/ezxE6fhlbd+6R6oinVkfAL0nvV68JN3rsA3PgMwNjYCYyMjMDo24tmCQdClYOmJa67LUGz66yHq/rsRa0YAt1lSTa3lFHvz3FPXwhtCioYEVropfAFRsVGN3EyFIJPWjzstnuUa/2TVXv93z30x7hqNZu3KksUa74fllTX4b/5iFk6eOeN/ZvfkJNyybz83qeE0b5iEEod/HP6rxy/AvXccyvcx5mpPLcS03MeIrSIp168IZMNH0u+X5gOht5SuvcGHPaWEyOmn73n/1Dn4m+//wKsHGcHyozeGc4AXDOUljQjiUVlN206fufceGHc3oZJzUhJ++eRTvasFQfMdMGq0Vu3IYwtxMKM5QWppy9tW90JJLskqav5bq73imkU12ZbYpOEBlGRmclA6deoC/NV3fgCLS8su0YSlD0+scv+rhiuvz0A/S3brm/2g50e2bNZVBWYo2K5vRyttG/kBk+4a0s17YWHBXdctAC8iISl69As78IuTs/Cf/6s1mBwdgZHxMZieGBfr4DatbvchINBVtH2v05p3rGSipiC9z0Pu37skX+Ve23b8eZ/MqvD1cUpyBEwOdTylnK7BprvOk+6eoX+fdElxtduFCVK+cf8+Sk7Urj2ccgG4tL4Bu91z3HD3yuTYGCxubMAEfb9LkgempmB+dR32TkzA4vo6zLigWlhdgz2TE7Dsfm7f1CQsrK/BTdO74IoL1D3u98yvrsIB9/eltXXYv2sXXF5aggO7pv3X6fsvLy/DLXv2wJp7Hv/yv5jyGg3y4JFNDsXFFXe9v/PNbwHMBDr+Z267A0wdWj5uHyra1FQ3nPu4AnDy9ho+dcdthSm1qFwHjSeaB/1A+uZOFUDPln7cIFuB3NOF3XIM4ysMU4EqNhAHb9oPX/n852DdvSHeZQZYLjln/ACeCL9ADIj6Yw99wesHqqg0qMlELUmusO4U+kGQG3JByBhE+2VhRt+PkSCHK/m3oz169o7LWvmIbYQhMcfnB6655xfmZxHjIFOO++67Ex67+ICvAug0opvMZ8u69srLdBp79p57fhvuRhyOmgv0sVX33JtauTevB1tbPR9w46MuOcT36KYD++BnJ05B193IFPBKksy3CUOu9NwFIy4I11yiW1xZDQEelZxNJHRtez/APoy67w8gMNGbt1xQD4WEUaE3Ghl2/95z7z1NhFbiW7jmKorxkTFXcGx516FL7nG8izT9mPv7Oslb0Q1EJCX3dUpoRHelSoRYzT3XxgyPj0Dt/r5Br88dIJ0RlxRcUJvhDiwvrcDY5BSMugvdoyqHlmbcfbSxue4OIvdzdC+SLRpdQ/K2pL0Jd31J3GbTXacJl4hoj8XG1s777RHb1SVi+v5h93wO3HzAvaTbtEpzWSW710wGng88+lDYh3G/885bDkGHfn8kdEnQUN6J9PUDezdauAyoWJ8lAKh5SOH9suUc/zoTwJYtGHW6FZDKurV7490FomzIpWL0Arjj0C3wX/8n/8Tr0PvRYR3IJ2FB1cY/4yzXINRpAcZlv3vvEl7rNpFvyqmxbSxwiGUdSf20WRzyWoQN7qOC8o6NFN66SU2p8zXiZRy982lzQSBGgbaV/FR7WfVbbt0Pf/anfwxr613ft9ONSc/XO+7GtsOTtHq1Bx6NDT0/J5Ug6R0WgCjt0IlJs366qYbc9/2bv/sefPPvfwBR2CE8uHvcIXfif+Ohz8PD99/nbzBKBpPua2MugdDzGKaqgHUg65DQhjrGJ2v62parRnzCphLZfb23FYRfaWuNWhsvV+2e94Z7PXSak08BjSLXuhsu4Qx7oVhStyEbujH37yR7RuNKSopT7nRecl8nGzryqZyemvCuRvR95Fg17U77K+60nnElNrWde2d2++Q141rJ+atLsHf3LpidX4Cb9+6BK64f3+0SxNWVFdg/M+P/Tt93xf3ctPt5Ov33uSR4yf39wO5pmHWn+L7pabgUf/7ywiLce/gQLO/7smvPAlW+wrD/4nUwoho2vWfTBwH++X/7jr9eQRtjJIF8qVVJI9taeWTefOtN0J2ZiuzMEC+U9GlatNXddN/7ZEvp3/g7VfLbHyUBdH2JF1+MBgJBcfup9/TxVLHOftanozfns/fdFRODETN77XtPtFbU2s6wud2NstZ66SIDfJIy1e6vp7QwGygONHbVbQHy+KWduhYTD/lwUkSiVoried83smfrUPoToFkLOmRtTSoXuZLouhOQMveku8npugy7st7rLtggDZb0FJgDYbMOG58nxoAiu2MEKcbGR+Ef//HX4eLlOXjpjbdCleN+J7rA+4oL/C9+5lMw4UpdWgOn4Jty5fKuqfBJeMDISPASoCmPXwizWTaD3mOTZtaBWUneArxfgGkcZuL7XflrUGGlcAQ0WmPfYJA9r+LOBJ2mdI/RDorXOohCMvG080mIko1J/Xr4PrKx67v3k56/r2hom7Uf1tb7Ntzr/Hs8wSZWPpT8mHHXjzFB12d1cdVPUehZuhrGC990bKhYQICiv/+VR32LazMqn8FazNiUv1ainaUEurntAp0qPLGy7a8HHbaxPW8qdpXmqh8tAWy6X2zdRUSUZb9i1WMiwAQygsllSVxHpbd2zfVn3iNAyurFJ45ihmNMqZcGWpcL2/XzASTZpvSgL7ts28Y7Kwc0XuGIgj8ToaA1y1pApdChS3+ryCWe34+8Bh338j28UCdWF/+8T3z9YN9dR8qnXx/e7uUpAwjJ72KhRNaDoRQMv3PRlce3uLbsv/yP/xHsdeXp9159A/bs3wX/3iNfgEM33eTxmPn5Rf97Noa7foeBWY3j3TGvIkwlbMfkmX3IPXX23JM771ZMehCzfn8UOdG02PZdAT1FEXN0VkkRYp7WYmPPwgjopWQwpkcwWEh0SzIPFu2i0CDcCi3vkLtuhMG4nie0ulTm2oBzUWuS6FiyTbCcJK3XycA6u0vx6jwlR5/8DDNjw9cJH/NthTHpwNVcgERWc7dOvfVREsAGZVH0fn4YFk2EjTedPAwQ0g0y5E4p0zURKTV53RdtA4/nXpyJQVjpN7wcqclxrBX7AfJ4FxCkkBmrFTOq6WjTnEr3hbkG22lL1rAtFn58E4O2wT4Te9Dh9Idsq63aOlsXm4Eg1I0D5S+MHPu+p6cTjAREevymRzDRSJq1DWUl8I2TZLXDTb2+uQAHDszAH3z5ETjy9jG497Zb4auPPAizVxZgeXkNtutt/7t68VSk99b3rcbE+XQN21FjkMeynag67BOAERx3m6nYiJh29RE0KYbBreSdVHiv6EF/pmSz4lBJSEIDSqjFQBtZhgHZuLOgAG/UPbU090x6NSbO+Y1rjTowRBVRJPQY19IAVy1ydbgOE4R+rFyoYuIWwCdprmgj1mIiUcTKXQv3+zc3wqHqE0C/bm0FQlJ0d1FOAA2J650SwGrPNb0VHQktIve+p+lkc9AqeIBDxd9jhPOOL3+ZZlv7F5fIMSYz2fSLsKFNkNEiPflEW6KqACuWWlSZji2bgTrb9HhdN831s96gXh2IF1xWMEqhzqobzNa2IZ3FkuilwWi4getwfWx+CWGZKEwiWCtQ0osDp0Av1XgwFbEVlFxaXfeVGd28NNlYc/311pZruWwv2IrRfRYrj+24zUjS8D7AqXz3ux519nooHyO6QKNc22HqeBK5QK24YzQIZmIeTXZfPD0xoEdnFLDxG7POXtEdAraoCpl0wlu5cmwZ5LVQi0o3f68kyoRWyF//URcT/Y57v6sQ6KS1UAzsWC+z6nPE1wEAj/eRSTsnOVEZyFu2FgMWsLG2GqrquIhXVqbhv/0Y393O9UZz6WXnBEDAwWpvu2e9/5/orxNd3j1oZyiISdBN0sFOwViyEQzB6HFmVAWh5/N5uaeQQvAsuYbgbJunpAQs0aY3sWEvpLauw+kRRDpq39f1hTNx6Y7Dl6G2uYeXvO2iGUkEqb4AH3mBiAU7ktyJzZWDRW0GbvzGXghmj5ZXWCyYiMGv1FsUFZQ078U47x4mBNwbtfKiCZF9OsQs8DctEVb4lAlW75iUg6SQJmJhslLgIyB4ASiTlG2q5IAYN9fxMfosZFJnXCVgApwUIs+zjgFrMpfA5wUrXX5zgWbiBiUL01kxmTdCqyI9v9oqk1maHHhGng1rudZWagkLGeSWNF40up1N/Jcq0sdZHFc8LG90Mpbjnsfq6orX4qxiBd7K5ENPGHP5ob8Bpf3ytazB3E2xtO0yQKdTdZgEIcu1ftwg83vl7oQgqq8vAmrJvrPqlA4UACN81eIpX2FDi0cLe2QwDcTobQepVmjQ/8phnGXc3fq+mvn7klbbYJGl3e04XG8bsgoKreVxH+S+n3cgeEcgrTPLqibaQNWm9je9L+NdoA4P0Q3grjOh/1VfrSfYeBMHNSZUu/Ih+dRqS5LEQAgUs2z0OjTkyT++teuHm3Q4fm3CfRIXY2R0yKPwnchSZGzIWz6CTRqPUhG2Sd+1TX47lGw+oYvHASOVimWLoDbz8tIVL6vxgpjED0QVL06soQbWlEhGWsgQpJIPbboaCMpKHeKzeMfsSpiFYDtXP53ymCphtHnVmYlN6b4xKERtEFZXVvxjhunQdgOf4sd0h5or4PqrbcF/rQSwvNXt9nIFoIkzNLJhYRD676FREwyQTVPytI4jKHrRSX8v0SZt0WcVvD0jqoVQlzbEfkodQbW8VFslACxfvyf2uOfOQJ8V4g5t3h65FZAW3+IY5qcWxfp9n548yjLSz+V7etnxTVXqvLGCqfx4DwLyTqWjq3/roVDyo3AMUoYbaAt1GUiy67w8ReM2CuZQ7lsYJaJWVHmicp9eHyH+xEijERyZUA6PDYeqweNCuQfmGTjKJRwG5BIkwC1TThDYxrxE1G6NqK2hMNNB8qqzd52GiNxXIHX1MZKSEGySXOPlJHk48ZREPiefeOti6cjahkclAX7U//vkSNfHe2YG+rTe980sxNAS1ZEHyPz+8D39WPb5MXlsD+q+hD5cBbCyCrumJsM6d6/fAKn56W1vdXu97e21lgrgmi3A1fWNje7I8OhkM3gwSIDZsOhAAe4BkBgIyY3Wglr1hcLBlMAxLlUbYr6BJB9edC0WduzO83trrWgcRWah8o2/5idfPc82ZKqzWhstwcG0cowJmGulV0VACeTJ72+WOgVq2hIEaDUslbuj/p4kDr4vA+ifhwD7tRK85ImBWsRRIqU8RY5r27FAGXWn+ZQLbgpyUnYmdH+UxmR+xrzlv398bNQFfkgAYxMjriJwVcBQaAd86UotQtrDZpTdpNbK9/hG8tGyb2EdtwZUco4jQsnAlOpQJo6RGxt/BtsW+yAvRNep31dHTOHkDDbK2UWmYppqCOTfgu6zecu+Q4zITgBLKSaGaJcC0/ZbKh7qeFNjRL9NvHESKdwKNmFM5EZUMBbDd6+trcLevXv814gZ2kYCome7tr5ORcAKZOLpdbcAC8vLK92Dt+5K81W5eOEtpaNBCPXOxqDePY8upQmbRhOZVYX7XZ1VWeWJCMW6UKEuoaoG29Z7M0FHPC9WLdmu+/7kJwfdIGyEKeHkorBJFuLWBZsi7HneD6zIm0/+urYJ+EvLym0VhDytMXWjLgmY1NEMMTpdZ5vpdKop51l5o1aFEq5Xiw1z+HhLENI/SrRfomAPBbIPkWzo5B+fGPWtAC2okAItCuFXiCNAECuxaEQ7kjYbTbHtVyzPgEnMGMMbL7Hf5arAYLkujqAgPGH8WkqJyYUl25AyK9D9oGjiX4NBoycRkHUXjBACMRVjJeB5CEm0Vnl/UoXSYZ2k3PbEjMhTPv+e11a5aTEXgvGjbrfrkzZhAMS4LLmE/PgrK1TId1c+dAvgXuD8wvz8+p2HD7cGAgU99TxU8tCTMWLnO4xTMruNXizdWBUHWz+QRnw5D4Lam6SxhA5gItLEyKlaW/vYywYMwpZrz/18igcKa+AoIEKLCE25yWbFaVsP5BAkAE8KeUbUqhZVhtzfLxNJqQibtfpQtDxG9PzgES4JdoaxWxVvvDomrAoKT2TPtw8HVCRtuZuWGH9bW0NJ02HUVQdUKRBbb9h/Gg8Smojws7oyssYNZvNOdx7mQDcSfsXGYpmNQJkMTMsLPnEi1q6sm30TUvSkRSBMCYOtKjBhCfH3V1goD0nQNO/6Jo0+g015k3iDBv9LTmhVYvv5U97kttREUljNtvEG0/jPxwVvkFaogOcs7MoGMX333oyGKU70ByinAPS5uLi4tbGxsSQSQH1dCcAF9dzsxQvdkZGvZFUUgQEQP516Hvqk3f2hKvCOSf8ObXZb9Tp4nSqylgRPJ8C8kGc9mddhWwIrvbMWGhlZLvOk5J0G4tl23J/6dS225TRRR04j1A2BUfiknAzUTeS/b7N4h6QJQ1uZL16DHFYapW+S2x6T1m2j5FaqRsRzNXkuXvHJz8OruM5roqw6lfbjo2P+PSJKr38/SWLaJ1oMhJ/Y01KF4FeUI6cd4uYmn6qGgSxh3a7XgvX/pxVwQdk2rDYFFWTpgVqMEQvTLhNAV4wGAyjAQyOCugJQc30jxiJoUCk1oVD1Sduq4nsb6zVYpSor29jlhAFxfZvudZ+IY8IycW1ash39e2owGk3bOPLL4+Eqz67875iYmAjboVtbLfsA4fcuLszXK6urV8vAvyYGcPXq1csfnPxgm7KM146PAqEcHF3qE73xwLBXwqEZcoU2ocrax9Mm5l8a79XhBaNSAkJl5tlK3TXN5RrLRh2c6mtZSQTNvJ533rFqQUrt6xcMfSuObFsw/bBltlDL749If23lolBOUmqR0+rVZANNSEQqzyY6DyaRfS8TFo/xhKGnZSUPHOZcxVp09H5uxfdteHgsyEzFkV9Y/YVo6x4ALR/4qFdxK2FbiUaz7NSJD4X7DmblG0wVQWIP56BPnqsm/04jqkL6X1Up7AMFB4JBQJQb4AyQmTap87iNCqiEZzHSk23igBhBZUSxgswtkJazo+ebhFmjKo5vq2u9XO8fg4Vb44FDhUDfYKrUrOcArMGIa+GmJif9e7y1tdWYkXvA2D2WK+Nxbm6OE0BdYgEDJcF+/MwzS+fPnz/dr/uWgtwUUDplHYxosjcH7W55fXJrbWGYYVPZX9dF8NRCjKMvMIEyVUnOfdodEIs1NpT5yKQbPp29xl7YpuvVEpTT48ayDMcy68iys52A7JOMXxnw5Bmb3tw83rdC1chqdDgGghDuUhTURGqRdYsvw414ztkoJYlz8FtmxDVhQI3n/FUn+ymaeCJKLDE6O7GfULgPTFhhjZyAQjhHKNvy6AqbDszqgpu8A6C85U0gwairbtRJXJoVW7kJJ6S7UkseCWt0LYyAlYixl1R7ClwaxZo3Rn0BMJUyJEvvhin9tzBdRyyesDEmt3cacQ7PXRrriPL+4oVzZPkFk5MBn/fr3fIKpRLS9K4uLs4tLCystgX/TgnAf5M78S9ubmz2yfuvqow6HakCoEUfKgtpLry1vQVjw0Np/mljtRBwCxu3pAqaJo9fIOvmoSr5pY+a6PfrXLpb27yt+HGoYtnubafKIyvZFCAjglpMShWANAPNrZhIUjYHd0Ry87/UgkhiFWqZZ8S5yTOl/hsy4osNqS3qMQ3wSRl9oIXQhR/n8XlU20i+jAKtMaDpJ4dcjz88OtQwbeGJAcRSVUvjmHRN/OOw14xU6kUB2HEbkI5kk8RgUD1e/lXha5X6XWGKnEd2TE5KP2HyopExOfgSixAxLZtVemk3BL5or0wq+zmoTSrz+XWbSMgykp0c8fyk+8CpuQrnP/8pR4iJByA4CigrPqvHoPS4Fy5c8BUA8ThIB4HiEBv3jyXFKnf2bS+0BP+1K4A4Cjy/tr6xRconyt0nPrHwwOhVa2hllUZEniQSQQwbN8NsXEut+7ZxsnMwJwDcIDRqAEGXrfsatQs3eUycYuZPCD+JS1ASaBOBldU3Fj6ziQacRn9Ws8IgVxq5seqrK1tDyVDMZamk/2pbbRScAWgIO3BgmqIWsbJV4AUdkxOV4Rs8Isw8UiN5sO7mNlNa4gmP8W5GQCXqnZOhEc/UyFIDNc/eRHAPSychlIy4AjtgSTlJ4RWHhzFtdZhR9GH/zHPWSH1+JQKKl5ZkYWtA7+eHisRkazQQSYq3Q+WYkyXTWDfB6JFkSECYrj/KCjDeHBXkpSUTD0SfZ0XlcuXyZRgdHfFYzMZGV1G/GZuhv29srG8Slhdh8H6RCOBaCYDAofNLS0sb9GCVad6Y9OBhWWQoLAR1MuhkCzvYELiB+VeaoaSTtLbZ0CIMzhubYX5eKnzdOBBTPLm/ky4Bue32rf43rZUveflNgcU6aY0VWIRhPoHU6cvUXgLU0nqm2l3AZjgLtlgirmCWfjY2nSlipCmvm4ljEYYAorJCbXU5iKL/TxgAy5jZhKQzOGakgCXK3hkTco2d3EMj36Ap/FA4XfALiTZeSREq/5xJ+wNVOol5EhH+5P64cCGWoJ/AEPLl1SBgIPeYmBRA/TY5mbTeo8KEFfZKpkeBHzHWFJMNRm9HQEiVBi/4yL7SCOyaCyg0Mn9koRlAbbJjornL4uIijE9M+BHgxsZG86CI05OlpasuB6zPtfT/cD0JwLqgPn/p0uzK2PhYztji5zc2Nj2FlFoEvw/AK4sQdNVslI3i+aXhvQCTkVY0xVjNNJtKW/olszR2TBDJBNNTlHt+uaW2Vps2CGJOY3kI9YVTpKWi9/fJq8/9fhjx+cCPbh1WUIKt6MmhIP/IXjzZchVzayiswzJKUGtPkzhKQvmO1qAstxOMJh6HZMRGvK2UQBqtGIYbvYGJlk3m8xjOmDZl/9iGGZHcuN+FTJ4xCfSsRNIRmgaVfg+MmprmRKbNS+NJa1GV+j5eMSv5hkkDileT2yvfRlQGJIySxD5A9/AmZDF/cYwpr0dMYnEigla2Q6B2BgxqFjtvJsp2lEFBGsFPTU35CcC6i8GSCc/P4dKlS5ura2uXiwrAXm8FYF12OXP82PFVYoMR3ZGNI/ikXHfZx3hW2ajfT97e2gxZDW0idrBgI78Lvg3o65OXEV9kME8Cf1JXXwRrU3zLegBuOyYcuRpqbXMbT/1ZVABWJA8rphLyZA19Pwd/oPzmgYbQJhDjJFRKjYVLEmSRCETpcidKVmBqcdUIJH8+1IEHwfZstRFjLDrVTJ40ePTYVW1hkUTgEVGFNp7DCcQKybtKEYe22aDkNt80wD4jWP5GVghQpYSfqOS5JIA8A4gbhhE0RGTgLZbxjHFo2CbtJhjeVLWC7s2ZEsO0wwuaCDyCT3gUfl08zsYCMc5BHX+H2mGP18Roj0TWTkGrISEU3UMCMjHUeytrG/7A3b17d1AcXt9oOC7x7798aXZ7YWFhtqX8v74W4Ec//vGpn//89TOubLJjY2MFEAj+weljYnw8TQImRoeyPUfknddW8v1RlJaCH56K7vJ79VIpxspCdxgh+L1Ed1/YZwn9/xra5RJRGEgElm+d1H1YaKHkJtRxz8uX+nHon4JfknyUDbl+dOmKiyiNMErbaLoJcmnMPWkKGvHuV+kdxQz8YcoSwNNnlsf27kB+HyDT0ILhhHiuFUThieJkk8QvEMxrtf8u9R/z6WRin2qx0sWoyT281IeUjXoYRwoacUx+RjUFEPfwMbcY6SRmjkEAT8OYE1XQxXIutR8mOYGE7JH0K43gbsikxv28CfsEfiRnUHlzV5itKE3O5ZEWo/0RUiXivv7BieMe/d+7Z4//tzUfg6Xtmtdw6J89e2bp1KlTsy0YwPW1AKurq7WrAk64MqNPQCBRHCXqTg++udkNSxBDJNq4CSNDcW4sSt6gGVen/XkrS21emky86XL6J8tSq1cBovJsbQO7r2+1UlGLzHvUy7Nq/s+nfq2dBzPYV2dt/lrtOsTev25OIlIVwVUOogIz0zMy2tSIy1IWMjViYAAiIWHx5mGKQhNnwEIEA43uYeP4a3urB11XAVQCo+ORIiP1le/HQaHnEVvTVY005YxHmycKWS3wgXGElgA7ym2VSa7IEphT23+iVM+tjolBLRd4NF9Bm+Iy2cwERF/+S51bF0zXDrPFXUwmKCcRaZEnJ8QKQXE51KfNnVX6PnE/mNKP0VoVpHT/nTz5QSIAUeytrW80+v+wBLRFAODFmvzDPmoF4G+5uj5JQODY+HisAKwECf0ToItOvSSBb8QIrJNRQh3lvoN1mHcaJo5zOR6zJk9O1MhJOtZaJYXF7xmJIWz1aq+Nj3qUqqS+G1aPNrcGmhko9w+woCzEnt87tmirrowxWF29qCogymIhqDVZ/RzzjR4AvKjH4o+oaLgqVxYF39Vz4pj0ox6fqwcUohkm4RfK7MNKUL956suqTEpzWSPAQy7V01jfihDMpz5WKDwMRaVQnOf8sKkSQaONv2JkVQLwzGNdAYqwAIgpQL0a0i4LgnaZUoAoBGl2iVFViAnMU304aDU71vmQQc6tmi2co0wbByZWvlcuX/EVALXjq+vrevyNWY5veXnJ/fO6PP37bduAO1YAEQj8YPbi7NLkxLinhUKBlq+srPknM+pahH6v5/v/IYPCHgvUTaYQePnuRkpnQ6ZbOffUeSpInHsi3Qh2oqZpZh95TeOzKVy54M4mpTYDfaBP/rTzU9tcBUCzwlCgodI0bFYdvE9f2nBasIVfXfGmgPDQYy48B7+RSzPaz04zDBGGR4Y8zbcXeQwYZ+WomJJNUkzuXoygHmeAMctcZkKLGpbL5suCot5icZKZFo9yVH1+LK8lu1CygyJ5J4nTSMIOE58Mt2VG9Pfa9Ug+dwSEqnzvMW4SiuEHihwtg9sWUtvYUqnK4ORvJyFQ8ojYPT3tt29XV9cbd2CnCvfUhYsX1ldWVs7TGRk/P1oFsL6x8f677727PDU1EUg/KQmEb1hdW/MXn7KSpwS7NmC400nChoEBaPO8GAWwFzebrDC1TLTWBmDHwGJoJSj4+7LsR6HaW9h7WcHkSkCLaLCsbdlAqPUTCEHfVyYZkg5UdPiSZqimDFI1nMd9WqdIln0FmCb22lUw1gGBhiiVZbj8xhZLWJtvbhI+HbKBD279dlulyErq5sUGQTkHiFxasbnXzyepiSOyvDEIRQuBRYbJj4/p/eI2gceSRiQNJbkFUvLLRFFUVMAgqg1BowRN83XLEs9YLGthzhs5iRW8gIYRn2XWob63ZV2NbX/Gx7xw8SKMj43D/v37/XMm+fSy/+fXe/bM6a0rc3PnigrgQ40B/UM/+eSTJ376ysvvEgju+QDJQjr8nuWV1QQEEhawubHhcYAANNU+UDHNzKNrLkqF034qcWshdFmO4CVy3wf248s6+HKFwIJ2fUZVcRS/0workRoU0s8GnIG/EMQ7M7gp+ntbgn8awFTgZ7pJUVwHrnDETZyCHNV2l8F8QnMdiwqYM2Libxvbc5AKrtpLhD/86bvgS/ffC+MTYz7BlaIYubetRG+OahVWnZYIhc2byQ7BCknHAhDF4oQXMuI8ZxfPzCQNSkyXAsXIDvjU50XkWhN2TOI1RMzAyG3JDMKixDWYbIS6FRXcKcWAxtJbENu3SOuWvr+kOtFBd/S9ozDtTn+aANB3r/gEAEUSIGIebp06fWr2xIkTXAEMTACdayUA+tzc3Dy6srzSnZycGF1cXPLrv9wK0CRgxSWBkbFRT0+kGeVkxX2ajcIKUVrJVMW2nT4360hbz9Rx3qmvPZhko1hmHQUy8ymUPdZLkY2s1a83/Ji/j3UOppKlWCcdv34C+ixokk8mkLS0IGL9UQY9SCXcBPrFyQj1+WKRgAlAthgtIZ/aknEmTj/EvKKrwisaOND7dNuhm+DP/smfeKGSA/tnfDI3KAMSm+NWzHe2jdUICoVeIyjDqi3j7cUIexsp+yWbAl4nVk7CkuUm2IVJY69Op5+QIA0oe7yFTA1CfIZ9BwzIFasmtpHzrGrtJHl1kOcpFt/X8iF9DMs5kRW7NHwdLlw4796zQ54CTMFPNGCdq8Mjra25qFxfPyfK/15b+X89FYCPk16vd3T20qUlKvMDJVi36EvLq/5JEV/Au9hYWg822fRArFvaxsJNLOsjOaBWN4URPXqdVHFr3oyS48WSdGOlqkBp7QxZxEP1/fmd4GRCgJ9X5JWlfsEolLr8bSqc2GYyygsfQqMw9+smTwZMLv2h+P9EtDGoteWw0M9PyUXe4MZzMu64/SAcOniTF3gxysMeVe9aR1UhTBRbcToKlqAMfigUapDn9gWNGUTQ5yUo8ZosJFqxSRLfpmgbdKVh4kVl6rAxqPwD5NQDMBuXYLHUJIl8iqvfmJyAmtBgyySggecU1RY2ufipuiQXJWL9zezZ42ONTEcBNPWaJj90l168eMGd1ytn46nfGzQCvK4WgD7diX/0nbffWpie3uX14Ib81l/+lqXlFf+Lpnbt8pt3mxvrfi9AbwYyiBc58z7gw3MKJWkOnCzTVacZNdNsPfCnRA/K6UBRQlmND0DZbxnUVyGOAwPSXyeJbOHfpTj/WAKWWPT/otPLwh4203KhwALiNZE/mjELnUhMAZyBGPtlN97sEafIOqzrsLXtyUDBjtx4HCCsBIf9dZNajyoz4WSrwriEAMuMFOxQm0ExCEW7JBODrC7AgmZyCrJQBD7UXoERXH0UvHy5fJVozKpew7wyXAa+7OubrO1Wz22ZMErXKYSP9kH3y5kPTnic7eabb/bP1wV44zfyaPP06ZPrc3Nzp2kaWLQAH6kCsN984ol3X3jh+bepSp9I04D8e6gtoL9N0nxyeNhnqpFOJGxg1DuLbQBEz7rAADOe7m/F5hMbT0itvhD8Nun1Q0Hy0ZLcqBh9scZvYgp1DlBbC6ai3DqQW0OCl9BkKhZvb2nQIPrvVPYj4+RSgcbwQD/fSRaalFUjVj5tlj5La7IopKYwzNnz14zAKXizLpz2YcPNeHGQKsmBV3Ft1eR+XFJiuSSPz9uI1eLwnESgo1BcEsnLyH0D0Imcgbn0GGz3jcxvKJaWjObPp6rKoBjxYUvVkglNcmiBRjGPVVXZOusH0MQs2MGat+3Eh3bD2nePhv5/j+v/6Roy9laCgJ1OtXXsl0dnjx49+oEo/1v7/+tOAPTD6+vrby8tLm4SB5lGR/I+Jy7A4uKyO/VJRnosnChRMZhJV35c559FlZyB+e6vk3IMNhVz2H23rqEhJCW48m1a/orbL9sAifpLgb66VuPJIOKpKcmp7Sg09nSqx5YRnC1Gffom5VPNNhY7CvTdcAmcF2w8zRVliRzbC0E8KVZ1PBJdReJKJ87QfXU3Unkrd/rsDFee++GdnirRf8uTUHIMOKiN8P4RPAiU1wZA/C5UMmxVqjoiAKkWduJYj7kAvA+QgjW3OSnJYKseUePEh6LcH9DS6x2Oovxvqwxxh2C/VkLgz0uzszAzM+MJQMuu4t4odgA46S0vLy2vra2djoG/faMSgN3e3n779OkzC7t2TcZ1S6Nou1ddFUBlJCWIrmsBtjY3PA4QpI8xcX5M5LOzM05QeoXM9bdatccv+NAnFFt/KSAzXMVAH4qVW1Q+AHn7rZwu1BEU5ElFv7aNEV/TI1Br39jWdG+b/AAFJqGymZI2WIhYlP4YZRT5VDSCRhqXkFXvo/ZN07zKcEtkbDwxw2lPrd1I1XGJvOMpwiOdIS8CapLbbdZs8AFs61QZ8HgrI/aahyAlw9WJKdqACnO5rjQmBZU4l/sFxlGg9ooNqMawOVxNuYwlOD7YcuJjUebDDpWAhV/tQyaIK/Pzvuq+6aabfIwR5lb2/5wAzp45s7y4uHiyAABby/8PVQEsXL361pEjL7oEMAWeFtzpqEuwcHXJ3xxUopD3+jrhAJ0Q3D3ICGzqqdlQUk7MrAVh5ecDP9Bv6wY3SLoF20aeFplL9P0sTpL2URX1m5KJUVlXgn657NSyWFm3zyryD4rAty1Jwyp+i1GgZ3vfj+p58yYlYiY3YZlk4gKPTYW5yRTXBOKhbxECx8MlgeGOVwymke/oWLAFJ6tvE3cJQPTauerI670oqjMWPbVQEoVQjwal6Qdmaa5cNdR51RYybx+LM91GfEHvIuQRolGlvpj3ozYawZZTuyrQegvt3/dR+/2dKoKfv/4zmHFxdavr/33LvbRcVIghMQ4NVfb994/1zp0//348/bdbSEDwYcaA6fn94Ac/OHfLzTc/60qPz7gkMEQspC3YSgFJFQCNJkZdciC5IloMGqLysqqyHh6vlRq5JVgnswpIktc2yOvXViChegwn3V2w0B6wVjLtpFouZuOO+JtqYcTJOgV9kQCgsCvDtjJPAX9aZETSSrWtAaYTzUKWENdEJVSAVqD52qjFx4moXChqIdjYUIdUykTT5pCgpZXY1vmKrBNbDXK6MbENqDpympcJ+ZZ1MbMdF4jnz+tukmKbRUM1ww+EAlIATesI0If13kQ4kpqAImiN5OCyou+AE49l1tDsHLR4A4J752AvGtsCByDg+/TpU3DXXXf5rdu1tXXfAsgDj+Nqq9tdPXXq5Hvnzp27LBKABADho1QAqQpwbcCb5y9cuDq9e1cSbOB/pvHc/MKilwontLLb3YSNzXWvEZCZdBxUkSHo30ujJb+E3JaNtFsspLiloKYtbL+TsaO05U6Xqk7kXyuEMtmxJ9CLrUb8rS57lQW5ZPwVgGGDlZiYIOhVkw3KGb0R47CC8sIxyuo+sgpBXu+NaLya+YvTNQYV++ZlEE9I8Ln/6Hhxl1ABEJhL4ybyf2R02W+3Sd6+alG0iaYMaoYwE0lIYSMZu2BiTl7XDYInaHOVkRd6opQ4SgwlaxnIFsEUZbsa5e0Q5L9qoF/fB+4IBi4sXPX/Teg/0X/J3r0u6MNc/l+4eGFxeXn5RHH69wad/h86Aaytrb3x2qs/vbJ/315vGjHUqdS3LFxd9K+HVhXp9CD10o7JdXqiQBI70Bihd54toULZzgrCYrW3aGFsOdxPpzwU5I5ovcVbfZEcUpdAC2R13zxhEKUsaMFJLP3CCuBPrQOXA+Ikd61kQBVbL837a0GkMbmYRRl0DATEqopn+Eaw8Eohjya3h3zuKi/vVrEEeJVptHKSZ5LsWH5Okj6c5blt3v9HDb9x4jBa6j+0hUnwyeTXYjh5QcILEmBYtAJpjTq7JzQDH5v9PQwY7X3ciWCn8v/VV38Ke1w8HTp0yD9PqrTLBELXiFq148eOrl+cnT1eJID+jUoA9snvfOe9I0dePNLtbvUIC6DTQj53Uh8mfvLEGLnJjHu5YhN99JJaN4tgVhWr0Ck+PvsP9Gur7LMlsUSu11oBCKLq0ETqiMQV3qitbZOeiXKsWFp5N65euVljoUQBLVjRiojeNy6dWMlgU+yzpvqwKfCDzPRD8f1hkccyCh8cKAQpRgeyP3Ur0JMDPwaMq7rEBTBV4tAjZIkyTc+10RcQi1ZEtASChMPtAWMHiNgco6XAt+0wm2ra9dRFXjMUeA0aPcMvgwAHEHg+yWCXJ39Qt+q78v+0TwCTLqaIdbu0vKIOC06k/X5v7b333n3/2LFjp4jeET+3dwIAP0wCSED5xsbGz86dP7dEfOSq01GHMJmEUolCACHNLDc21mFjfTWahmCeq6N/whEMrNNYDhP11ioSC0g7p8bFyo66bSWV/6d+nXTVFQRf52V+z/YrFIZtub9faooJ+axQglsRoJhaEnYWsmljRKr0Y3Y1glJgUu7dC1kqYY1lC86+OwsCSuB/YSdpAoYxnlXVlsQpgn1YXlE1QugiJHCTdfBNnrtI+q4E8vKYDxubdUboHyaeA9t0o4nbjrpsZ5QB1d4BqlPfFCM9CVUMYuS1BfonU/pfO0GcPX/ex9Ktt97q/7y6uBxEbhtjYks04cXFpaX3B5z+9aDH+zAJwLcBq6urr77y8iuze/bOePNIqgJkcrk4e8n/uW/vXhgZdVnLVQQdCLoAncpozz2qCvq1aqd5dViSZFSZDy3c9mTeaa/5NkrVIS/gybN9YS2dSUTYsAlDky2cWVnHQsn1z7ZOcpzlHZN4jbaNXi9P/zqWzrWQ1AZUJ2YKCoCkOIuxvbAU/Gr3HBUIh4IwlSohK2XJxDahYXtRsZHHp7xg7ZXXIQW/LViSYoQi7bJtGgdm9d+EWUhuAN8dwuPBQNNwCQsiod2BtIO/psDfifzz6iuvwF4XR7cdPJhG7dB4nV6qz/7y6LtrFy5cOFqc/jv2/x8pAXz37//+6IsvPv9Mt9vdnt49HaykRIzOzV+FefdJANLUxKRfHPL7AelEFOSaWp58UvijLhdP889ZKHCBQihSLhBbyfiT475AN67lNqEAFS0Igg8Tf9QNjPr0LK+wlZhFBijRaIfaiAnmlqaksXoMLJ+yoo5Ip6Q8EcOpWsfT3EbQL1N201hN/iz3PyD0RWwMbASlNJpaEIE+a65Cy0Yg05xTWS+um4Xi3woA0RRkIpRhbArNAL2GwY5p1wr+GzGzvxHlf0n+WV9fh8uXL8OBAwc8+YdGf1QBaDwjvC/b293Vt995+73jx4+fEsG/fa3+/8MmAD5A+64NePXUyVPze/fMeLCIlYL49V2+MucDb9/+fb5kWVtdSUSVgDZjVFIxUe45nqZ1nlZkUNAqACeFvtTVTz133drH56sWgycq+qhEUU5mIEuWqdGa1foBsh1VgcjRXV57ZOtKKOjCebEnnP680GNEjwvidM3uQjYGMiarB5spAxaVJZaNJUAdTU/JebgWTD7LjxNBWwb8DGSGX3peVq4i521Ag21gHwqqbXyMKpb8aZGpbE0kzGFF8ip2+21zUacMfDOAxvvrLPnLhCD//sYbb3rm3+E77vBPeGFhsWCF5kR55vTphasLC8di0HMFIFsAuFEJwEfx3NzcK0//4OmL4+PjlpiBQ0PDKnKuzC34m3P31JTXL6O1RayD9lwnbhMGde3tcIPFoKojGSedxLbY4S94v/2oLlxVRngSZPkkdfpzguJTIv7yrOxj1XRPqr5q0NHmktzaokUp1MQRlbkQKuIPqhJevrXGZCUOvd5rU9uReu0q4whJjx7FnAADtuEnK/FYtH4UGbplG/+s5cBM6vyp8roA+iIK0CQv5bGHSSvCVg8LOVdaFMFpPSUZxaYhonYbbAJ9RWdRrOdW0M7os7/mYN/p3+jQfOedt335vy+Kf+ryP6sLdzqd/ltvvblx6vTpdz5s+f+RE8CPn3nm3LvvvP3k4tLS+t69YT1R4mJECLp8Zd7PkgksJJGQ9eXlaJ8taL9gknV2P/Hw66wjZ9g22macQABfxFyj4L8yvwinL1yGXi8YBNpaMP4kITeKktQ87ot6BYVquKZniM23dANK0FKSfVBKAJRcf6NdhxR8xe69kG2lBEVW9fAJOuTKwQhpQMxCk0a2TKzrj9G4tM5sGNuPG30maf9zcdHHKq/CmSa/HiJwaBTWgcoJSVJ9eWEoC4aiEBgtHYaE2g/qPX011xcCMCVw2LZnfyNO/XOzc3D20hXobvdvaILgT0L+6YNGfxRD81cXYW29ffd/efnq4vHjx149f/48gW/dAv2/4QlAtgEv/fznb8zu37/X00Y7EQvgk/TSlTn/twP798PY6JiXDoO41JOcWdn+OCLyXH7WnAiEjx8KxJ9GVNQXra6tw7vHTsA3n/4J/Nu//R787J1f+r321BjGQK1t/P0RKOSqolwMKhdApF89tFCRUPBY5fPTSjDN/7KgPdwtWFH6g6LM2tTL2my5rcRNaqWB14dwwrvoVYEjHWwNCspxxBryLkGdl4u4/GHUP9FxQbU6qCzABK9A+dUbRVLyP8n82lpuMmZnHLWwi8XIDrXC0SAk397gEv/k+Vn45//bX8L/8K//Gp546lk4f2nuI53+g8A/AqZffvlluMn1/odvv91/jfg1ugLLuNh777179dKlS++K079MADt+dD5KsqJf/sS3vnVkz549z3/1q793eGZmuqIZJanMcFBcujwHV1wVsHtm2n3uhsuXLvmR4NjEFPRYRYbqlCgV7qWXo8lGCvlaK73Q9w1VHVjd6MLi4hw88/Lr8NLP3oD1zS70trZhc2sT7j18O+x2bYlPNIhp09D3/ZBbgDqxCEMvLGQLGiQZOe5TpiEFSViKHNkCrGG6r7SetokcY5MJhXYJ1S7BMksFyXDu9y0ohQE1KhSsQDkylByI+G4wvz9NMWzweJTbUDYi9ozES51DFO1RqkiQKTlR9LUQGvGcb7XGrOmtBvOGqCl6e4uD0Xz7MQQ/KU+/8Nrb8Ma7b/ult6MnjsNzr78Jf/aP/sjfd/t2T/3Kp/+ly5dhZWUF7r33XnfIDcPVq0ueYQsF7y3eBusvv3zk/TfefPOtePp3ixHgNTsd8xETgK8C3BN97uTJk3P79+8LSyNVpU7P2ctX/ANQNiOCyaprAygQhzCYXfDihhWeenJbTOruEE2V9gouzi3AMy/+FP6nP/8r+NGRl33SIVCRxEoe+ux9MDLcUVtwaRKAufUIG4aMFRQBV7DGGqILKYD0Kd4E9MSOf+KlMbqOScACBeLNbjRY/q+F54+YJ/W8HZDHc6DkttTOQnJclvJaMfi9HoJJfAis8juRZ/bsESlluVA9hik0AYPvQ6WMRdMnKxihFWBfBg6Z3WikYy7AAJ7AjRHgGHhaunbzM3ffDoduvRWG3P04NjIMZ86dg//+X/wb+J//4pvw/unzsJbMOj/86U9/f/HFF33vf8/dd/vXSOV/+ar4fjh58oN598G9f1dUANdV/gNAQ934ej/8tZ6ZmVl2wfX133v89w5urK9j153EVILzjUfmoZ42TCymjXVYX12B4dFRbyJSsy2KlYLZNpfEAhCjPuiyC/z3T52Fv/zOU/Diaz+HLtmQuZtqxLUfh266CR5/5IvwJ//gq16Y1Pb6rJgdb5g6swZFxoVimURV+Fy6muykg8VaaZ6riw1Bq3teZI6CGiFCJtTEssRE9MqbUQrU3xS9SXD6lYLmJkliZ9sqk910Qe4NmFQ3J0ERMX5jsRCjSnFu1TRbkb3rUAlsFmO+qO7EgiLMSsyOPoINWFKoBa1ZJWRbOPIWKL/9mJH9Ww/shZtcW0sHz9LKOnS3t2gLD86evwA/eulnsNHdhn2u6p2emmy0lNc6/RcWFuBnr7/uF39ud+U/xdPps+eTBJ4s/91jbv/4R0+fO3LkyBOrq6tkAU47wqQTtimSwMeWAPzHmbNnN9zpPvnol7702O7p6dGrLltRAuA+mNBMwgd2797l/cwuz815YZDx8YmEOnvwDwub7kj9HR4egpXlVTh97iL81ZNPwd98/wdegJQyMWEO+/bMwGMPfA7+9B9+Ax79/Ke9SYitg8WYZbAwSopJLb96wKhQ23Sj2FcQJZOw78Jiow3LABf/rSoEyWRjPTtTSFdJCe0i4Wh7llhWF/NyeT25HLcSKMTCpAQijZiDUvrsxedmMT9+UuoRK8IgngckINeIQIc0TtQcAtAjPhBiIaCpvKhdxhsl7CdB6LnjlgPw9S896LqXyuv0r613/X1NJcrbvzwOP/3FL2HUle8TE2Mw5T6vZxpAX//hD3/oGX8PP/QQjLp4oTY6rP42JzBXrly68vTTT/34rbfeei0GPiWAddEG1NfzWn6VBOCv9W2HDnVdMP7Blx59dP/q6hrSBSE0PlUBm1tw8Ob9LgGMei4zcQKG3YuraHRIHIBaGH7KtWEXyKfOXYCnnj8C/+Lf/jWcnb0E0yRK6u6E3bum4Iv33wd/8odfgz98/EswNjrs+v9eUg3KUHydSlCp76/UbpXTRZOzrpS9442sDGpRa8vl089Eyi8qmFpaWWFsZI3YisPiUwILxjD+zymgEq0EZvacECZQa7hCDkx6CmKy6orAXCOQUSUpIxmSgsnHC0esFJy9AKJPgBWIfyFAWnoNln6lAIPFNfHXxOT77D13wJcf/JxrJ9FLdBEoTWvVVJ2++LM34OjJc7B7fBym3f06Mjw0sA3g0//VV1/1p/9dh+/0Jjtnzl+M5q2gMJ3h4ap+8YXnLr78ystPup8j9H8lJoGNmAD6n0QC8O/V+ydOXN09vWvP449/9dHR0bGhZdfnE/OPiXNUKtF66a7pKV8N+CrAvahx1xbYSGFldSBeBKJNwl+8cwz+x3/9f8FPXn/D041pGWJqcgruveN2+KOvfQX+oz/+A9i/Zxq63S3o1X29lQdWuAjV2QJM6vy1ciow+wcaoyzDUH1PPp1t6rtNsS0oBDSxubzBnHss+KvpdAQUxBZMW3lpimCDVBekEzV71avnQNFTZU3BVGlYXg7KAc1BaOTrhLyVF131hK4/03ZNDtrUykmzz3iiSwcgOd9HOeIsMJgd2HwfV6//YT4osB/89N1w/713w+r6pvvc8K7ZZI4zv7gIz7/+C1he7cIXPnOPr1zbMAAq8X/4ox95jOvhhx52h6Vrea8sRPRftn8QR39LC9/5zrefdQnj+Xjyy/KfAUD4JBKAf1533HFHf2pq11e/+MUv7KNtwK5LAH4mH99IogPfctN+LxZCF2dx8WpQoHFVATtPZnTceGMROvWPnj3nwcO9U7vg9ltuhq899gj8s//gG3DP4UOwtd3LjyEUdvjElavEKFwGMpOvRUBDsHYQsQH/yfIfZJle+r2n8V7R+6PW77VR5KJOc3RT0HutWg4q3Ww8AlBpmS1OAjytSDLeKE52I/0Jo8SWAf06op6jVWV6ltcOysYhOSS33uS9F4PfQtYSBLtD8DcRaanQ02a2aX8Dgl9+zOyahMcfesCd9jP+Hl92iaDuBan1MxcuwCMPfBb2zuxq9P6BODcHr7/2Gtx9991w9513up/rw5lz+fSX7aNrEexPX3np/Msvv/T9K1eunBcJYEOMAOtPKgH463/8+PErY2Oj+3//619/ZHhkuLO8tBKqgPhGklS49zSnKsCd5POu3FlfW4NJd6Ibd7onuy0RjAT6XZqfd8E/BV97+IvwZ3/6H8JjD94fxjHbfS3IAahGJN7wg265iC8wwz/+NdFh0zxdb9aqfl5WFbl3Nw3UX5/+RolQMminWW2Z8WeMUcq5mluPyeEmk5OqDMJZYWllmGxjExhYbuyBUuGFxMQ0pmxhyi09ri4ycAcGYxXCFQWwPFDQEjCB1CG3F9nTcFDwY6YdZBC0hcSDv0HBLz/uPHgT/MGXH4LNbap+N2G7V8On77wD/vj3H4Nhvz6vMQAK8qefftq1saO5978yDwti719iRmtrq4tPfPNvXnjppZd+3HL6b10v+n8jKwD/Xhw+fLie2T3z+AOf+9xeqgIo6EMGCzcT0YFvOrDPawVsuIpgeWkp9DOjYz4AWOuyjn385+67G/bvmoZvPP4V+Id/+BV3YYa8hj0f67XNWkCQDXLTIlFqKxIVGNJij+Tu89afOlVKaxhE7cojiDpSAB6hrXrApF2vHGHR6KlCwfXP8tlQAIlc+lu1GmyMAisCOCelwo0s7aOApx/F5nGfYacfKfLBfb9JM4X0nAMmYQR+EQFNnjYmNx6jTEIRr3HyX2PE95sY+GVv//lP3QmPfeEBGHeH3J/++38Iu6fGW5H/s67Kffvtt+BTn/oU3HnHHf4eP0unf19X8cGrobKvvfYKnf7fu3T58jmRANZF+V9/mOdb3aDXjceOHbvkepf9X/va7z80Ojo6tLS47LJfL2sFuP+mHmff3hkgq/GrV6+6bOaqgIlJwE6VbMNQLPpQqb9nZho2N7ah37eJG8SqMEk9SEh1o9gjkNr9taATc58PQrhSl/G6bJanNt+81mZ0XSLXgKaRTBB07x+ZunGkha2nv0mbepCMVTPpBkPpj/pn5cgusyEFmBlP6bC7ZaIWE6RRHgj13RSaCcQzeU7Pi1zJwrQOi1YY5buMcOCpMVl6lyvNg8r+QW65v+nBX37QoXXf4YMwPjrcOgEgwZzvf/97funn0Ycf9uzWi5fnBO9fM/9WV5cX/+5v/58XXjxy5EcC+f/Qo79flQjUygyk3mNxcfGHzz337Jk9e8jAcNpdgGH1fM6ev+gtjQjQ27d/v//a1YU5j3j63ryOq6xx1k3IPlN7vTJwHU/sOpqL8MagzVZhNUhuv028//RMC5MATgTZzq/Q+bM2efQm7qBtoQ0DKO1BkBWGvHlZrcewn7SWpJWdDZ/w2eCEpcBtJAxJ1D9WAokil6mNyX0nzs/7kfbnAbyIISgMNZURtmHpXgH7+tHj972TkeV/sQnS8WYrzEewJT5i8+mDpcgPNuf7vy3B/2G1/t977z0S8gRXPcPUxIT315hzrW+57+9tvzuVffONn8+fO3/+5xHp3xSBv/1Rgv9GVgD+uR4/fvyyy2K7H//q1x6ZmpwYIrOQnq8Cws3ry3v3wm+mVsC9YJcwgKYG1P9Uw0Me8GMnXg5qzw40EVgSwVqh4N4nF0itDGytJAOBLuvLEl0SglpUI5XIBWid+zC5iKecrcXcSp7qJvH5TS1Pf9Ncmil4BmgqSLZYSVcgovKFN194KCN67ow3pMUdUwmLbhONNBGalMh8evtNPczJi1kCFqVAKK/mmiScIkU8QJp/tpT9+FvW7/8qyWHFVb9PP/UU3HrwIDzien+qjs9duBQdf7HR/xPy/7d/+9fPvvTyyz8pTv+Nj3r636gKQFUBVxcXn/7+9753cmpq0u515T6BGvkiAJxzVcCsK3OopDzoXjwRHxbmroDd7nriECkEofR5q+LJGrf72PW1L2ypApegClVC3HmvrR3gbCsDRiQM0GrDuToonXXzeZ9UdVidFkAHfwIMUVmQZz9CVEIgVq7o8MjPtp+BacdAOCphKn3qAniTI7aoumuKqoQnJDxxEE6/zAnwLUMU+rSJkWDy5qPJq9NagyA/l3LUZ/A3R53nRp/+bVRf+qRD8cgLL3j5/E/fd5+PBfLVmJtfaAH+gNit/Vd/+vL8qdOnX4+n/oaY+X/k0/9GJwC6tXtPP/30L5599id/MXvp0vIttxzw6P9Q4SV4+sx5/1fadSbBQ5oYrLhqgAw5fRUQy9ga8m6AjV4CaW24ruM+fz+OvfoJ5Mv8gkZoN0t2bC7KyLGdEWSVZFyE5eoqn6PCKShVJ8UoMeUH06S/CvNOyYBjB6VcRtukCJTXYfmJxGXZ5HeQT9fEuUpbfHK7Lzv+SjMPsfXgdwUS4s+DaSPyWc0thR6tlmxIaNIvhIUqwOB37bez9C9JP+fPn4czZ874dd9bb7nFV3Y09Sp9/hjYnZ29cOXIkRefO3bs2HGRALj8v669/487AagqYHZ29qknn3zyWGeoU+/btwdGXInP30LXgjLd2XMX/H/TyiOBgkuUADY3fRJIHHMQAF0N0acO/aP4Nth/b5WsvvKuvlbcsfJkL/6UiUDfkVGVx+b+X0qBpxM7LeYImbLkiWFiL4w7nOJazTgrCfNbE9snW2j6x5vJYOFnL/pqSH0/AXSBRN+3agUp9uO2MdhJlQHawPATOIlJC0FZqJQxC2vz8pDNdkrJWack+pQ7/r9p8/2PGvwl2Yf/JI7Ac88/D/v27YPP3X+/v/6X5+aj2m85afKOTFsvHXlh7vj777/aEvy/0ul/ozGAdPe47La6a2pq+75P3//oXXcdnvRjwe5WVDSNe4zrG7B/34xfq6Q+f2Fh3lUCXRgfmwDohDJVqXTxERZBrCBDlu2ybJ3tu1hxCMvgb1vIKef+6fjR5iLh5s6utIkYg7KKwKL81zz3fPqzMQhmX3vpmWcElRay9TXa3KsbI915uR8XPAWhBRB2+0PfH2y/ufQ3qZpJAiVJhz/2/VSJGaHSi5mwhUqKLN6waXggqc2FaAcWZB8YLNb5u9DvS5lv18PD/NwcfP6BB/xWIS3MnbswK9R+td7fiRPHLnz3u0/+/dvvvPNm7PlXbkTv/3EmAP/R7XbP27r/qS9/+cv3DQ11KrISI1ows/CoDyJQkBiCE5OTXjCEuAEU2MORIchBWcfdfhanMOrC+n4gnrZ1OpUDHwBV0HM1gSIfWCvYcqk6YM5/Dn41phL+vKUevTb2BKX1pxZejJ7xp56dx22YgU0rtu8AdBJQNmSGgzBvMhqEhrCm3vbTLkO8qWdEMqvSDgIzCauk9msqvc3HvgQmrv9igea3ufL8tgb9tfr+svS/cOECvPLKK3DnnXfCFz7/ee/0Q8G/slICf8GLcXt7a/WJb/7Nmz959tnvuNhZjsDfyq8y9//EEsDi4mJv754969PTu7/02c/ev4cIDpu0LpzojQgrq6t+VZjIQZOTE7BA3IDVFb8nQMtCXjSytqm0p/6S7cJqcRrXXkzUpKPIw1R1rXtjdULL8sA2bz4BDpYba/K7DbK6Tg0CBWxKfLMwBobgwYJGLAFAlTiQTTkhmf2mAJX9tSnsyMFkExCbgUh6t43gE6jnKyuQkvoLcsHJZimyKrRmJlp1+2TBhCfMpKFKYCWlAWebO8/vWt9PH2vr6/DUU09727xHH3kERodH/K7/xdnLDfjJuzKZiii/53784x995+zZsx9AJv2s3qjT/+NMABjHghfc/TP2pccee8j1PCOrLuCJwx/2m8Or3XA90YH9e0Mr4C7W1YWrLlFswPj4WBp/cSlOL7eO6HIVxUWD0k/lte04CCn4TVzmSUFljJ7Wix340jMqGWiADmrZRmRaa53ANAkeouqjs+WZiWOzfCJnWfTcFkAyAIM4CTE8fkPNxpOVCAAKK28hiGlCsJpk2YVaNYQrBVllsCCHySNP44O/ipoFEfTjaYaR/Tw29Ppz8vrtZPh9mL6/DfV/8cgRd2/PwwPu5L/t0CHfEtPYT27Oeqwk2rHNz12+8ld/9e+eOfLSSz8RJz+f/ls34vS/0SBgYyJAT9SVPd998ttPHnUvqiblINoIlOM3mnt+cOqsfyK3uZ6ICEK0TLTiqoE+tQy89OLBpkhuoyrAG4oE4Q8uj9lGHGPbwJLjddQilOupjTdNyIRj9vguWHYmByvk4NfGngBY7K6xHHaVgte2QYJ5P8EW9bIf3dmEi6THSDsMRuxBZbCyjhWHZbk/ca0CyzDSdhloRb3uC8mGG5MIaEiwkHERyPgEpCWoAugsii8ALeIB8LvV95el/8mTJ+HkiRNwx+HDcO/dd/vrS6K5m5tNoc/IiO0+99xPLv3y2LGXxcjvhiH/n0gLwB+ufFlxp/nqwUO3PXzfffdOb3e3g1mIbAVWVv24cMq1Abt27fLbgivLy14JqOM+TdXJjjVx1TeX39Qr99Koqo7/xjqA1ItaKZXFZb+Q7C5ZKIgtvT1kF9+sW9eUozDiVIe0DKNLar0DkKMh0XHl+DG58eR2QCoQgNgBkHx9L7nPPP0KkvqQEbW4YfUgoUWQglPwAHICMLnvlzv9nFgiWpuAR2l5ZgZTen/bS/9BwU8fS0tL8PQPfgD73cH22KOPeroveWgS5VdNXeiaVcFq76233jz/5JPf/vZ77733ljj9peBHD26QsvnHmQDSfeoy2ant7a2p3/vK4w/OzOweJsCPloW4FaAXTZXA3j27felPsmHzrgIgWzHCCEy449IoykQde3/Kx10AH+hpv9pG62jWlDOJxmsimt8cTaPQ5JTbc3I0Jp1qTJL6Kpd6QJzQhvv3lo0/lJVAYgTaFFy8euvP1CSMqW3CoBDRMKhRfkjlt0kqPzlbmESsKm3JsVD54V0E/1bUkAxfM1fCptfAzMJ2T4TfzrL/o8z76aCjTT96jQ899BDsnZnxqP/5WUL9azX3p+Cna+YOv4X/88//j2efe/75pyAz/pj1J9V+bkgCMB/j9aqZF0BPfPbiRZfTvn3MdEx94MBeD/RhEu8gLGAT3v/gtC/vbzlwwBMk6C67euUy9HvddGF5DGUiOs5fI0JQam1J+595wBhIQmHt1WZvdSx9hG0mwGDT3VfSUzAJXQqBB4khGDGAZM6/AvhyUskqu/HEtibp/vOPA2Lez7eFjyCGrUAbdfd0gMdA5GC02kZb2pOA8AU0UmIsghD8+FhzO2aEwpEWc02SihYGynb/roB+g/p+mni99vrrvgK455574Hby9/Ny+fN+408ePp7fEja0us89+8zs8ePHj8SSfz1+lqy/+ka9ruoTun7EDVgaGR5aOnjwtofvvffeaULuN7tb/kJxMBA3gK4SkYfIUISmBHQBKZBJRgypFagD8tQjoM8r2PbzPkDkAtAuuqcUpxo29tCeZWi14ScTbEpte1Pg0yjKccxGGqr3x8x/hyiUkU93VCW/ria0AYbFvJ+P2ZkkG4JkYT7BE7Cp9FbrykL5h5uo/LtBqAxFJ5209SdR/yjoKcQ8lb6BESagaAs/Aisqt9+u5Z4PE/zy9KfK9L2j78GbP38DDt95p+f6U9KcvXQlSnzrkR8pXtE1e+ONn5974om/++Y77777lpj5l6V/fSNfW/VJXshjx4+f7nY3Rr702GMPHti/f4RKpK4gCNENQwaIVPZThTDjkgAlgMWlRT8zHYpJQCn42rAHQL+D9Nis1ZbirH7LPAHWG0xEFZb+Ql3+Km0AQRBieWtG1bRSMKQ+mBML/1tAd8VMXo7G0kRBIOjcgyuBkUJWDLUKUMYC8tluKiNaHq0WjCbrA1Zx5FiDnEow6p9fshE6CMaYQt0nbAui8AmU3gH4/4Pgp4/z5y/AkRdf9H3/o67vp30XWoy7MHu54WBMKtZeAOfy7Nyf/5v//UcvvPjiD4vgZ9LPr8z6+3UnAH8PuOC+7Pqfzz34+S8cGhsfq9bXgqGIwgNW1rwOwOjoqCcJLS4uua8tw4jLlEPDI/nGTmV6FhLl3GDiLgA7CSmdP2OU9ThvGmKh3ScDjE861t7LfXhmyMkb26htOKNAMxUIBqJFlo0Ku5BEPJL7T+zWU+Ge4ttkVF9JfBk90kuBqmf+RvTvNdOKGQSMZB8bE5phkDJWH0lUFI3S80syZMCVUmHh/TuO+JPOxQ9/9EN/iD3yyCOwa2qXl/e+OHvFG4tk7AmDLJ47tLa2tja+/e0nfvn8c899y1W98wL4k4y/HnwMlobVJ33xLl68uDbU6VyZnNr1yKc//ek97gZGUguiSoDzBM1N19c34YBrBYg44TcGFxe9jNjI8LB71h1/k3sCUAxe//c0uuNKP/foJlYADE3z96ciP1UCuUcG1OCfMVX77SsD22BRGZgExhnheaAEOrlFYeuthnS4rghSMuLTXEweqkJVw0iasjr9M/Bn2FvAhArHRH4De/gx6m9rYXtmsLD7knJeGuswyQLudxvxJ57/D55+2lejD37hC57q2+/1/cm/UYz8vL1dUAruP/fcT85+9ztP/s37J04cL1D/jwX4+7UmAPr44IMPZl3wbt5zz70PHj58xyTdWN2EB2QJMZoU3Lx/L0zv2uUlkkg6ubu54fUD0HsRir45WX5b7S/H5qLphGet+lqV/xADXMqMGcRGv5bKXYmWSw0/YeaBRiD73E8XSLt3SIrB5gU2Ia/SAmAhimmECalRIyQ+/W3aTzBKxDMlBJOZgey8U6OUHM+GIwH11z1/rmhEiwTasw8kexHy9OZ3NfgZ8X/h+edhfn4e7r//fvj0p+7zF+Ci6/uXllfVyU/XbCSuyR99790L/+4v/+K7r7322ssC9V/5uEv/X2cC8Jfhl8eOHV9dXRl77Etf+fxNN+8f2d7ajmrCPTUapJHeTS4JEB6wsdWF1eUVnwTIEYgqgdDb95IUDe8HKEqrMPjIQW9SMpDagcbkntkgZtmrUq6GgxyKZSCrxUKwMmLvXewDJN09G9sICQZqfn2Wzc6c/1QViPk6AXgmHcOakZd/n4lJIPbs7pdVcv5vKs1GNKBsvU16wCwhbnJnEBazMM84qqI1+l3r+emTpL1++uqr3tWXEP+HvvCgt6unsn9+4WrD2JOCnxLz3Nzl+f/lX/3LZ37y7LPfF8HPnH8O/h58jG7m1a/xWuPoyMhsr+7f/8ADDxycmpqsNjc2/YikX0tQcMnflOQutHfPXlheXfXmib3tLVcJxCRgeWxXJ8NMW+rLJTfd0A4kUT9e7bUZ/MNiiy0EXdWcYSWADvXGn1ABRpOXh5Kll5wEsH+ekOxGtbWYx2zA7QSf8vFxK3mqV+LxGNDkhFaIiFZQtAqiQgrAIChTlOwWlNUCrCncgtOyls06ib/DgB9VrW+++Qs4evQ9L+31Jdf302u+MrcAs5fnG7+Lyn5qaTc21taf+ObfHXXB/61V3fe3of6/mwlgdnZ2zV2rc8NDIx4PGBsbw42YBHI/HpLA+NgoTE6MuySwB5ZdAlhZWvL9lZdajs424MlAeeafG/wWQA812cff9LE6kDLdYG1yutHuQZhJLjG4vBQ2A4v0M5VRBp/pJPDB1xHjyGjQkXz/Cl8+1j4Eq0aVPqANZFmuhGdII5GI/DONOVlsafORIA2eN/iMwhBQ+AFaMSIUwkZQ2HkJF+Xfhgrgo5z8FPzvvPMO/OIXb3pxj0cffsSf/FTyz3qmn/afIDs7Yrf2+73tp5/6f889+eS3/u+Tp06dEKj/yifR9/+6E4Dy1D516tQVd0Gu7N9/4MF77rlrenhoKIKCXch6/xYWl1Zg19Sk3xzcu2fGVwLLS4v+1KeLihXr0VceDwh8dz5qsyRY0vEXi0JyQcUngcRwh7h0ZOMij/n/2vsS5zbOK8/X3bhIECBAgpcoUhSpg7JOS7JsZ9YeO8dskqqNZ2t2q3a2slWZzH8x/8FMTTKpmqqp3Z2ZZCc+4nFi2bIlO04mOhzJkmzdBymR4n0TJEgcxEUAvd97/X3dXzdB6rBuoavaIGkIBNH9fu/3rt+zL7aQyoPJpQwspbNUihS1dMoB6LJun25u5ZWVglWbsYO588BslAI+QKSq4NSLMwDH8NiG/arS5mJJtcjcCWj8XLOkeqQEp7V0RGYLijkgVZ76W0lGMGcdVAlElPt44yRSaciyewMz6JqqPlLj7+npgUsXL0JzczN5fhTBxeQ1Gr+Q9ZYz/jgHw/5t6eyZL8beffedX1+5evVSGePPwl2u93pSGYB53BoYGM1m0pmuri272tvaarA0ghcZYysBAphZjTMQqK0NUIkljCDAmECCsQNUpnXLIEBMoGQJiXKPJLxpCYzY196qqpgJQ7lDkQRI+RQeLRxR7NVsn88D/UMT8NahT+Hw0VNUtWhraaLmDlN/QFGkyoQwUqvhRhexvKJI1QGLGTgbbkxvLIGWrW1XTD/yEqcpJ6paAFjSxVQi2JJ/VuIPbKrDqrwD0QyVwF7RgJXe/356/qGJafibn/wzHD52EooM9LZv3vC1X/+ejf/GDbh44QI0NDZSjz/ek7lsnpJ+eZ7MljP+1dU+uv49Pdcnf/Hzfzl85uzZk464X97tV3jQnv+xAgA8UO+MeXRt1+7dO1vXrfMZK8XytrZJ/OAxMRiqDRqNQgQCCRISwYUBbreHKwuDNb7LfVhJinNleWpdTswp9mUhYgiJ82r79hxuKLjv7eBnx6FveIS91yxk2Pvd0rEeaoN+oV8ieVapqKjIPQK6ZWS6NWknL8gU3F1WFdLAUv+xAYIizxxaOv0gre+myURVgIxgDaqUt7Bif1UamTaz/oo00afKnZWlMmpI9+cYHp+CNz84zK51kXnZKHQw2t3cEH74xt/baxh/JAIHmPHjbgsc752OzlF3qzPj7/dX09djoyPRf/qnf/zsxOef/87h+ctt9n1mAMD8Q9OZzNDSUqp+x44dm5ubmzylYoFGJpeXrZnpXM4AgTADAURdFBXFpGA8wUCUPd9gAlyplqvZYJOLiw8BiS5AkQQ0m224EClSNTROosTC4ytix4a1JAPfNVK+0xd74cylq5CjvAXACzueg+c2d9JSCNDtXtKq8WuUHdeF9wdJHlxVHNoComqgOrYAWdRebkqyJvRUqwQIYL1vsPb7yICk8+SfpsmLOssn/myCHqr0vblDAWxbkO/XkWT0/+yVG3R98PNeLhRpO+/dJhrXGuq5U9qPXX5o/AE0fvZzTPih4I2z0w+NH6/HXHR24c03/9+ZY8eOHc7l83Gwz/gL6v9Qjf9xAACb7F88Hl9msf8go/6d3d3b2iKRepfRI+AEgTzNCYQ5E6irr6eR4gQKixYK1F7p9vhoHsDoWkMxTF6SEh2DvP1V1q43NgwZlQR6pJKYbsbf8syPi33vYj8/+PsTMD49Q6/TWB+BN77zCrQ0RmhWQU4SCh090XkHUj1dSHeBowfA6PlXpRq+1XZrH/e1jFB1xMWmMhC/IzVzG5AV/5NxYyIVFB4qmSl9/utXSfxp0pJRabRKeQDGb2TQvZDMZKGn/xYxr8V4CoLBEHS1NT9Q48cDw9GrV6/C5cuXoampiWg/hnvIUMn4czlbbgYPNH6c8ltcXEj++tfvXTvyyZHfzM/Pz8Darb6lh2mAj00III7Z2dmlTCZzi33y27Zu7W6qqwtr2BuA8ZUsnIg9A7iTPRQMEAg0ROpp2UIyEQeGIuBiMTguG1GkrDq2G2uqaJZRrMWgAGZyTuVlM6MqAFIfgQ5uzWovrq7yMuM/CZd7+6hsiS/zF999HbZ2tIOQ8rfRf1mjX8zhywpEMgAA2GbtzUEjRS7lSQNDcr+AJGMuD/GIPIE5z2i2MGvGnkIQ+n4geX9pJbhNQ8DJQnTT+ysPMOvv9bgY5a+D89cHaK0c3gM4DPaNvbvuKCF4r8aPCenz58+T98ddFpjwq66qJlDAhF8mm1vxeqj5j3mgVCqZPvThwf6DHxz81fj4+KjD899Xea+nAQDIjUxOTsYz6fSAy+3evalrU304VKui8dtBQKELEGcgEAwYINDY2EDaaykWDmQzaRJfUHmzkFnHlxZblAytbUryKXzQR6z1MlaV6SYFJhbBVYZ8DFjGZxfhD6fO0g54ZA7dXV3w+oE9UINLIM3kH9i2DhvGqjmm/mS9PXuZUl4IKqYTnXV/IRZiK22aHYTSpB/3/mIVOI3tOLsJuRM3wVGuBDhETITwsMLHqOEBG784sBSMg2GnL15hjMAFsYUUZJd12NPdeU+GfzvajyHoF6dPY/cqbNiwgfT8qhgTQY8/E42ZMb/892NoivX+9NJS9vDhj0aY939zgB2rxP15yfM/0wBgCwfGxsfnU6nULZ/Xt7dr06YQggAygWxuJQgsxuMkKoo3RzOjZ7h9eJEERVLUJ4CqQooUf1veE6QKgUo9BMbiSyP+pySg6H/nI70unOBiP//46Em4MThMbxsbO/7b916HTkZFrck7ucau2xuHzDl6WVADpI4/xwZiAEmn0BLiEHMGqmJXOJG7CIX3B13sNpCMXfABVTEjDUV1lP1MpmQlGq2N6rqZG3hYHX/4WdWFQzAwNgPTc1EW5hWpbby7qxPCQf89e/1yxo+5JRazw/TUFHQxgEfPj+CTZr8PtfxzZsJPkTy/YfyZTDr3ySeHx9/91Tv/dpMdaxh/4VF5/8cyBJA/iNHR0WgymRjw+/3Pb9zYGQqHQypecGwbLnBJMfzwcYFobGGRZgSwV6CpsZHgFEeJkQ242HPcXGpcyG6Ji20MwbgM+TBiCxpjBgUpE6+aE4fY6IPe/8LNQTh++jzdCBhWvLBzF7y4uxuqPV6zjGiW5oRh6k5FIWnjry3uBxvllhuI5K279hq/JM4pNSoJ+S8xi6+pzp2FYCX5+Oi0PI4srwgHm6a/DrLyn+rcr/CAj2qfFwJ+L3xx8Tr97lQmR2xu346tkrr73Xt98TU6mGg0CkePHoU0Y5TY2793zx5igahmhaIemJNaSfurwOv1oNBt/reffjr+zjtv/bKnt7cH7D3+jyzj/6SEALaMEgOBmXh8EUFgT+fGjbV1dWHUsKSyy7I0N4AXbW5+kRp3InVh6hhEabF4PAHxxQX2MRcM4QW+psyk3GJSEMSNrUgdcdacvdEaq1CZ8cjRL2BkcpqSiYFAEH74g2/T0JJZMRS9BNSp57I15ih86Mak0bKMuLkfy9Lgk0t3lPzjY8Ci9Gdu0+GvLecF5K81McikKlw0RKUtPooIgUw5Ja4DIKYaVUkqja9GFmVLnXv+RyHrjQm4mbk4jIyPU8I2tpiApoZGaGuOfC3jR0aJbP00o/14X+BUH+7vQ8+P+/ui8zEu52X3/MhAMfmcTmdyn376yfhbb7/5y+s9PddWMX454196lAb3ODMAGQSmFxcXBrxe3+7Ozs7a+vqwih8+JoHkCUK8ERAEisUC0cRgMADB2lpKGOHqsQJ7PvViu70get4VxVAV0lSXJTmml8zatli/hb8AF53+/tR5+OpKD7tRclAslOBPX9pPZT+XqvFwgf07l9iRrVs6+qrGKwklPrNvH/4RxmaSfkn7T07+2diCqkgbeCz/a9X9jdyFZvzQlldQxI4CzZIIVy1BPwuYxMCSDqbhg0MDAR6i9xcHMrGO9U1w7NwVxgaXiRUiOB/YtW3F+7pTyo/JPszyX7p0iSZQcZ4flarxiM4v0OlcDY9fW8afzh7++ND4O2+/JRt/EuyS3tlHlfF/UgCgLBAgE2AgcNPtcu3sZOFAQ6ROw5p9jncMKlKn2iLz+jhTEGbGjwmZxoYGihOxTEghAbvpPb4qs7XXWKZZsmJezZL61lRDVdjt1iCVzsNH/3EcZmMx4grNzU3wX7/9pxAJB6CIQqSq5CV59yCBCliUnEqL+PolnX8v03aQeLZdpVc0/ohtnLQkxbwJVWltkWpT4VV4stEoZ0oThXxWwVTt0UWlAF9fN8uSILL7EibJk5GPUtwT2VUymYFe5rHxc4wtJCjU29qx/q68Pp5I9f948iQMDQ5CW1sbKfnUBmspxIvOLcBCPGnT7xesDZ0M5oASiXj6o0MfjPyKxfxlaH8549cfByN7nAFAZgF0jo2NRRcWFnqLheLmzq6uCKP5LvTomIzB5KB8gWjVGFYI2AXC3ACKjGJtPpHAQaJFUFjM72IxO3pBkuvSNJv0lsiEF1nogCCA3v/ol5fgWv8gLXMoFnT44Rv/GTZtWEfxpyJ1/Ii4Gm8sem3KK5R4+ZF7U02VlIjAvqdQKl2qiqPNVipfigEmsO3as4Z5RIBAswm6Ysbt+B6wdEny7Og5cSzYpXEPb60ZX7G3T1VsXYa2lV+P4OZAhaj1LQ1wsWeAFKNyjA3i3/rqC3tu6/XF18ggx1kYgfE+MsWtjO6jhh96dPxskPKn0ukVfyXW9wOBGrq+8/Nzyfff/82t99779zdv9vXdLOP5RaOPrOxTAYB7AYKJiYn5+dh8z1JqqaWzq7M5Ul/vweQLsoB8viBdYIVKOLHYAgFALQMCZALV/moGDmlYXIjBcjbDm4Y8RO00rqBrJsXQ6zLDKLFv3C4VBkamYGRiiuj/lk2d8I09O6DG7zUVcOV5Ajxc7CYx9hoaTUWiK1FRLDpuxu2maIYONllyaWpPk8Q6zeSdYjdTkfWXt+yq5iSfsZYMk2hXbw7DP/7yPfj3j/4Dalk8vbOrTVJUUnm+wT4ZqSp2uv8ovb/4jGuqfVBfG4RTFy7TZ7y+uRH+075dtuuwFuVHuo81fswpoHR39+bN9DfjPYKUHztPbayDdPxc4Pf76eupyamFd999+9r7B9//1cDg4EAZzy8bf/FxMv4nCQBsIDA9Pb0Qjc5en5mZ9W/s6mpriER8gYCfYv/CcsEmMoqJwpnZefJ42DQUYBe6gbYP5Ui/DdkA3tgut4eonFk606xhGkN+rAQdLU30BkKBEPz3777KACXMtQylKUGxXFSzhodcnAEIAQ70pJhIUnV5yMbKFZhencuaqWaYzhWDNFlYXA4fZNFRe5nRnPXHOjW7gc9evQFHT52FZBo9ZwHa29qhuS5Im5dFfkG3sRLr9fVHCADlEnw4G+Lx+RkbaIHXXtwPzZHQml4f7w9U7vn8889hdGQE2trbqbOvob6e/j8m++Zii/zaWpSfWAdjgtjhh6xvcHAw+q//+s9nDx85/D5jEWNr0P5HWut/WgDABgJz8/MpxgauDdzqz3Zt2ry5qbmpOlRbq+CNjhQ9v5y3XTicJMSwAAHAzxhDS1MTef6lVAoW57GskyVDpaWkksy3vLQTk0ybN66HPduw199nCJeIQRrb6CyYzUDIAoq8A1GjkKJI1Bypo6Gvr9g0A2y7BVW74jBIa7vs5UQ5+adI2X6VL0gBnvE3nupjQHdzaBwuXr/JQpkCrGtuhv07u5knrYGixEDEyK9NkRgezVqvtTL7GArs3NwB+7Zvthl/uVgfvf6169fh7Jkz9P3OnTthNzurmGFjOXmeGT82l8keXxx+fxX4fFVYgi5dvnxp6mf/8JPfHT9+7Mh8LDa7Sp3/sTb+JxkA6MNMpVK5vr6+67Mz06nGxubNra3rApH6sIJz1wUW2xlCjBYIpDNZhvwL1CGIqsPhcJiGiTB2XIjFDDaAMbPba8bEmqra6vF4T6H3Njfkmtl8Y8uOLrX/Yl9BSQdT7EPlRg+qtUJMzP6bxqtIXl1aDabxf28qEEnZfLl7UDQJmXsEFGvNl1g+4nVrcGNoDC703KAM+rqmRti7vRvqQjXGLhWRy1AsiTPVqpralJaUR2j4d5PhF17/5MmTMDgwAOvWraPGnvb164n5pdIZiC3GeWefvbCJ1wyX16LuRCaTLZw4fmzs//zf/32YMYjf5fL5BKxs75UTfo9VzP+kA8AKEMDHWwMDt6Jzs9Nuj3vrhvaOQDhUq2F7MB4kMSZ1DhZYmIBdXDi5FaiphiqG6C3sZkBQQIaAQJDPpKlt1uUz1pJpVneJkSvQVGluoGR2yYnFnJpqlQGRNRgaBDz5x+NxXkm2Ymxwav5bFmbsIhEsQMoRgLUR2Go5tmYOSrpua0YSvQ9elwEA56/fAJy4bGlsIgCIMAAomnUuxSxIyKvU5AGnR230d5LkE+28WN776qtz9POdO3bAnl27qF8fB8YwWRxPLkmU36ri4oh5MFhD98HCwmLmo0MfjL319lu/OXv27Clu6EtrGH/xcTb+JxUAnNUBAoLh4eHR+bm5m4lksqWjY2MkHAp5UEcQR3aNFuKcLWmGFx2bR7BzKxwMEBvAJCHmDLBnAJOERRZGuPlyUpFxN1V5yEmUyNiNphrD+LA0SfV+8RQ+Xai6NEtvACxNfku9WKj+iu/lCTzFUu3VwbYkVLwfRQITurAYcvDvTaFPvUQg5XOLEOAGMaUWxgD27WAAwEKAQtGYmhS9BA5R4Qfq+e+34WOGf2xsDI4dP4ZDZrB+fSuN8K5vbaXGHvT2CQb6WSnRJ/cQVFWJeL+EvSgL77z9Vu8HHxx898rVq5fLxPvODr/H3vifdAAAmQXgOT4xEZ2anrp86eKF7JatW7si9ZFqTBDhiccSo3lioajBDvK0phlDgxrmDap9PpJ3QrqHgBFnbABP6vd3u7hsFq/fi1Y+6h/Qrd155lZihZqLxCy/qso03coVSFsCrJgfhO6/ZrIDwS4ojJBXcEt9BiL25w19pjqQ1fNvJDS9LhVuDLMQgAEAJk4xH/L89m0EALpiNQaZoQDYs//3EwDuxujvxPDxQMBHCXns5kPNvlBtCJ7fswe2b9sG1V4fgTK2Dy9lMiu8vkX5a2j8OJfLlS5euDD5k5/+/dFjx44dYo5mqIzXl3v7H4sOv6cdAGQQkJlAicV5qb6+vqsT4+PxULiuq7W11R8M1KiR+jAY5cJlGt+0PJpCAiNz8zHa0hKsqaHOLhz7xN6ADLtJYnNRSCcTZFBeBhKq2U4sNeHoRqKPRDUUlzVFqCq2vX8gJfOMxJw8eSedpmIwn1kQ+QPKM1ixvtg6rHLxE41PHOq62MsnDFY1S5UIAL0sBLjIcwDNjQ2wVzAA3VJEVFUz4rivSb+va/SreXwxwHPhwkU4d86g+6KuXxcKETvLLxcgnZXX09uZDfaV4PXHzzoej2ePHDk89vOf/8vhEydOfJZKpWKrlPnk7T1PjPE/6QAADopVks+BwcH+qanJwXgi2YwhAQMBN5YBI/V15DXR6GVhUPQaKOWMoUFVlQ8Cfj80RiLU7YexNLv4qOoCS6kkKCg/xryDprnNZR9G+6xubvgRIh80J69ZW3Vs+/QUS3VXntMHaRDIzAPoCl8hxmm5qtrXc/EwpMT/Jk1UGGjxCJ9y4FN/HgYmNzAEuHaTpumaGzEE2EZVAF2XJw7BtpjkXvv979bg78XwsZMP4/wvv/wSZ/BJohtHd9vXrQMXCsWyd47JXix5lsq8Ln7WmOHHMh+ygoGBgfk3f/lvNxnlf//c+fNnHfG+SPzJxl+Ex6jD71kBgNVyAnSy+G9qfGL88rlzXyW6ujZ3RSIRRgJ8SmNDPZUCMQQQYg7C2DK0x22WHqv5klKcLkTxR/IwiQTMR2dgKZEis3V7PaC5PCRMitlkikl0a7LPnCko6dbGYd0S1TC1+lRFUgk2SoaqPNWnqdIyUdW0RlVIhfF5AY1n7InK61YOAMAaI0YA6BsepxCAcgCNTRwA/FwEFWyyX1aQ8mANfq1/u5bho1LP2bNnqa8Ds/v79+2DLgYAxvYdBu7s2uSWi9SXsfJQqLEH2SHp9aczy8ePHZ342c9++ofjJ058xIDg1ipev1xfv/6kGc7TAgCrAgGLBZN9/f3XhoaHptj90tHW3h6s8lVpODaMbACNBkVE5FhQhAUzs3PkLRAscKYA8wPYRESMYCkF0ZlpBgQJEqnE0EAkAe2qPZoRj2uqOb0nVpHrYoWxmE4EsAmDqOY0nry5RzUlvp3y5DrXNVBVa0GoKq8hVo1EoZs93hyeZADQC8VC3mAAu7qhPlgjLQK5s2afr2Ps92r4eK2Q6gvDx3gfDR87+bZs2sSuVzX9nVjSRHlup8eXwz8sGWMiGJ8yOjqy+PZbb46+887bH548deoPt6H8T1Sy71kCAGc4QNRsmB0jw8OXT506ldi8eevGcDjMmL5XQRAI1QaoeWhpKW0DAWzgwcEizA+QumtVFYUHLQQEjWQUFBrMzNDIsc5uNlz+oLGTev1LBg4pnI4jMygJtSBN3hakOozN+oksESbmAkBaNGL24psSZjr1Mqgg7TDUixyMjJDETSHAGFyiJGARWpoaYO9zRghQ0M0hRt5ApNs2Bj6MrH+5RJ+o5aOxI9XHGD/BwBcNfx8z/E1dXRD0+3lJ1DD+tVwyen00fgRsdt2Xjx8/NvF3f/e3x9lxqMeY5EtLCT6Z8mfBPstfepIN5mkDgLIlQgECs9HoQl9f35WBwYHpbCa7nrGBAKP4LvQYzY0RGvhBhVesAMjlIASH+dgiO2Pkof0UGhgVA7wBsdafzWQgOjtDCcN8NkPe3sNuMJWBgV4o0bvQRDWAT+BZ4iGK6Acy1XiMNWBWbkBTFancqEsZfpEM5LP8pt6h6EUoWbMHPAmIDKBvZALOXzP6AJoZmGESsC7op1ZgaY+KjRF83QTg3arzOMt5X331FVy5coXClvb2dqL6nRs3Unenyyy/WnMQ9te0dj9iaICGz5iEzij+wi9+8fOhd95+++M//vGPv19cXIzepsT3UFZ2VQDg/oFByckIhokOjFw4ffqLxcbmlvaGxoZqr8ej4tKRhoY6IxbM5kzVIWFkeVIeWqAJMXxlHKqpJvBopNVQvqoqowQ1PwfTE+OQiseZ8y2Ay2vsg9NVqwdAE1Re0WztxkYCTjXuLj4yrPAhIhAjvdzLWYNDKs0V6LxCYEp6KRYPwESkKDtiDuDm8ARc7rlJjVHIAPbv3EYAYBsiUu8tB3Cn4cFqST5B85kxAqppYfceLt7EMGzLli2kztPe2kr5GZrfIK0FTUgdO8igdf1w8Iuez/6QWGwh/eGHH47/7B9+iuW9j3pv3LjODd9Z4nuqKP+zCAAyKxCZ2tLc3Fy8H3MDQ0ODPT292oaOjsZgMOj1eT1KfV2I1o/hHY+6AsVSaQUjwIGRmegclZOwizBQ46dhklbGCOojERYGuEiTcGZqCqLTU5BeYvcSc69eHDpya8aNjjcmHxiijkN5j6Dox9cMGXPKH4itv4o1oSdv6AE+YyCqAoqocmhiE5ERiiADmJxdgJ7BYZqFeGXfHnjtpeetLb8KSK3Dd2b499qy6zR6HMnFmfxz584T1ccQq6WlhZR5nuvuJs1HmuB0u+kzVl285Ko4X9MyfPT2pAbF/v5sNls4c+b0FDP8y4ePHD58+syZz1koMQcrlXuWwC7Z/cSV+O7kUODZOMT8CgIeFvE97MQUcRU7q8PhcN3e55//5ve///3/8edv/HkH8+hV2BMgdhJOTE7TyqeiY9+bnIBrjNRBS3MjhENBU0wEqwwTk5MwNT1NIqV4c2OpKdzQAOH6OqgN14GXfW8sHtJMqm+as2ZQer6zhP4EMdorLF90Baqg2NqBVRA7AhRD4AOs/QJoHVUMhPpGpgnItm/ZAP5qX9kPTJT+HkQpTxg+fi6T7HNCmj8zM0NeGmc0MLxqY54emZVbtExjkpWfzteRT6HRoPKFMIXCcomxidiv33tv5viJE0cZuHyVTqcT3MDFmean8PiyaOdTQfmfVQCQWazKQcDFQcDHgaBqy+bNnex49S//8n/+xbde/2ZLXV3II9aNLywmCAhwjgCnxuw6/lZdH+fEMZ+ALAK7yQzGUIBUJgMTExMQnZ0lFeM0u+mxhBiuZ2DAbvZQOAz+miB5K50vMxHeXbQIq47WPEPPz1AdIvjgMwpCn0AT28RLYGr8i5wCTQsKkVDhLVU7JbyflF8Ypvg8kN5PM2DEz4SxMfLooVCI8iptLJzyc3qPB9F2TZNascvlCuy/Qxh+qVTUR0ZG4x8cfD/66W9/e/JWf//58YmJSZ7Mkw1ffJ2V4nw51tefVqN41g4nG3A7gWD37t071re2vvLjv/rx97/x8stNodqgWxhWPJGEyakZahrK5fOrMgJ8QF3CpoYIVRkw44zHMmMROJyCrACVZxdQpozRXKS/wWAthFgYEUJ2EAqTbBklt8BayWVq+4GxsUjj7cnmqDAlFjXODnRpzZfOpcZUq/SoWsq/Mu1fLel3JyygXGsuMif8G7EfH40dPT1+BijCgTMYuGkHR5IxxncLTQbu5am6oWm3/Z1lkogoHpP8+OOPZw99+OFXwyMjF1nIN8CNO7uG4S8/7V7/WQcAJxvQOAjIQIDbHKv279u3l8WfL/31j//6uwcOHGgIBQNulXtcVIzBhqG5+QX6uvx4rvE1hhPYihqJhEm2HEuJwjCw6oAgMMOMgwRKEgnckUjePRAMsjCB/Rv2b/FrnFEgQVMOBKZWH08KYq5A430ApnAXeXVF2uOnmLqFIG1FpinGu7wpVgMEnLlHD48lOxzBRVpvhD8+WuKCjAc9fR372zzM4F2S0QuDv53RO9+HUABCw2fhRPKTI0eiBw8evDg+Pn7pek/PDcnwnZ5fNnxnU4/+LBjCs3wIINAkIPA4GcEL+/fva2pufvF//fCH33n5pZcbmWf3kFgoCkzwgaIoCw0wTJANvxwYYIwfCtUaIQLNHVTTMzDLT0ImhWXaZxCdi5KkOe5AzKTTZFQ0mlrLgKC2FmoCQaj217Cwwc8e/bQLURXjxhrn87ro/jNGkc3tHyIByRWD5Uk/xdk0s4bR07bmZNI4GXDh+0ajx0Wt+D6wQoKgFWLvFxuowgzIcMDG7dLM8EM3150bhm+uNLvLOxNLeqOjo/EjR47MffzRRxeZ979y7fr1Xh7HOw1f9vh5yfCLz4rhVwDAfqgSEMj5AQEEBAZ79+7d09Lc/MJ/+cEPvvOt17/Z2NjQUOV2uyhLR01Di0ZlYJEBwco10SvBAB9pw3EoSMwAR0+xv0DsMcQutgJnCdiDsMjDBWx/zWayJGu2zAAIDae62gCCKmZ0VewRvS2eOM7sZUaHG5LcKInu8pjiJIZKETds/H3YDYmPLEZH48Z6OyYyka7jiYNR+LvRm+P7wO8x7PB4vfR3kMEzUMN8Bu5l8Hqw4uGmJapikAnbccX+BEsTkXdJcpl2Wdnodgd7n0UW1y9+eOhQ7NjRo+eY4V/t6e29yQ1b1O1lo8+CvZ4vb+YpPYsesHKsDAtUqVogTsEIfNu3b9+yvrX1hQMHXvzWGz94o7Wjo722yucz+vBKOjUSzccWqHkokUgZ0mGgrFgAKgt6iv+HAFAbrKFkImbmMVzAMqPwvlh2RAlyHOPFr9EQkwQKS1SyJKVfZrjCgKkVlhm1fK5G3U3xT1oTbiTdMAeB5TZM0nkITDwELH5m6AaDqTFKcux5+Fy3ppl/V5HApEiPyHBKurWmXLy+ugYArAUCjHXkLl26NM/i+9iFCxe+HB0buzYwMDAiGX7W4fmFPFceVk7uPVNevwIAd5cfcDlCA5MVtLW1revq7NwfDod3/+hHP9q/e9duXGTq1Xj8isaG+YEYAwIsJxoTiKU7BgMhIIKzCKhXUMUAAbvYUOQEuxZxdNUEBmbsRSPrbfa+U/ssGrzD+MslzeRRZFUSP9HEXAEfQlL5ZiGjoUbhXhjBaJlUmQVrwd9VLHE1ZM0weEMHUeMAYBm//LUdAOyhQLFYLGFi7+jRo7EPDh7sn5ub6x0YHLw2MzMzJxl21nHmHFS/8KzF+RUAuP9A4HGEB17ME7A4d9eBFw68+r3vfa9hw4YNAWa4LuvmLZHkGAIBzhek01ny4muBwUpQsP8/BAAUMUHPjJtyqUGGxdc0j8CMCo1UeFZNkvdea3OOWUfnjTkomYWGjAlL/BuEgeP3y7QfoUCPshyZZfCW0YufWQav2Qyf2IZLk4DAep8s9MlcuXIlxuL71EXm7qdnZm5cvXr1Ojdo2fBzDsPPVwy/AgAPCgicrIAAgRl+a8eGDbtCodBzf/adP9v/jT/5k3DrunU1zGNrkiejVuNkMkU9Afh1lsaSbw8GsvGu9v+cFYm1H+/kde7u9YWRCwCwDF+zgYCLQgsXLdlw0To1i/Wkkqlc/63+xd999lni1Bdf3IzNz/cPj4zcmJqamnUYfs7h6WVvXzH8CgA8MCCQy4eihGgDhG3d3ZtaWlq2B4PBrd/69rd3vvziS3Xr1q3z4wCSaOMFHtcvLWUouYaCJLjpCJWL4I4NtVyi8V7A4P6BQjkWgCwFqwAGW/GYWgaixyKZTGRu3boVZxQ/eeb06QHm+QcnJyf7Gc0flQw67zD2nPSzZbCX8yqGXwGAh5Is1BysQA4T6HHbtm1dzU1N3YFgcPOe3Xt2vfLKq8GOjo5gqDboYV5Q1XltngYWGCCkMzmSNcesezqdIZpdMKn21/X6X8fQ7+z10fB9Pg/lLIzTY6P2xlr3fCEanUv3XL8eP3nyZLa3t+cmY0RDzMsPDgwMjDoMOu8w9ryD4gujryT3KgDwUIFAlA/lFmNRQXACAp3t7e0tra2tW1iY0Omvru547bXXOnbv2lOL7CAQCLgREAyBEt6+qxvts1j2w1VVVJZjLAEz/hiXi7j9UYQCJDDi5vkHt6gWuInWK4o9uZjP5wvMq2eHhoYSX549u3Tx4oWZVCo1trC4ODwxPj40OTUVBas0t+wwcqfB56XnCqOX6/gVw68AwEP9HOVeAq1MvsDtAAXz8TnGDuojkY5gILDBV1XVtn///vW7du7yr1+/3s9Agv2oyqWpqiK0AExgAKPsSGU/BhBUv+ePxgJTK3Gn67q11UNafOGsOIjsu0jQCQqP8br1aEzXiV59+VYSy1Nw+CaVWsrPz82lBwYHUlevXMn29d2MMkYzGU8kxubm5sb6+/tHJK9dcHj7co/OuF5u3ilVjL4CAI8TK1DLgIEMCDJLkE9Xl7HvsI2xgdbq6upmRqFbtu/YGenu7va1rmutrqur9/r91R5Gq3FFurknXJdM2/qJfJk5AOj2y26NFOv21UZlbhHrecb/YzS+lM3mCsyoc9HobGZ0ZCTd19eXHxoaTLAQZoYZ/EwikZhiBj85PDw8yQ214DiXy9D9gsPgnUZfqnj7CgA8SbkC1QEGmgQETmCQH5nzV90bNmxoqa+ra66pqWlgjKCBgUK9z+er37hxY1NX1yYXCyncdfURT21t0INJRq/Xp3k8Lg3lydh/FUYgFFHbF/V1IUkm2AGV/XSjf6FYLOqlYkFfXi6U8svLpUwmU2B0fXlhYWE5OhvNjY2N5gcHB/Wpqcko+/8LuWw2xox9nj1nDnfljY2NzbDXLTqMVhjxsmTg5Qx92fH8IthFXSpGXwGAJx4MygGC6zan/FzKO4TD4QADhnBNIBBmwBD0ejxBj8dTw+i5H0/GEKrY6WPG78GTUXycbMQAXRMYoBuJhiIz2AIz/kJJ1/PsMV8qFrMMCDIsrEgXlpfTLIZP5XK5JAODRDKZjMdiscXFeHwJVmowlsoYfeE251oGXzH6CgA8lWCgOMDAGTZoZYzetcpz5NdQHb+j3LnaPeAU0it32jYylTH6cl6/WIbGFx3/tuR47YrRVwDgmckZrAUK6iqGvtqj6gCC1cBgrWM1oy+rs3gHj8Uyzy9n7BWjrwBABRDWAAV1jZ85f67chgEoaxj/WgxAL2PA5Sj7aj/TKwZfAYDKcefXR7kNOJT7XmhnqY7XgLsEAICVK9igDCPQ1/jeaegVg68AQOW4D6BQzrAVWHur151K/Otr5ARgDcPW1/j3laMCAJXjIQNEuWt9x6pfq3xdMfDKUTkqR+V40o//Dxm6AI45lNTaAAAAAElFTkSuQmCC;" vertex="1" parent="1">
          <mxGeometry x="430" y="560" width="60" height="60" as="geometry" />
        </mxCell>
      </root>
    </mxGraphModel>
  </diagram>
</mxfile>
